%FSLAX45Y45*%
G04 Gerber Fmt 4.5, Leading zero omitted, Abs format (unit mm)*
G04 Created by KiCad (PCBNEW (5.1.5-0-10_14)) date 2020-10-23 09:09:03*
%MOMM*%
%LPD*%
G04 APERTURE LIST*
%TA.AperFunction,Profile*%
%ADD10C,0.050000*%
%TD*%
%ADD11C,0.200000*%
%ADD12C,0.300000*%
G04 APERTURE END LIST*
D10*
X6270000Y-3810000D02*
X7381875Y-3810000D01*
X4048125Y-3810000D02*
X5150000Y-3810000D01*
X6190000Y-3730000D02*
X5230000Y-3730000D01*
X5150000Y-3810000D02*
G75*
G03X5190000Y-3770000I0J40000D01*
G01*
X5230000Y-3730000D02*
G75*
G03X5190000Y-3770000I0J-40000D01*
G01*
X6270000Y-3810000D02*
G75*
G02X6230000Y-3770000I0J40000D01*
G01*
X6190000Y-3730000D02*
G75*
G02X6230000Y-3770000I0J-40000D01*
G01*
X7620000Y-7381875D02*
X7620000Y-4048125D01*
X4048125Y-7620000D02*
X7381875Y-7620000D01*
X3810000Y-4048125D02*
X3810000Y-7381875D01*
X7381875Y-3810000D02*
G75*
G02X7620000Y-4048125I0J-238125D01*
G01*
X7620000Y-7381875D02*
G75*
G02X7381875Y-7620000I-238125J0D01*
G01*
X4048125Y-7620000D02*
G75*
G02X3810000Y-7381875I0J238125D01*
G01*
X3810000Y-4048125D02*
G75*
G02X4048125Y-3810000I238125J0D01*
G01*
D11*
X4612960Y-5049840D02*
X4652960Y-5089840D01*
X4652960Y-5049840D02*
X4612960Y-5089840D01*
X4658100Y-5547680D02*
X4698100Y-5587680D01*
X4698100Y-5547680D02*
X4658100Y-5587680D01*
X4922375Y-5475180D02*
X4962375Y-5515180D01*
X4962375Y-5475180D02*
X4922375Y-5515180D01*
X4978720Y-5745800D02*
X5018720Y-5785800D01*
X5018720Y-5745800D02*
X4978720Y-5785800D01*
X5080320Y-5247960D02*
X5120320Y-5287960D01*
X5120320Y-5247960D02*
X5080320Y-5287960D01*
X5085400Y-6970080D02*
X5125400Y-7010080D01*
X5125400Y-6970080D02*
X5085400Y-7010080D01*
X5090480Y-6782120D02*
X5130480Y-6822120D01*
X5130480Y-6782120D02*
X5090480Y-6822120D01*
X5126040Y-4526600D02*
X5166040Y-4566600D01*
X5166040Y-4526600D02*
X5126040Y-4566600D01*
X5339400Y-6848160D02*
X5379400Y-6888160D01*
X5379400Y-6848160D02*
X5339400Y-6888160D01*
X5400360Y-6512880D02*
X5440360Y-6552880D01*
X5440360Y-6512880D02*
X5400360Y-6552880D01*
X5405440Y-4074480D02*
X5445440Y-4114480D01*
X5445440Y-4074480D02*
X5405440Y-4114480D01*
X5466400Y-5745800D02*
X5506400Y-5785800D01*
X5506400Y-5745800D02*
X5466400Y-5785800D01*
X5471480Y-5552760D02*
X5511480Y-5592760D01*
X5511480Y-5552760D02*
X5471480Y-5592760D01*
X5498260Y-4612960D02*
X5538260Y-4652960D01*
X5538260Y-4612960D02*
X5498260Y-4652960D01*
X5512120Y-7325680D02*
X5552120Y-7365680D01*
X5552120Y-7325680D02*
X5512120Y-7365680D01*
X5562920Y-5908360D02*
X5602920Y-5948360D01*
X5602920Y-5908360D02*
X5562920Y-5948360D01*
X5694767Y-4768631D02*
X5734767Y-4808631D01*
X5734767Y-4768631D02*
X5694767Y-4808631D01*
X5701265Y-4492855D02*
X5741265Y-4532855D01*
X5741265Y-4492855D02*
X5701265Y-4532855D01*
X5720400Y-5827080D02*
X5760400Y-5867080D01*
X5760400Y-5827080D02*
X5720400Y-5867080D01*
X5877088Y-5854252D02*
X5917088Y-5894252D01*
X5917088Y-5854252D02*
X5877088Y-5894252D01*
X5882960Y-5954080D02*
X5922960Y-5994080D01*
X5922960Y-5954080D02*
X5882960Y-5994080D01*
X5898200Y-5755960D02*
X5938200Y-5795960D01*
X5938200Y-5755960D02*
X5898200Y-5795960D01*
X5917140Y-4617575D02*
X5957140Y-4657575D01*
X5957140Y-4617575D02*
X5917140Y-4657575D01*
X5949000Y-4821240D02*
X5989000Y-4861240D01*
X5989000Y-4821240D02*
X5949000Y-4861240D01*
X5972325Y-4457555D02*
X6012325Y-4497555D01*
X6012325Y-4457555D02*
X5972325Y-4497555D01*
X5979480Y-4074480D02*
X6019480Y-4114480D01*
X6019480Y-4074480D02*
X5979480Y-4114480D01*
X6025315Y-6319955D02*
X6065315Y-6359955D01*
X6065315Y-6319955D02*
X6025315Y-6359955D01*
X6091240Y-4892360D02*
X6131240Y-4932360D01*
X6131240Y-4892360D02*
X6091240Y-4932360D01*
X6102710Y-6447622D02*
X6142710Y-6487622D01*
X6142710Y-6447622D02*
X6102710Y-6487622D01*
X6102854Y-6240014D02*
X6142854Y-6280014D01*
X6142854Y-6240014D02*
X6102854Y-6280014D01*
X6106480Y-6136960D02*
X6146480Y-6176960D01*
X6146480Y-6136960D02*
X6106480Y-6176960D01*
X6177600Y-6980240D02*
X6217600Y-7020240D01*
X6217600Y-6980240D02*
X6177600Y-7020240D01*
X6208327Y-6134822D02*
X6248327Y-6174822D01*
X6248327Y-6134822D02*
X6208327Y-6174822D01*
X6238560Y-7128940D02*
X6278560Y-7168940D01*
X6278560Y-7128940D02*
X6238560Y-7168940D01*
X6314760Y-5237800D02*
X6354760Y-5277800D01*
X6354760Y-5237800D02*
X6314760Y-5277800D01*
X6548440Y-4323400D02*
X6588440Y-4363400D01*
X6588440Y-4323400D02*
X6548440Y-4363400D01*
X6589080Y-6152200D02*
X6629080Y-6192200D01*
X6629080Y-6152200D02*
X6589080Y-6192200D01*
X6756720Y-3906840D02*
X6796720Y-3946840D01*
X6796720Y-3906840D02*
X6756720Y-3946840D01*
X6898960Y-6909120D02*
X6938960Y-6949120D01*
X6938960Y-6909120D02*
X6898960Y-6949120D01*
X7462840Y-7417120D02*
X7502840Y-7457120D01*
X7502840Y-7417120D02*
X7462840Y-7457120D01*
X7185000Y-4030000D02*
X7225000Y-4070000D01*
X7225000Y-4030000D02*
X7185000Y-4070000D01*
X7233327Y-3913327D02*
X7273327Y-3953327D01*
X7273327Y-3913327D02*
X7233327Y-3953327D01*
X7233327Y-4146673D02*
X7273327Y-4186673D01*
X7273327Y-4146673D02*
X7233327Y-4186673D01*
X7350000Y-3865000D02*
X7390000Y-3905000D01*
X7390000Y-3865000D02*
X7350000Y-3905000D01*
X7350000Y-4195000D02*
X7390000Y-4235000D01*
X7390000Y-4195000D02*
X7350000Y-4235000D01*
X7466673Y-3913327D02*
X7506673Y-3953327D01*
X7506673Y-3913327D02*
X7466673Y-3953327D01*
X7466673Y-4146673D02*
X7506673Y-4186673D01*
X7506673Y-4146673D02*
X7466673Y-4186673D01*
X7515000Y-4030000D02*
X7555000Y-4070000D01*
X7555000Y-4030000D02*
X7515000Y-4070000D01*
X5313000Y-3831875D02*
G75*
G03X5313000Y-3831875I-30000J0D01*
G01*
X5263000Y-3801875D02*
X5263000Y-3861875D01*
X5303000Y-3801875D02*
X5303000Y-3861875D01*
X5263000Y-3861875D02*
G75*
G03X5303000Y-3861875I20000J0D01*
G01*
X5303000Y-3801875D02*
G75*
G03X5263000Y-3801875I-20000J0D01*
G01*
X5313000Y-4249875D02*
G75*
G03X5313000Y-4249875I-30000J0D01*
G01*
X5263000Y-4194875D02*
X5263000Y-4304875D01*
X5303000Y-4194875D02*
X5303000Y-4304875D01*
X5263000Y-4304875D02*
G75*
G03X5303000Y-4304875I20000J0D01*
G01*
X5303000Y-4194875D02*
G75*
G03X5263000Y-4194875I-20000J0D01*
G01*
X6177000Y-3831875D02*
G75*
G03X6177000Y-3831875I-30000J0D01*
G01*
X6127000Y-3801875D02*
X6127000Y-3861875D01*
X6167000Y-3801875D02*
X6167000Y-3861875D01*
X6127000Y-3861875D02*
G75*
G03X6167000Y-3861875I20000J0D01*
G01*
X6167000Y-3801875D02*
G75*
G03X6127000Y-3801875I-20000J0D01*
G01*
X6177000Y-4249875D02*
G75*
G03X6177000Y-4249875I-30000J0D01*
G01*
X6127000Y-4194875D02*
X6127000Y-4304875D01*
X6167000Y-4194875D02*
X6167000Y-4304875D01*
X6127000Y-4304875D02*
G75*
G03X6167000Y-4304875I20000J0D01*
G01*
X6167000Y-4194875D02*
G75*
G03X6127000Y-4194875I-20000J0D01*
G01*
X7470000Y-4446000D02*
X7470000Y-4546000D01*
X7420000Y-4496000D02*
X7520000Y-4496000D01*
X7470000Y-4700000D02*
X7470000Y-4800000D01*
X7420000Y-4750000D02*
X7520000Y-4750000D01*
X7470000Y-4954000D02*
X7470000Y-5054000D01*
X7420000Y-5004000D02*
X7520000Y-5004000D01*
X6850000Y-5320000D02*
X6850000Y-5420000D01*
X6800000Y-5370000D02*
X6900000Y-5370000D01*
X6850000Y-5574000D02*
X6850000Y-5674000D01*
X6800000Y-5624000D02*
X6900000Y-5624000D01*
X6850000Y-5828000D02*
X6850000Y-5928000D01*
X6800000Y-5878000D02*
X6900000Y-5878000D01*
X6134000Y-7180000D02*
X6134000Y-7280000D01*
X6084000Y-7230000D02*
X6184000Y-7230000D01*
X6134000Y-7434000D02*
X6134000Y-7534000D01*
X6084000Y-7484000D02*
X6184000Y-7484000D01*
X6388000Y-7180000D02*
X6388000Y-7280000D01*
X6338000Y-7230000D02*
X6438000Y-7230000D01*
X6388000Y-7434000D02*
X6388000Y-7534000D01*
X6338000Y-7484000D02*
X6438000Y-7484000D01*
X6642000Y-7180000D02*
X6642000Y-7280000D01*
X6592000Y-7230000D02*
X6692000Y-7230000D01*
X6642000Y-7434000D02*
X6642000Y-7534000D01*
X6592000Y-7484000D02*
X6692000Y-7484000D01*
X6896000Y-7180000D02*
X6896000Y-7280000D01*
X6846000Y-7230000D02*
X6946000Y-7230000D01*
X6896000Y-7434000D02*
X6896000Y-7534000D01*
X6846000Y-7484000D02*
X6946000Y-7484000D01*
X7150000Y-7180000D02*
X7150000Y-7280000D01*
X7100000Y-7230000D02*
X7200000Y-7230000D01*
X7150000Y-7434000D02*
X7150000Y-7534000D01*
X7100000Y-7484000D02*
X7200000Y-7484000D01*
X7470000Y-6260000D02*
X7470000Y-6360000D01*
X7420000Y-6310000D02*
X7520000Y-6310000D01*
X7470000Y-6514000D02*
X7470000Y-6614000D01*
X7420000Y-6564000D02*
X7520000Y-6564000D01*
X7470000Y-6768000D02*
X7470000Y-6868000D01*
X7420000Y-6818000D02*
X7520000Y-6818000D01*
X7470000Y-7022000D02*
X7470000Y-7122000D01*
X7420000Y-7072000D02*
X7520000Y-7072000D01*
X3970000Y-5412000D02*
X3970000Y-5512000D01*
X3920000Y-5462000D02*
X4020000Y-5462000D01*
X3970000Y-5666000D02*
X3970000Y-5766000D01*
X3920000Y-5716000D02*
X4020000Y-5716000D01*
X3970000Y-5920000D02*
X3970000Y-6020000D01*
X3920000Y-5970000D02*
X4020000Y-5970000D01*
X6338473Y-4560473D02*
X6338473Y-4456527D01*
X6234527Y-4456527D01*
X6234527Y-4560473D01*
X6338473Y-4560473D01*
X6973473Y-4306473D02*
X6973473Y-4202527D01*
X6869527Y-4202527D01*
X6869527Y-4306473D01*
X6973473Y-4306473D01*
X4433473Y-4560473D02*
X4433473Y-4456527D01*
X4329527Y-4456527D01*
X4329527Y-4560473D01*
X4433473Y-4560473D01*
X5068473Y-4306473D02*
X5068473Y-4202527D01*
X4964527Y-4202527D01*
X4964527Y-4306473D01*
X5068473Y-4306473D01*
X6338473Y-6465473D02*
X6338473Y-6361527D01*
X6234527Y-6361527D01*
X6234527Y-6465473D01*
X6338473Y-6465473D01*
X6973473Y-6211473D02*
X6973473Y-6107527D01*
X6869527Y-6107527D01*
X6869527Y-6211473D01*
X6973473Y-6211473D01*
X4433473Y-6465473D02*
X4433473Y-6361527D01*
X4329527Y-6361527D01*
X4329527Y-6465473D01*
X4433473Y-6465473D01*
X5068473Y-6211473D02*
X5068473Y-6107527D01*
X4964527Y-6107527D01*
X4964527Y-6211473D01*
X5068473Y-6211473D01*
X7370000Y-4160000D02*
X7480000Y-4050000D01*
X7370000Y-3940000D01*
X7260000Y-4050000D01*
X7370000Y-4160000D01*
X5393500Y-4164375D02*
X5458500Y-4229375D01*
X5458500Y-4164375D02*
X5393500Y-4229375D01*
X5458500Y-4196875D02*
G75*
G03X5458500Y-4196875I-32500J0D01*
G01*
X5971500Y-4164375D02*
X6036500Y-4229375D01*
X6036500Y-4164375D02*
X5971500Y-4229375D01*
X6036500Y-4196875D02*
G75*
G03X6036500Y-4196875I-32500J0D01*
G01*
X7272720Y-5520000D02*
X7362720Y-5610000D01*
X7362720Y-5520000D02*
X7272720Y-5610000D01*
X7317720Y-5520000D02*
X7317720Y-5610000D01*
X7272720Y-5565000D02*
X7362720Y-5565000D01*
X7272720Y-5820000D02*
X7362720Y-5910000D01*
X7362720Y-5820000D02*
X7272720Y-5910000D01*
X7317720Y-5820000D02*
X7317720Y-5910000D01*
X7272720Y-5865000D02*
X7362720Y-5865000D01*
X6072000Y-4675000D02*
X6247000Y-4850000D01*
X6247000Y-4675000D02*
X6072000Y-4850000D01*
X6221372Y-4824372D02*
X6221372Y-4700628D01*
X6097628Y-4700628D01*
X6097628Y-4824372D01*
X6221372Y-4824372D01*
X7088000Y-4675000D02*
X7263000Y-4850000D01*
X7263000Y-4675000D02*
X7088000Y-4850000D01*
X7237372Y-4824372D02*
X7237372Y-4700628D01*
X7113628Y-4700628D01*
X7113628Y-4824372D01*
X7237372Y-4824372D01*
X4167000Y-4675000D02*
X4342000Y-4850000D01*
X4342000Y-4675000D02*
X4167000Y-4850000D01*
X4316372Y-4824372D02*
X4316372Y-4700628D01*
X4192628Y-4700628D01*
X4192628Y-4824372D01*
X4316372Y-4824372D01*
X5183000Y-4675000D02*
X5358000Y-4850000D01*
X5358000Y-4675000D02*
X5183000Y-4850000D01*
X5332372Y-4824372D02*
X5332372Y-4700628D01*
X5208628Y-4700628D01*
X5208628Y-4824372D01*
X5332372Y-4824372D01*
X6072000Y-6580000D02*
X6247000Y-6755000D01*
X6247000Y-6580000D02*
X6072000Y-6755000D01*
X6221372Y-6729372D02*
X6221372Y-6605628D01*
X6097628Y-6605628D01*
X6097628Y-6729372D01*
X6221372Y-6729372D01*
X7088000Y-6580000D02*
X7263000Y-6755000D01*
X7263000Y-6580000D02*
X7088000Y-6755000D01*
X7237372Y-6729372D02*
X7237372Y-6605628D01*
X7113628Y-6605628D01*
X7113628Y-6729372D01*
X7237372Y-6729372D01*
X4167000Y-6580000D02*
X4342000Y-6755000D01*
X4342000Y-6580000D02*
X4167000Y-6755000D01*
X4316372Y-6729372D02*
X4316372Y-6605628D01*
X4192628Y-6605628D01*
X4192628Y-6729372D01*
X4316372Y-6729372D01*
X5183000Y-6580000D02*
X5358000Y-6755000D01*
X5358000Y-6580000D02*
X5183000Y-6755000D01*
X5332372Y-6729372D02*
X5332372Y-6605628D01*
X5208628Y-6605628D01*
X5208628Y-6729372D01*
X5332372Y-6729372D01*
X6468110Y-4563110D02*
X6866890Y-4961890D01*
X6866890Y-4563110D02*
X6468110Y-4961890D01*
X6667500Y-4961890D02*
X6866890Y-4762500D01*
X6667500Y-4563110D01*
X6468110Y-4762500D01*
X6667500Y-4961890D01*
X4563110Y-4563110D02*
X4961890Y-4961890D01*
X4961890Y-4563110D02*
X4563110Y-4961890D01*
X4762500Y-4961890D02*
X4961890Y-4762500D01*
X4762500Y-4563110D01*
X4563110Y-4762500D01*
X4762500Y-4961890D01*
X6468110Y-6468110D02*
X6866890Y-6866890D01*
X6866890Y-6468110D02*
X6468110Y-6866890D01*
X6667500Y-6866890D02*
X6866890Y-6667500D01*
X6667500Y-6468110D01*
X6468110Y-6667500D01*
X6667500Y-6866890D01*
X4563110Y-6468110D02*
X4961890Y-6866890D01*
X4961890Y-6468110D02*
X4563110Y-6866890D01*
X4762500Y-6866890D02*
X4961890Y-6667500D01*
X4762500Y-6468110D01*
X4563110Y-6667500D01*
X4762500Y-6866890D01*
D12*
X4093928Y-8088214D02*
X4093928Y-7788214D01*
X4165357Y-7788214D01*
X4208214Y-7802500D01*
X4236786Y-7831071D01*
X4251071Y-7859643D01*
X4265357Y-7916786D01*
X4265357Y-7959643D01*
X4251071Y-8016786D01*
X4236786Y-8045357D01*
X4208214Y-8073929D01*
X4165357Y-8088214D01*
X4093928Y-8088214D01*
X4393928Y-8088214D02*
X4393928Y-7888214D01*
X4393928Y-7945357D02*
X4408214Y-7916786D01*
X4422500Y-7902500D01*
X4451071Y-7888214D01*
X4479643Y-7888214D01*
X4579643Y-8088214D02*
X4579643Y-7888214D01*
X4579643Y-7788214D02*
X4565357Y-7802500D01*
X4579643Y-7816786D01*
X4593928Y-7802500D01*
X4579643Y-7788214D01*
X4579643Y-7816786D01*
X4765357Y-8088214D02*
X4736786Y-8073929D01*
X4722500Y-8045357D01*
X4722500Y-7788214D01*
X4922500Y-8088214D02*
X4893928Y-8073929D01*
X4879643Y-8045357D01*
X4879643Y-7788214D01*
X5265357Y-8088214D02*
X5265357Y-7788214D01*
X5365357Y-8002500D01*
X5465357Y-7788214D01*
X5465357Y-8088214D01*
X5736786Y-8088214D02*
X5736786Y-7931071D01*
X5722500Y-7902500D01*
X5693928Y-7888214D01*
X5636786Y-7888214D01*
X5608214Y-7902500D01*
X5736786Y-8073929D02*
X5708214Y-8088214D01*
X5636786Y-8088214D01*
X5608214Y-8073929D01*
X5593928Y-8045357D01*
X5593928Y-8016786D01*
X5608214Y-7988214D01*
X5636786Y-7973929D01*
X5708214Y-7973929D01*
X5736786Y-7959643D01*
X5879643Y-7888214D02*
X5879643Y-8188214D01*
X5879643Y-7902500D02*
X5908214Y-7888214D01*
X5965357Y-7888214D01*
X5993928Y-7902500D01*
X6008214Y-7916786D01*
X6022500Y-7945357D01*
X6022500Y-8031071D01*
X6008214Y-8059643D01*
X5993928Y-8073929D01*
X5965357Y-8088214D01*
X5908214Y-8088214D01*
X5879643Y-8073929D01*
X6151071Y-8059643D02*
X6165357Y-8073929D01*
X6151071Y-8088214D01*
X6136786Y-8073929D01*
X6151071Y-8059643D01*
X6151071Y-8088214D01*
X6151071Y-7902500D02*
X6165357Y-7916786D01*
X6151071Y-7931071D01*
X6136786Y-7916786D01*
X6151071Y-7902500D01*
X6151071Y-7931071D01*
X3767500Y-8562500D02*
X3807500Y-8602500D01*
X3807500Y-8562500D02*
X3767500Y-8602500D01*
X4151071Y-8418214D02*
X4179643Y-8418214D01*
X4208214Y-8432500D01*
X4222500Y-8446786D01*
X4236786Y-8475357D01*
X4251071Y-8532500D01*
X4251071Y-8603929D01*
X4236786Y-8661072D01*
X4222500Y-8689643D01*
X4208214Y-8703929D01*
X4179643Y-8718214D01*
X4151071Y-8718214D01*
X4122500Y-8703929D01*
X4108214Y-8689643D01*
X4093928Y-8661072D01*
X4079643Y-8603929D01*
X4079643Y-8532500D01*
X4093928Y-8475357D01*
X4108214Y-8446786D01*
X4122500Y-8432500D01*
X4151071Y-8418214D01*
X4379643Y-8689643D02*
X4393928Y-8703929D01*
X4379643Y-8718214D01*
X4365357Y-8703929D01*
X4379643Y-8689643D01*
X4379643Y-8718214D01*
X4651071Y-8518214D02*
X4651071Y-8718214D01*
X4579643Y-8403929D02*
X4508214Y-8618214D01*
X4693928Y-8618214D01*
X4865357Y-8418214D02*
X4893928Y-8418214D01*
X4922500Y-8432500D01*
X4936786Y-8446786D01*
X4951071Y-8475357D01*
X4965357Y-8532500D01*
X4965357Y-8603929D01*
X4951071Y-8661072D01*
X4936786Y-8689643D01*
X4922500Y-8703929D01*
X4893928Y-8718214D01*
X4865357Y-8718214D01*
X4836786Y-8703929D01*
X4822500Y-8689643D01*
X4808214Y-8661072D01*
X4793928Y-8603929D01*
X4793928Y-8532500D01*
X4808214Y-8475357D01*
X4822500Y-8446786D01*
X4836786Y-8432500D01*
X4865357Y-8418214D01*
X5093928Y-8718214D02*
X5093928Y-8518214D01*
X5093928Y-8546786D02*
X5108214Y-8532500D01*
X5136786Y-8518214D01*
X5179643Y-8518214D01*
X5208214Y-8532500D01*
X5222500Y-8561072D01*
X5222500Y-8718214D01*
X5222500Y-8561072D02*
X5236786Y-8532500D01*
X5265357Y-8518214D01*
X5308214Y-8518214D01*
X5336786Y-8532500D01*
X5351071Y-8561072D01*
X5351071Y-8718214D01*
X5493928Y-8718214D02*
X5493928Y-8518214D01*
X5493928Y-8546786D02*
X5508214Y-8532500D01*
X5536786Y-8518214D01*
X5579643Y-8518214D01*
X5608214Y-8532500D01*
X5622500Y-8561072D01*
X5622500Y-8718214D01*
X5622500Y-8561072D02*
X5636786Y-8532500D01*
X5665357Y-8518214D01*
X5708214Y-8518214D01*
X5736786Y-8532500D01*
X5751071Y-8561072D01*
X5751071Y-8718214D01*
X6336786Y-8403929D02*
X6079643Y-8789643D01*
X6722500Y-8418214D02*
X6751071Y-8418214D01*
X6779643Y-8432500D01*
X6793928Y-8446786D01*
X6808214Y-8475357D01*
X6822500Y-8532500D01*
X6822500Y-8603929D01*
X6808214Y-8661072D01*
X6793928Y-8689643D01*
X6779643Y-8703929D01*
X6751071Y-8718214D01*
X6722500Y-8718214D01*
X6693928Y-8703929D01*
X6679643Y-8689643D01*
X6665357Y-8661072D01*
X6651071Y-8603929D01*
X6651071Y-8532500D01*
X6665357Y-8475357D01*
X6679643Y-8446786D01*
X6693928Y-8432500D01*
X6722500Y-8418214D01*
X6951071Y-8689643D02*
X6965357Y-8703929D01*
X6951071Y-8718214D01*
X6936786Y-8703929D01*
X6951071Y-8689643D01*
X6951071Y-8718214D01*
X7151071Y-8418214D02*
X7179643Y-8418214D01*
X7208214Y-8432500D01*
X7222500Y-8446786D01*
X7236786Y-8475357D01*
X7251071Y-8532500D01*
X7251071Y-8603929D01*
X7236786Y-8661072D01*
X7222500Y-8689643D01*
X7208214Y-8703929D01*
X7179643Y-8718214D01*
X7151071Y-8718214D01*
X7122500Y-8703929D01*
X7108214Y-8689643D01*
X7093928Y-8661072D01*
X7079643Y-8603929D01*
X7079643Y-8532500D01*
X7093928Y-8475357D01*
X7108214Y-8446786D01*
X7122500Y-8432500D01*
X7151071Y-8418214D01*
X7536786Y-8718214D02*
X7365357Y-8718214D01*
X7451071Y-8718214D02*
X7451071Y-8418214D01*
X7422500Y-8461072D01*
X7393928Y-8489643D01*
X7365357Y-8503929D01*
X7793928Y-8418214D02*
X7736786Y-8418214D01*
X7708214Y-8432500D01*
X7693928Y-8446786D01*
X7665357Y-8489643D01*
X7651071Y-8546786D01*
X7651071Y-8661072D01*
X7665357Y-8689643D01*
X7679643Y-8703929D01*
X7708214Y-8718214D01*
X7765357Y-8718214D01*
X7793928Y-8703929D01*
X7808214Y-8689643D01*
X7822500Y-8661072D01*
X7822500Y-8589643D01*
X7808214Y-8561072D01*
X7793928Y-8546786D01*
X7765357Y-8532500D01*
X7708214Y-8532500D01*
X7679643Y-8546786D01*
X7665357Y-8561072D01*
X7651071Y-8589643D01*
X7936786Y-8418214D02*
X7936786Y-8475357D01*
X8051071Y-8418214D02*
X8051071Y-8475357D01*
X8493928Y-8832500D02*
X8479643Y-8818214D01*
X8451071Y-8775357D01*
X8436786Y-8746786D01*
X8422500Y-8703929D01*
X8408214Y-8632500D01*
X8408214Y-8575357D01*
X8422500Y-8503929D01*
X8436786Y-8461072D01*
X8451071Y-8432500D01*
X8479643Y-8389643D01*
X8493928Y-8375357D01*
X8736786Y-8518214D02*
X8736786Y-8718214D01*
X8665357Y-8403929D02*
X8593928Y-8618214D01*
X8779643Y-8618214D01*
X8936786Y-8546786D02*
X8908214Y-8532500D01*
X8893928Y-8518214D01*
X8879643Y-8489643D01*
X8879643Y-8475357D01*
X8893928Y-8446786D01*
X8908214Y-8432500D01*
X8936786Y-8418214D01*
X8993928Y-8418214D01*
X9022500Y-8432500D01*
X9036786Y-8446786D01*
X9051071Y-8475357D01*
X9051071Y-8489643D01*
X9036786Y-8518214D01*
X9022500Y-8532500D01*
X8993928Y-8546786D01*
X8936786Y-8546786D01*
X8908214Y-8561072D01*
X8893928Y-8575357D01*
X8879643Y-8603929D01*
X8879643Y-8661072D01*
X8893928Y-8689643D01*
X8908214Y-8703929D01*
X8936786Y-8718214D01*
X8993928Y-8718214D01*
X9022500Y-8703929D01*
X9036786Y-8689643D01*
X9051071Y-8661072D01*
X9051071Y-8603929D01*
X9036786Y-8575357D01*
X9022500Y-8561072D01*
X8993928Y-8546786D01*
X9408214Y-8718214D02*
X9408214Y-8418214D01*
X9536786Y-8718214D02*
X9536786Y-8561072D01*
X9522500Y-8532500D01*
X9493928Y-8518214D01*
X9451071Y-8518214D01*
X9422500Y-8532500D01*
X9408214Y-8546786D01*
X9722500Y-8718214D02*
X9693928Y-8703929D01*
X9679643Y-8689643D01*
X9665357Y-8661072D01*
X9665357Y-8575357D01*
X9679643Y-8546786D01*
X9693928Y-8532500D01*
X9722500Y-8518214D01*
X9765357Y-8518214D01*
X9793928Y-8532500D01*
X9808214Y-8546786D01*
X9822500Y-8575357D01*
X9822500Y-8661072D01*
X9808214Y-8689643D01*
X9793928Y-8703929D01*
X9765357Y-8718214D01*
X9722500Y-8718214D01*
X9993928Y-8718214D02*
X9965357Y-8703929D01*
X9951071Y-8675357D01*
X9951071Y-8418214D01*
X10222500Y-8703929D02*
X10193928Y-8718214D01*
X10136786Y-8718214D01*
X10108214Y-8703929D01*
X10093928Y-8675357D01*
X10093928Y-8561072D01*
X10108214Y-8532500D01*
X10136786Y-8518214D01*
X10193928Y-8518214D01*
X10222500Y-8532500D01*
X10236786Y-8561072D01*
X10236786Y-8589643D01*
X10093928Y-8618214D01*
X10351071Y-8703929D02*
X10379643Y-8718214D01*
X10436786Y-8718214D01*
X10465357Y-8703929D01*
X10479643Y-8675357D01*
X10479643Y-8661072D01*
X10465357Y-8632500D01*
X10436786Y-8618214D01*
X10393928Y-8618214D01*
X10365357Y-8603929D01*
X10351071Y-8575357D01*
X10351071Y-8561072D01*
X10365357Y-8532500D01*
X10393928Y-8518214D01*
X10436786Y-8518214D01*
X10465357Y-8532500D01*
X10579643Y-8832500D02*
X10593928Y-8818214D01*
X10622500Y-8775357D01*
X10636786Y-8746786D01*
X10651071Y-8703929D01*
X10665357Y-8632500D01*
X10665357Y-8575357D01*
X10651071Y-8503929D01*
X10636786Y-8461072D01*
X10622500Y-8432500D01*
X10593928Y-8389643D01*
X10579643Y-8375357D01*
X3807500Y-8978500D02*
G75*
G03X3807500Y-8978500I-30000J0D01*
G01*
X4151071Y-8814214D02*
X4179643Y-8814214D01*
X4208214Y-8828500D01*
X4222500Y-8842786D01*
X4236786Y-8871357D01*
X4251071Y-8928500D01*
X4251071Y-8999929D01*
X4236786Y-9057072D01*
X4222500Y-9085643D01*
X4208214Y-9099929D01*
X4179643Y-9114214D01*
X4151071Y-9114214D01*
X4122500Y-9099929D01*
X4108214Y-9085643D01*
X4093928Y-9057072D01*
X4079643Y-8999929D01*
X4079643Y-8928500D01*
X4093928Y-8871357D01*
X4108214Y-8842786D01*
X4122500Y-8828500D01*
X4151071Y-8814214D01*
X4379643Y-9085643D02*
X4393928Y-9099929D01*
X4379643Y-9114214D01*
X4365357Y-9099929D01*
X4379643Y-9085643D01*
X4379643Y-9114214D01*
X4651071Y-8814214D02*
X4593928Y-8814214D01*
X4565357Y-8828500D01*
X4551071Y-8842786D01*
X4522500Y-8885643D01*
X4508214Y-8942786D01*
X4508214Y-9057072D01*
X4522500Y-9085643D01*
X4536786Y-9099929D01*
X4565357Y-9114214D01*
X4622500Y-9114214D01*
X4651071Y-9099929D01*
X4665357Y-9085643D01*
X4679643Y-9057072D01*
X4679643Y-8985643D01*
X4665357Y-8957072D01*
X4651071Y-8942786D01*
X4622500Y-8928500D01*
X4565357Y-8928500D01*
X4536786Y-8942786D01*
X4522500Y-8957072D01*
X4508214Y-8985643D01*
X4865357Y-8814214D02*
X4893928Y-8814214D01*
X4922500Y-8828500D01*
X4936786Y-8842786D01*
X4951071Y-8871357D01*
X4965357Y-8928500D01*
X4965357Y-8999929D01*
X4951071Y-9057072D01*
X4936786Y-9085643D01*
X4922500Y-9099929D01*
X4893928Y-9114214D01*
X4865357Y-9114214D01*
X4836786Y-9099929D01*
X4822500Y-9085643D01*
X4808214Y-9057072D01*
X4793928Y-8999929D01*
X4793928Y-8928500D01*
X4808214Y-8871357D01*
X4822500Y-8842786D01*
X4836786Y-8828500D01*
X4865357Y-8814214D01*
X5093928Y-9114214D02*
X5093928Y-8914214D01*
X5093928Y-8942786D02*
X5108214Y-8928500D01*
X5136786Y-8914214D01*
X5179643Y-8914214D01*
X5208214Y-8928500D01*
X5222500Y-8957072D01*
X5222500Y-9114214D01*
X5222500Y-8957072D02*
X5236786Y-8928500D01*
X5265357Y-8914214D01*
X5308214Y-8914214D01*
X5336786Y-8928500D01*
X5351071Y-8957072D01*
X5351071Y-9114214D01*
X5493928Y-9114214D02*
X5493928Y-8914214D01*
X5493928Y-8942786D02*
X5508214Y-8928500D01*
X5536786Y-8914214D01*
X5579643Y-8914214D01*
X5608214Y-8928500D01*
X5622500Y-8957072D01*
X5622500Y-9114214D01*
X5622500Y-8957072D02*
X5636786Y-8928500D01*
X5665357Y-8914214D01*
X5708214Y-8914214D01*
X5736786Y-8928500D01*
X5751071Y-8957072D01*
X5751071Y-9114214D01*
X6336786Y-8799929D02*
X6079643Y-9185643D01*
X6722500Y-8814214D02*
X6751071Y-8814214D01*
X6779643Y-8828500D01*
X6793928Y-8842786D01*
X6808214Y-8871357D01*
X6822500Y-8928500D01*
X6822500Y-8999929D01*
X6808214Y-9057072D01*
X6793928Y-9085643D01*
X6779643Y-9099929D01*
X6751071Y-9114214D01*
X6722500Y-9114214D01*
X6693928Y-9099929D01*
X6679643Y-9085643D01*
X6665357Y-9057072D01*
X6651071Y-8999929D01*
X6651071Y-8928500D01*
X6665357Y-8871357D01*
X6679643Y-8842786D01*
X6693928Y-8828500D01*
X6722500Y-8814214D01*
X6951071Y-9085643D02*
X6965357Y-9099929D01*
X6951071Y-9114214D01*
X6936786Y-9099929D01*
X6951071Y-9085643D01*
X6951071Y-9114214D01*
X7151071Y-8814214D02*
X7179643Y-8814214D01*
X7208214Y-8828500D01*
X7222500Y-8842786D01*
X7236786Y-8871357D01*
X7251071Y-8928500D01*
X7251071Y-8999929D01*
X7236786Y-9057072D01*
X7222500Y-9085643D01*
X7208214Y-9099929D01*
X7179643Y-9114214D01*
X7151071Y-9114214D01*
X7122500Y-9099929D01*
X7108214Y-9085643D01*
X7093928Y-9057072D01*
X7079643Y-8999929D01*
X7079643Y-8928500D01*
X7093928Y-8871357D01*
X7108214Y-8842786D01*
X7122500Y-8828500D01*
X7151071Y-8814214D01*
X7365357Y-8842786D02*
X7379643Y-8828500D01*
X7408214Y-8814214D01*
X7479643Y-8814214D01*
X7508214Y-8828500D01*
X7522500Y-8842786D01*
X7536786Y-8871357D01*
X7536786Y-8899929D01*
X7522500Y-8942786D01*
X7351071Y-9114214D01*
X7536786Y-9114214D01*
X7793928Y-8914214D02*
X7793928Y-9114214D01*
X7722500Y-8799929D02*
X7651071Y-9014214D01*
X7836786Y-9014214D01*
X7936786Y-8814214D02*
X7936786Y-8871357D01*
X8051071Y-8814214D02*
X8051071Y-8871357D01*
X8493928Y-9228500D02*
X8479643Y-9214214D01*
X8451071Y-9171357D01*
X8436786Y-9142786D01*
X8422500Y-9099929D01*
X8408214Y-9028500D01*
X8408214Y-8971357D01*
X8422500Y-8899929D01*
X8436786Y-8857072D01*
X8451071Y-8828500D01*
X8479643Y-8785643D01*
X8493928Y-8771357D01*
X8665357Y-8814214D02*
X8693928Y-8814214D01*
X8722500Y-8828500D01*
X8736786Y-8842786D01*
X8751071Y-8871357D01*
X8765357Y-8928500D01*
X8765357Y-8999929D01*
X8751071Y-9057072D01*
X8736786Y-9085643D01*
X8722500Y-9099929D01*
X8693928Y-9114214D01*
X8665357Y-9114214D01*
X8636786Y-9099929D01*
X8622500Y-9085643D01*
X8608214Y-9057072D01*
X8593928Y-8999929D01*
X8593928Y-8928500D01*
X8608214Y-8871357D01*
X8622500Y-8842786D01*
X8636786Y-8828500D01*
X8665357Y-8814214D01*
X9122500Y-9114214D02*
X9122500Y-8814214D01*
X9251071Y-9114214D02*
X9251071Y-8957072D01*
X9236786Y-8928500D01*
X9208214Y-8914214D01*
X9165357Y-8914214D01*
X9136786Y-8928500D01*
X9122500Y-8942786D01*
X9436786Y-9114214D02*
X9408214Y-9099929D01*
X9393928Y-9085643D01*
X9379643Y-9057072D01*
X9379643Y-8971357D01*
X9393928Y-8942786D01*
X9408214Y-8928500D01*
X9436786Y-8914214D01*
X9479643Y-8914214D01*
X9508214Y-8928500D01*
X9522500Y-8942786D01*
X9536786Y-8971357D01*
X9536786Y-9057072D01*
X9522500Y-9085643D01*
X9508214Y-9099929D01*
X9479643Y-9114214D01*
X9436786Y-9114214D01*
X9708214Y-9114214D02*
X9679643Y-9099929D01*
X9665357Y-9071357D01*
X9665357Y-8814214D01*
X9936786Y-9099929D02*
X9908214Y-9114214D01*
X9851071Y-9114214D01*
X9822500Y-9099929D01*
X9808214Y-9071357D01*
X9808214Y-8957072D01*
X9822500Y-8928500D01*
X9851071Y-8914214D01*
X9908214Y-8914214D01*
X9936786Y-8928500D01*
X9951071Y-8957072D01*
X9951071Y-8985643D01*
X9808214Y-9014214D01*
X10065357Y-9099929D02*
X10093928Y-9114214D01*
X10151071Y-9114214D01*
X10179643Y-9099929D01*
X10193928Y-9071357D01*
X10193928Y-9057072D01*
X10179643Y-9028500D01*
X10151071Y-9014214D01*
X10108214Y-9014214D01*
X10079643Y-8999929D01*
X10065357Y-8971357D01*
X10065357Y-8957072D01*
X10079643Y-8928500D01*
X10108214Y-8914214D01*
X10151071Y-8914214D01*
X10179643Y-8928500D01*
X10551071Y-8999929D02*
X10779643Y-8999929D01*
X10665357Y-9114214D02*
X10665357Y-8885643D01*
X11279643Y-8914214D02*
X11279643Y-9114214D01*
X11208214Y-8799929D02*
X11136786Y-9014214D01*
X11322500Y-9014214D01*
X11651071Y-9099929D02*
X11679643Y-9114214D01*
X11736786Y-9114214D01*
X11765357Y-9099929D01*
X11779643Y-9071357D01*
X11779643Y-9057072D01*
X11765357Y-9028500D01*
X11736786Y-9014214D01*
X11693928Y-9014214D01*
X11665357Y-8999929D01*
X11651071Y-8971357D01*
X11651071Y-8957072D01*
X11665357Y-8928500D01*
X11693928Y-8914214D01*
X11736786Y-8914214D01*
X11765357Y-8928500D01*
X11951071Y-9114214D02*
X11922500Y-9099929D01*
X11908214Y-9071357D01*
X11908214Y-8814214D01*
X12108214Y-9114214D02*
X12079643Y-9099929D01*
X12065357Y-9085643D01*
X12051071Y-9057072D01*
X12051071Y-8971357D01*
X12065357Y-8942786D01*
X12079643Y-8928500D01*
X12108214Y-8914214D01*
X12151071Y-8914214D01*
X12179643Y-8928500D01*
X12193928Y-8942786D01*
X12208214Y-8971357D01*
X12208214Y-9057072D01*
X12193928Y-9085643D01*
X12179643Y-9099929D01*
X12151071Y-9114214D01*
X12108214Y-9114214D01*
X12293928Y-8914214D02*
X12408214Y-8914214D01*
X12336786Y-8814214D02*
X12336786Y-9071357D01*
X12351071Y-9099929D01*
X12379643Y-9114214D01*
X12408214Y-9114214D01*
X12493928Y-9099929D02*
X12522500Y-9114214D01*
X12579643Y-9114214D01*
X12608214Y-9099929D01*
X12622500Y-9071357D01*
X12622500Y-9057072D01*
X12608214Y-9028500D01*
X12579643Y-9014214D01*
X12536786Y-9014214D01*
X12508214Y-8999929D01*
X12493928Y-8971357D01*
X12493928Y-8957072D01*
X12508214Y-8928500D01*
X12536786Y-8914214D01*
X12579643Y-8914214D01*
X12608214Y-8928500D01*
X12722500Y-9228500D02*
X12736786Y-9214214D01*
X12765357Y-9171357D01*
X12779643Y-9142786D01*
X12793928Y-9099929D01*
X12808214Y-9028500D01*
X12808214Y-8971357D01*
X12793928Y-8899929D01*
X12779643Y-8857072D01*
X12765357Y-8828500D01*
X12736786Y-8785643D01*
X12722500Y-8771357D01*
X3757500Y-9324500D02*
X3757500Y-9424500D01*
X3707500Y-9374500D02*
X3807500Y-9374500D01*
X4251071Y-9510214D02*
X4079643Y-9510214D01*
X4165357Y-9510214D02*
X4165357Y-9210214D01*
X4136786Y-9253072D01*
X4108214Y-9281643D01*
X4079643Y-9295929D01*
X4379643Y-9481643D02*
X4393928Y-9495929D01*
X4379643Y-9510214D01*
X4365357Y-9495929D01*
X4379643Y-9481643D01*
X4379643Y-9510214D01*
X4579643Y-9210214D02*
X4608214Y-9210214D01*
X4636786Y-9224500D01*
X4651071Y-9238786D01*
X4665357Y-9267357D01*
X4679643Y-9324500D01*
X4679643Y-9395929D01*
X4665357Y-9453072D01*
X4651071Y-9481643D01*
X4636786Y-9495929D01*
X4608214Y-9510214D01*
X4579643Y-9510214D01*
X4551071Y-9495929D01*
X4536786Y-9481643D01*
X4522500Y-9453072D01*
X4508214Y-9395929D01*
X4508214Y-9324500D01*
X4522500Y-9267357D01*
X4536786Y-9238786D01*
X4551071Y-9224500D01*
X4579643Y-9210214D01*
X4865357Y-9210214D02*
X4893928Y-9210214D01*
X4922500Y-9224500D01*
X4936786Y-9238786D01*
X4951071Y-9267357D01*
X4965357Y-9324500D01*
X4965357Y-9395929D01*
X4951071Y-9453072D01*
X4936786Y-9481643D01*
X4922500Y-9495929D01*
X4893928Y-9510214D01*
X4865357Y-9510214D01*
X4836786Y-9495929D01*
X4822500Y-9481643D01*
X4808214Y-9453072D01*
X4793928Y-9395929D01*
X4793928Y-9324500D01*
X4808214Y-9267357D01*
X4822500Y-9238786D01*
X4836786Y-9224500D01*
X4865357Y-9210214D01*
X5093928Y-9510214D02*
X5093928Y-9310214D01*
X5093928Y-9338786D02*
X5108214Y-9324500D01*
X5136786Y-9310214D01*
X5179643Y-9310214D01*
X5208214Y-9324500D01*
X5222500Y-9353072D01*
X5222500Y-9510214D01*
X5222500Y-9353072D02*
X5236786Y-9324500D01*
X5265357Y-9310214D01*
X5308214Y-9310214D01*
X5336786Y-9324500D01*
X5351071Y-9353072D01*
X5351071Y-9510214D01*
X5493928Y-9510214D02*
X5493928Y-9310214D01*
X5493928Y-9338786D02*
X5508214Y-9324500D01*
X5536786Y-9310214D01*
X5579643Y-9310214D01*
X5608214Y-9324500D01*
X5622500Y-9353072D01*
X5622500Y-9510214D01*
X5622500Y-9353072D02*
X5636786Y-9324500D01*
X5665357Y-9310214D01*
X5708214Y-9310214D01*
X5736786Y-9324500D01*
X5751071Y-9353072D01*
X5751071Y-9510214D01*
X6336786Y-9195929D02*
X6079643Y-9581643D01*
X6722500Y-9210214D02*
X6751071Y-9210214D01*
X6779643Y-9224500D01*
X6793928Y-9238786D01*
X6808214Y-9267357D01*
X6822500Y-9324500D01*
X6822500Y-9395929D01*
X6808214Y-9453072D01*
X6793928Y-9481643D01*
X6779643Y-9495929D01*
X6751071Y-9510214D01*
X6722500Y-9510214D01*
X6693928Y-9495929D01*
X6679643Y-9481643D01*
X6665357Y-9453072D01*
X6651071Y-9395929D01*
X6651071Y-9324500D01*
X6665357Y-9267357D01*
X6679643Y-9238786D01*
X6693928Y-9224500D01*
X6722500Y-9210214D01*
X6951071Y-9481643D02*
X6965357Y-9495929D01*
X6951071Y-9510214D01*
X6936786Y-9495929D01*
X6951071Y-9481643D01*
X6951071Y-9510214D01*
X7151071Y-9210214D02*
X7179643Y-9210214D01*
X7208214Y-9224500D01*
X7222500Y-9238786D01*
X7236786Y-9267357D01*
X7251071Y-9324500D01*
X7251071Y-9395929D01*
X7236786Y-9453072D01*
X7222500Y-9481643D01*
X7208214Y-9495929D01*
X7179643Y-9510214D01*
X7151071Y-9510214D01*
X7122500Y-9495929D01*
X7108214Y-9481643D01*
X7093928Y-9453072D01*
X7079643Y-9395929D01*
X7079643Y-9324500D01*
X7093928Y-9267357D01*
X7108214Y-9238786D01*
X7122500Y-9224500D01*
X7151071Y-9210214D01*
X7351071Y-9210214D02*
X7536786Y-9210214D01*
X7436786Y-9324500D01*
X7479643Y-9324500D01*
X7508214Y-9338786D01*
X7522500Y-9353072D01*
X7536786Y-9381643D01*
X7536786Y-9453072D01*
X7522500Y-9481643D01*
X7508214Y-9495929D01*
X7479643Y-9510214D01*
X7393928Y-9510214D01*
X7365357Y-9495929D01*
X7351071Y-9481643D01*
X7679643Y-9510214D02*
X7736786Y-9510214D01*
X7765357Y-9495929D01*
X7779643Y-9481643D01*
X7808214Y-9438786D01*
X7822500Y-9381643D01*
X7822500Y-9267357D01*
X7808214Y-9238786D01*
X7793928Y-9224500D01*
X7765357Y-9210214D01*
X7708214Y-9210214D01*
X7679643Y-9224500D01*
X7665357Y-9238786D01*
X7651071Y-9267357D01*
X7651071Y-9338786D01*
X7665357Y-9367357D01*
X7679643Y-9381643D01*
X7708214Y-9395929D01*
X7765357Y-9395929D01*
X7793928Y-9381643D01*
X7808214Y-9367357D01*
X7822500Y-9338786D01*
X7936786Y-9210214D02*
X7936786Y-9267357D01*
X8051071Y-9210214D02*
X8051071Y-9267357D01*
X8493928Y-9624500D02*
X8479643Y-9610214D01*
X8451071Y-9567357D01*
X8436786Y-9538786D01*
X8422500Y-9495929D01*
X8408214Y-9424500D01*
X8408214Y-9367357D01*
X8422500Y-9295929D01*
X8436786Y-9253072D01*
X8451071Y-9224500D01*
X8479643Y-9181643D01*
X8493928Y-9167357D01*
X8593928Y-9238786D02*
X8608214Y-9224500D01*
X8636786Y-9210214D01*
X8708214Y-9210214D01*
X8736786Y-9224500D01*
X8751071Y-9238786D01*
X8765357Y-9267357D01*
X8765357Y-9295929D01*
X8751071Y-9338786D01*
X8579643Y-9510214D01*
X8765357Y-9510214D01*
X8865357Y-9210214D02*
X9051071Y-9210214D01*
X8951071Y-9324500D01*
X8993928Y-9324500D01*
X9022500Y-9338786D01*
X9036786Y-9353072D01*
X9051071Y-9381643D01*
X9051071Y-9453072D01*
X9036786Y-9481643D01*
X9022500Y-9495929D01*
X8993928Y-9510214D01*
X8908214Y-9510214D01*
X8879643Y-9495929D01*
X8865357Y-9481643D01*
X9408214Y-9510214D02*
X9408214Y-9210214D01*
X9536786Y-9510214D02*
X9536786Y-9353072D01*
X9522500Y-9324500D01*
X9493928Y-9310214D01*
X9451071Y-9310214D01*
X9422500Y-9324500D01*
X9408214Y-9338786D01*
X9722500Y-9510214D02*
X9693928Y-9495929D01*
X9679643Y-9481643D01*
X9665357Y-9453072D01*
X9665357Y-9367357D01*
X9679643Y-9338786D01*
X9693928Y-9324500D01*
X9722500Y-9310214D01*
X9765357Y-9310214D01*
X9793928Y-9324500D01*
X9808214Y-9338786D01*
X9822500Y-9367357D01*
X9822500Y-9453072D01*
X9808214Y-9481643D01*
X9793928Y-9495929D01*
X9765357Y-9510214D01*
X9722500Y-9510214D01*
X9993928Y-9510214D02*
X9965357Y-9495929D01*
X9951071Y-9467357D01*
X9951071Y-9210214D01*
X10222500Y-9495929D02*
X10193928Y-9510214D01*
X10136786Y-9510214D01*
X10108214Y-9495929D01*
X10093928Y-9467357D01*
X10093928Y-9353072D01*
X10108214Y-9324500D01*
X10136786Y-9310214D01*
X10193928Y-9310214D01*
X10222500Y-9324500D01*
X10236786Y-9353072D01*
X10236786Y-9381643D01*
X10093928Y-9410214D01*
X10351071Y-9495929D02*
X10379643Y-9510214D01*
X10436786Y-9510214D01*
X10465357Y-9495929D01*
X10479643Y-9467357D01*
X10479643Y-9453072D01*
X10465357Y-9424500D01*
X10436786Y-9410214D01*
X10393928Y-9410214D01*
X10365357Y-9395929D01*
X10351071Y-9367357D01*
X10351071Y-9353072D01*
X10365357Y-9324500D01*
X10393928Y-9310214D01*
X10436786Y-9310214D01*
X10465357Y-9324500D01*
X10579643Y-9624500D02*
X10593928Y-9610214D01*
X10622500Y-9567357D01*
X10636786Y-9538786D01*
X10651071Y-9495929D01*
X10665357Y-9424500D01*
X10665357Y-9367357D01*
X10651071Y-9295929D01*
X10636786Y-9253072D01*
X10622500Y-9224500D01*
X10593928Y-9181643D01*
X10579643Y-9167357D01*
X3785973Y-9822473D02*
X3785973Y-9718527D01*
X3682027Y-9718527D01*
X3682027Y-9822473D01*
X3785973Y-9822473D01*
X4251071Y-9906214D02*
X4079643Y-9906214D01*
X4165357Y-9906214D02*
X4165357Y-9606214D01*
X4136786Y-9649072D01*
X4108214Y-9677643D01*
X4079643Y-9691929D01*
X4379643Y-9877643D02*
X4393928Y-9891929D01*
X4379643Y-9906214D01*
X4365357Y-9891929D01*
X4379643Y-9877643D01*
X4379643Y-9906214D01*
X4651071Y-9706214D02*
X4651071Y-9906214D01*
X4579643Y-9591929D02*
X4508214Y-9806214D01*
X4693928Y-9806214D01*
X4779643Y-9606214D02*
X4979643Y-9606214D01*
X4851071Y-9906214D01*
X5093928Y-9906214D02*
X5093928Y-9706214D01*
X5093928Y-9734786D02*
X5108214Y-9720500D01*
X5136786Y-9706214D01*
X5179643Y-9706214D01*
X5208214Y-9720500D01*
X5222500Y-9749072D01*
X5222500Y-9906214D01*
X5222500Y-9749072D02*
X5236786Y-9720500D01*
X5265357Y-9706214D01*
X5308214Y-9706214D01*
X5336786Y-9720500D01*
X5351071Y-9749072D01*
X5351071Y-9906214D01*
X5493928Y-9906214D02*
X5493928Y-9706214D01*
X5493928Y-9734786D02*
X5508214Y-9720500D01*
X5536786Y-9706214D01*
X5579643Y-9706214D01*
X5608214Y-9720500D01*
X5622500Y-9749072D01*
X5622500Y-9906214D01*
X5622500Y-9749072D02*
X5636786Y-9720500D01*
X5665357Y-9706214D01*
X5708214Y-9706214D01*
X5736786Y-9720500D01*
X5751071Y-9749072D01*
X5751071Y-9906214D01*
X6336786Y-9591929D02*
X6079643Y-9977643D01*
X6722500Y-9606214D02*
X6751071Y-9606214D01*
X6779643Y-9620500D01*
X6793928Y-9634786D01*
X6808214Y-9663357D01*
X6822500Y-9720500D01*
X6822500Y-9791929D01*
X6808214Y-9849072D01*
X6793928Y-9877643D01*
X6779643Y-9891929D01*
X6751071Y-9906214D01*
X6722500Y-9906214D01*
X6693928Y-9891929D01*
X6679643Y-9877643D01*
X6665357Y-9849072D01*
X6651071Y-9791929D01*
X6651071Y-9720500D01*
X6665357Y-9663357D01*
X6679643Y-9634786D01*
X6693928Y-9620500D01*
X6722500Y-9606214D01*
X6951071Y-9877643D02*
X6965357Y-9891929D01*
X6951071Y-9906214D01*
X6936786Y-9891929D01*
X6951071Y-9877643D01*
X6951071Y-9906214D01*
X7151071Y-9606214D02*
X7179643Y-9606214D01*
X7208214Y-9620500D01*
X7222500Y-9634786D01*
X7236786Y-9663357D01*
X7251071Y-9720500D01*
X7251071Y-9791929D01*
X7236786Y-9849072D01*
X7222500Y-9877643D01*
X7208214Y-9891929D01*
X7179643Y-9906214D01*
X7151071Y-9906214D01*
X7122500Y-9891929D01*
X7108214Y-9877643D01*
X7093928Y-9849072D01*
X7079643Y-9791929D01*
X7079643Y-9720500D01*
X7093928Y-9663357D01*
X7108214Y-9634786D01*
X7122500Y-9620500D01*
X7151071Y-9606214D01*
X7522500Y-9606214D02*
X7379643Y-9606214D01*
X7365357Y-9749072D01*
X7379643Y-9734786D01*
X7408214Y-9720500D01*
X7479643Y-9720500D01*
X7508214Y-9734786D01*
X7522500Y-9749072D01*
X7536786Y-9777643D01*
X7536786Y-9849072D01*
X7522500Y-9877643D01*
X7508214Y-9891929D01*
X7479643Y-9906214D01*
X7408214Y-9906214D01*
X7379643Y-9891929D01*
X7365357Y-9877643D01*
X7708214Y-9734786D02*
X7679643Y-9720500D01*
X7665357Y-9706214D01*
X7651071Y-9677643D01*
X7651071Y-9663357D01*
X7665357Y-9634786D01*
X7679643Y-9620500D01*
X7708214Y-9606214D01*
X7765357Y-9606214D01*
X7793928Y-9620500D01*
X7808214Y-9634786D01*
X7822500Y-9663357D01*
X7822500Y-9677643D01*
X7808214Y-9706214D01*
X7793928Y-9720500D01*
X7765357Y-9734786D01*
X7708214Y-9734786D01*
X7679643Y-9749072D01*
X7665357Y-9763357D01*
X7651071Y-9791929D01*
X7651071Y-9849072D01*
X7665357Y-9877643D01*
X7679643Y-9891929D01*
X7708214Y-9906214D01*
X7765357Y-9906214D01*
X7793928Y-9891929D01*
X7808214Y-9877643D01*
X7822500Y-9849072D01*
X7822500Y-9791929D01*
X7808214Y-9763357D01*
X7793928Y-9749072D01*
X7765357Y-9734786D01*
X7936786Y-9606214D02*
X7936786Y-9663357D01*
X8051071Y-9606214D02*
X8051071Y-9663357D01*
X8493928Y-10020500D02*
X8479643Y-10006214D01*
X8451071Y-9963357D01*
X8436786Y-9934786D01*
X8422500Y-9891929D01*
X8408214Y-9820500D01*
X8408214Y-9763357D01*
X8422500Y-9691929D01*
X8436786Y-9649072D01*
X8451071Y-9620500D01*
X8479643Y-9577643D01*
X8493928Y-9563357D01*
X8651071Y-9734786D02*
X8622500Y-9720500D01*
X8608214Y-9706214D01*
X8593928Y-9677643D01*
X8593928Y-9663357D01*
X8608214Y-9634786D01*
X8622500Y-9620500D01*
X8651071Y-9606214D01*
X8708214Y-9606214D01*
X8736786Y-9620500D01*
X8751071Y-9634786D01*
X8765357Y-9663357D01*
X8765357Y-9677643D01*
X8751071Y-9706214D01*
X8736786Y-9720500D01*
X8708214Y-9734786D01*
X8651071Y-9734786D01*
X8622500Y-9749072D01*
X8608214Y-9763357D01*
X8593928Y-9791929D01*
X8593928Y-9849072D01*
X8608214Y-9877643D01*
X8622500Y-9891929D01*
X8651071Y-9906214D01*
X8708214Y-9906214D01*
X8736786Y-9891929D01*
X8751071Y-9877643D01*
X8765357Y-9849072D01*
X8765357Y-9791929D01*
X8751071Y-9763357D01*
X8736786Y-9749072D01*
X8708214Y-9734786D01*
X9122500Y-9906214D02*
X9122500Y-9606214D01*
X9251071Y-9906214D02*
X9251071Y-9749072D01*
X9236786Y-9720500D01*
X9208214Y-9706214D01*
X9165357Y-9706214D01*
X9136786Y-9720500D01*
X9122500Y-9734786D01*
X9436786Y-9906214D02*
X9408214Y-9891929D01*
X9393928Y-9877643D01*
X9379643Y-9849072D01*
X9379643Y-9763357D01*
X9393928Y-9734786D01*
X9408214Y-9720500D01*
X9436786Y-9706214D01*
X9479643Y-9706214D01*
X9508214Y-9720500D01*
X9522500Y-9734786D01*
X9536786Y-9763357D01*
X9536786Y-9849072D01*
X9522500Y-9877643D01*
X9508214Y-9891929D01*
X9479643Y-9906214D01*
X9436786Y-9906214D01*
X9708214Y-9906214D02*
X9679643Y-9891929D01*
X9665357Y-9863357D01*
X9665357Y-9606214D01*
X9936786Y-9891929D02*
X9908214Y-9906214D01*
X9851071Y-9906214D01*
X9822500Y-9891929D01*
X9808214Y-9863357D01*
X9808214Y-9749072D01*
X9822500Y-9720500D01*
X9851071Y-9706214D01*
X9908214Y-9706214D01*
X9936786Y-9720500D01*
X9951071Y-9749072D01*
X9951071Y-9777643D01*
X9808214Y-9806214D01*
X10065357Y-9891929D02*
X10093928Y-9906214D01*
X10151071Y-9906214D01*
X10179643Y-9891929D01*
X10193928Y-9863357D01*
X10193928Y-9849072D01*
X10179643Y-9820500D01*
X10151071Y-9806214D01*
X10108214Y-9806214D01*
X10079643Y-9791929D01*
X10065357Y-9763357D01*
X10065357Y-9749072D01*
X10079643Y-9720500D01*
X10108214Y-9706214D01*
X10151071Y-9706214D01*
X10179643Y-9720500D01*
X10293928Y-10020500D02*
X10308214Y-10006214D01*
X10336786Y-9963357D01*
X10351071Y-9934786D01*
X10365357Y-9891929D01*
X10379643Y-9820500D01*
X10379643Y-9763357D01*
X10365357Y-9691929D01*
X10351071Y-9649072D01*
X10336786Y-9620500D01*
X10308214Y-9577643D01*
X10293928Y-9563357D01*
X3697500Y-10276500D02*
X3807500Y-10166500D01*
X3697500Y-10056500D01*
X3587500Y-10166500D01*
X3697500Y-10276500D01*
X4079643Y-10030786D02*
X4093928Y-10016500D01*
X4122500Y-10002214D01*
X4193928Y-10002214D01*
X4222500Y-10016500D01*
X4236786Y-10030786D01*
X4251071Y-10059357D01*
X4251071Y-10087929D01*
X4236786Y-10130786D01*
X4065357Y-10302214D01*
X4251071Y-10302214D01*
X4379643Y-10273643D02*
X4393928Y-10287929D01*
X4379643Y-10302214D01*
X4365357Y-10287929D01*
X4379643Y-10273643D01*
X4379643Y-10302214D01*
X4508214Y-10030786D02*
X4522500Y-10016500D01*
X4551071Y-10002214D01*
X4622500Y-10002214D01*
X4651071Y-10016500D01*
X4665357Y-10030786D01*
X4679643Y-10059357D01*
X4679643Y-10087929D01*
X4665357Y-10130786D01*
X4493928Y-10302214D01*
X4679643Y-10302214D01*
X4865357Y-10002214D02*
X4893928Y-10002214D01*
X4922500Y-10016500D01*
X4936786Y-10030786D01*
X4951071Y-10059357D01*
X4965357Y-10116500D01*
X4965357Y-10187929D01*
X4951071Y-10245072D01*
X4936786Y-10273643D01*
X4922500Y-10287929D01*
X4893928Y-10302214D01*
X4865357Y-10302214D01*
X4836786Y-10287929D01*
X4822500Y-10273643D01*
X4808214Y-10245072D01*
X4793928Y-10187929D01*
X4793928Y-10116500D01*
X4808214Y-10059357D01*
X4822500Y-10030786D01*
X4836786Y-10016500D01*
X4865357Y-10002214D01*
X5093928Y-10302214D02*
X5093928Y-10102214D01*
X5093928Y-10130786D02*
X5108214Y-10116500D01*
X5136786Y-10102214D01*
X5179643Y-10102214D01*
X5208214Y-10116500D01*
X5222500Y-10145072D01*
X5222500Y-10302214D01*
X5222500Y-10145072D02*
X5236786Y-10116500D01*
X5265357Y-10102214D01*
X5308214Y-10102214D01*
X5336786Y-10116500D01*
X5351071Y-10145072D01*
X5351071Y-10302214D01*
X5493928Y-10302214D02*
X5493928Y-10102214D01*
X5493928Y-10130786D02*
X5508214Y-10116500D01*
X5536786Y-10102214D01*
X5579643Y-10102214D01*
X5608214Y-10116500D01*
X5622500Y-10145072D01*
X5622500Y-10302214D01*
X5622500Y-10145072D02*
X5636786Y-10116500D01*
X5665357Y-10102214D01*
X5708214Y-10102214D01*
X5736786Y-10116500D01*
X5751071Y-10145072D01*
X5751071Y-10302214D01*
X6336786Y-9987929D02*
X6079643Y-10373643D01*
X6722500Y-10002214D02*
X6751071Y-10002214D01*
X6779643Y-10016500D01*
X6793928Y-10030786D01*
X6808214Y-10059357D01*
X6822500Y-10116500D01*
X6822500Y-10187929D01*
X6808214Y-10245072D01*
X6793928Y-10273643D01*
X6779643Y-10287929D01*
X6751071Y-10302214D01*
X6722500Y-10302214D01*
X6693928Y-10287929D01*
X6679643Y-10273643D01*
X6665357Y-10245072D01*
X6651071Y-10187929D01*
X6651071Y-10116500D01*
X6665357Y-10059357D01*
X6679643Y-10030786D01*
X6693928Y-10016500D01*
X6722500Y-10002214D01*
X6951071Y-10273643D02*
X6965357Y-10287929D01*
X6951071Y-10302214D01*
X6936786Y-10287929D01*
X6951071Y-10273643D01*
X6951071Y-10302214D01*
X7151071Y-10002214D02*
X7179643Y-10002214D01*
X7208214Y-10016500D01*
X7222500Y-10030786D01*
X7236786Y-10059357D01*
X7251071Y-10116500D01*
X7251071Y-10187929D01*
X7236786Y-10245072D01*
X7222500Y-10273643D01*
X7208214Y-10287929D01*
X7179643Y-10302214D01*
X7151071Y-10302214D01*
X7122500Y-10287929D01*
X7108214Y-10273643D01*
X7093928Y-10245072D01*
X7079643Y-10187929D01*
X7079643Y-10116500D01*
X7093928Y-10059357D01*
X7108214Y-10030786D01*
X7122500Y-10016500D01*
X7151071Y-10002214D01*
X7422500Y-10130786D02*
X7393928Y-10116500D01*
X7379643Y-10102214D01*
X7365357Y-10073643D01*
X7365357Y-10059357D01*
X7379643Y-10030786D01*
X7393928Y-10016500D01*
X7422500Y-10002214D01*
X7479643Y-10002214D01*
X7508214Y-10016500D01*
X7522500Y-10030786D01*
X7536786Y-10059357D01*
X7536786Y-10073643D01*
X7522500Y-10102214D01*
X7508214Y-10116500D01*
X7479643Y-10130786D01*
X7422500Y-10130786D01*
X7393928Y-10145072D01*
X7379643Y-10159357D01*
X7365357Y-10187929D01*
X7365357Y-10245072D01*
X7379643Y-10273643D01*
X7393928Y-10287929D01*
X7422500Y-10302214D01*
X7479643Y-10302214D01*
X7508214Y-10287929D01*
X7522500Y-10273643D01*
X7536786Y-10245072D01*
X7536786Y-10187929D01*
X7522500Y-10159357D01*
X7508214Y-10145072D01*
X7479643Y-10130786D01*
X7636786Y-10002214D02*
X7836786Y-10002214D01*
X7708214Y-10302214D01*
X7936786Y-10002214D02*
X7936786Y-10059357D01*
X8051071Y-10002214D02*
X8051071Y-10059357D01*
X8493928Y-10416500D02*
X8479643Y-10402214D01*
X8451071Y-10359357D01*
X8436786Y-10330786D01*
X8422500Y-10287929D01*
X8408214Y-10216500D01*
X8408214Y-10159357D01*
X8422500Y-10087929D01*
X8436786Y-10045072D01*
X8451071Y-10016500D01*
X8479643Y-9973643D01*
X8493928Y-9959357D01*
X8765357Y-10302214D02*
X8593928Y-10302214D01*
X8679643Y-10302214D02*
X8679643Y-10002214D01*
X8651071Y-10045072D01*
X8622500Y-10073643D01*
X8593928Y-10087929D01*
X9122500Y-10302214D02*
X9122500Y-10002214D01*
X9251071Y-10302214D02*
X9251071Y-10145072D01*
X9236786Y-10116500D01*
X9208214Y-10102214D01*
X9165357Y-10102214D01*
X9136786Y-10116500D01*
X9122500Y-10130786D01*
X9436786Y-10302214D02*
X9408214Y-10287929D01*
X9393928Y-10273643D01*
X9379643Y-10245072D01*
X9379643Y-10159357D01*
X9393928Y-10130786D01*
X9408214Y-10116500D01*
X9436786Y-10102214D01*
X9479643Y-10102214D01*
X9508214Y-10116500D01*
X9522500Y-10130786D01*
X9536786Y-10159357D01*
X9536786Y-10245072D01*
X9522500Y-10273643D01*
X9508214Y-10287929D01*
X9479643Y-10302214D01*
X9436786Y-10302214D01*
X9708214Y-10302214D02*
X9679643Y-10287929D01*
X9665357Y-10259357D01*
X9665357Y-10002214D01*
X9936786Y-10287929D02*
X9908214Y-10302214D01*
X9851071Y-10302214D01*
X9822500Y-10287929D01*
X9808214Y-10259357D01*
X9808214Y-10145072D01*
X9822500Y-10116500D01*
X9851071Y-10102214D01*
X9908214Y-10102214D01*
X9936786Y-10116500D01*
X9951071Y-10145072D01*
X9951071Y-10173643D01*
X9808214Y-10202214D01*
X10051071Y-10416500D02*
X10065357Y-10402214D01*
X10093928Y-10359357D01*
X10108214Y-10330786D01*
X10122500Y-10287929D01*
X10136786Y-10216500D01*
X10136786Y-10159357D01*
X10122500Y-10087929D01*
X10108214Y-10045072D01*
X10093928Y-10016500D01*
X10065357Y-9973643D01*
X10051071Y-9959357D01*
X3742500Y-10530000D02*
X3807500Y-10595000D01*
X3807500Y-10530000D02*
X3742500Y-10595000D01*
X3807500Y-10562500D02*
G75*
G03X3807500Y-10562500I-32500J0D01*
G01*
X4151071Y-10398214D02*
X4179643Y-10398214D01*
X4208214Y-10412500D01*
X4222500Y-10426786D01*
X4236786Y-10455357D01*
X4251071Y-10512500D01*
X4251071Y-10583929D01*
X4236786Y-10641072D01*
X4222500Y-10669643D01*
X4208214Y-10683929D01*
X4179643Y-10698214D01*
X4151071Y-10698214D01*
X4122500Y-10683929D01*
X4108214Y-10669643D01*
X4093928Y-10641072D01*
X4079643Y-10583929D01*
X4079643Y-10512500D01*
X4093928Y-10455357D01*
X4108214Y-10426786D01*
X4122500Y-10412500D01*
X4151071Y-10398214D01*
X4379643Y-10669643D02*
X4393928Y-10683929D01*
X4379643Y-10698214D01*
X4365357Y-10683929D01*
X4379643Y-10669643D01*
X4379643Y-10698214D01*
X4651071Y-10398214D02*
X4593928Y-10398214D01*
X4565357Y-10412500D01*
X4551071Y-10426786D01*
X4522500Y-10469643D01*
X4508214Y-10526786D01*
X4508214Y-10641072D01*
X4522500Y-10669643D01*
X4536786Y-10683929D01*
X4565357Y-10698214D01*
X4622500Y-10698214D01*
X4651071Y-10683929D01*
X4665357Y-10669643D01*
X4679643Y-10641072D01*
X4679643Y-10569643D01*
X4665357Y-10541072D01*
X4651071Y-10526786D01*
X4622500Y-10512500D01*
X4565357Y-10512500D01*
X4536786Y-10526786D01*
X4522500Y-10541072D01*
X4508214Y-10569643D01*
X4951071Y-10398214D02*
X4808214Y-10398214D01*
X4793928Y-10541072D01*
X4808214Y-10526786D01*
X4836786Y-10512500D01*
X4908214Y-10512500D01*
X4936786Y-10526786D01*
X4951071Y-10541072D01*
X4965357Y-10569643D01*
X4965357Y-10641072D01*
X4951071Y-10669643D01*
X4936786Y-10683929D01*
X4908214Y-10698214D01*
X4836786Y-10698214D01*
X4808214Y-10683929D01*
X4793928Y-10669643D01*
X5093928Y-10698214D02*
X5093928Y-10498214D01*
X5093928Y-10526786D02*
X5108214Y-10512500D01*
X5136786Y-10498214D01*
X5179643Y-10498214D01*
X5208214Y-10512500D01*
X5222500Y-10541072D01*
X5222500Y-10698214D01*
X5222500Y-10541072D02*
X5236786Y-10512500D01*
X5265357Y-10498214D01*
X5308214Y-10498214D01*
X5336786Y-10512500D01*
X5351071Y-10541072D01*
X5351071Y-10698214D01*
X5493928Y-10698214D02*
X5493928Y-10498214D01*
X5493928Y-10526786D02*
X5508214Y-10512500D01*
X5536786Y-10498214D01*
X5579643Y-10498214D01*
X5608214Y-10512500D01*
X5622500Y-10541072D01*
X5622500Y-10698214D01*
X5622500Y-10541072D02*
X5636786Y-10512500D01*
X5665357Y-10498214D01*
X5708214Y-10498214D01*
X5736786Y-10512500D01*
X5751071Y-10541072D01*
X5751071Y-10698214D01*
X6336786Y-10383929D02*
X6079643Y-10769643D01*
X6722500Y-10398214D02*
X6751071Y-10398214D01*
X6779643Y-10412500D01*
X6793928Y-10426786D01*
X6808214Y-10455357D01*
X6822500Y-10512500D01*
X6822500Y-10583929D01*
X6808214Y-10641072D01*
X6793928Y-10669643D01*
X6779643Y-10683929D01*
X6751071Y-10698214D01*
X6722500Y-10698214D01*
X6693928Y-10683929D01*
X6679643Y-10669643D01*
X6665357Y-10641072D01*
X6651071Y-10583929D01*
X6651071Y-10512500D01*
X6665357Y-10455357D01*
X6679643Y-10426786D01*
X6693928Y-10412500D01*
X6722500Y-10398214D01*
X6951071Y-10669643D02*
X6965357Y-10683929D01*
X6951071Y-10698214D01*
X6936786Y-10683929D01*
X6951071Y-10669643D01*
X6951071Y-10698214D01*
X7151071Y-10398214D02*
X7179643Y-10398214D01*
X7208214Y-10412500D01*
X7222500Y-10426786D01*
X7236786Y-10455357D01*
X7251071Y-10512500D01*
X7251071Y-10583929D01*
X7236786Y-10641072D01*
X7222500Y-10669643D01*
X7208214Y-10683929D01*
X7179643Y-10698214D01*
X7151071Y-10698214D01*
X7122500Y-10683929D01*
X7108214Y-10669643D01*
X7093928Y-10641072D01*
X7079643Y-10583929D01*
X7079643Y-10512500D01*
X7093928Y-10455357D01*
X7108214Y-10426786D01*
X7122500Y-10412500D01*
X7151071Y-10398214D01*
X7365357Y-10426786D02*
X7379643Y-10412500D01*
X7408214Y-10398214D01*
X7479643Y-10398214D01*
X7508214Y-10412500D01*
X7522500Y-10426786D01*
X7536786Y-10455357D01*
X7536786Y-10483929D01*
X7522500Y-10526786D01*
X7351071Y-10698214D01*
X7536786Y-10698214D01*
X7793928Y-10398214D02*
X7736786Y-10398214D01*
X7708214Y-10412500D01*
X7693928Y-10426786D01*
X7665357Y-10469643D01*
X7651071Y-10526786D01*
X7651071Y-10641072D01*
X7665357Y-10669643D01*
X7679643Y-10683929D01*
X7708214Y-10698214D01*
X7765357Y-10698214D01*
X7793928Y-10683929D01*
X7808214Y-10669643D01*
X7822500Y-10641072D01*
X7822500Y-10569643D01*
X7808214Y-10541072D01*
X7793928Y-10526786D01*
X7765357Y-10512500D01*
X7708214Y-10512500D01*
X7679643Y-10526786D01*
X7665357Y-10541072D01*
X7651071Y-10569643D01*
X7936786Y-10398214D02*
X7936786Y-10455357D01*
X8051071Y-10398214D02*
X8051071Y-10455357D01*
X8493928Y-10812500D02*
X8479643Y-10798214D01*
X8451071Y-10755357D01*
X8436786Y-10726786D01*
X8422500Y-10683929D01*
X8408214Y-10612500D01*
X8408214Y-10555357D01*
X8422500Y-10483929D01*
X8436786Y-10441072D01*
X8451071Y-10412500D01*
X8479643Y-10369643D01*
X8493928Y-10355357D01*
X8593928Y-10426786D02*
X8608214Y-10412500D01*
X8636786Y-10398214D01*
X8708214Y-10398214D01*
X8736786Y-10412500D01*
X8751071Y-10426786D01*
X8765357Y-10455357D01*
X8765357Y-10483929D01*
X8751071Y-10526786D01*
X8579643Y-10698214D01*
X8765357Y-10698214D01*
X9122500Y-10698214D02*
X9122500Y-10398214D01*
X9251071Y-10698214D02*
X9251071Y-10541072D01*
X9236786Y-10512500D01*
X9208214Y-10498214D01*
X9165357Y-10498214D01*
X9136786Y-10512500D01*
X9122500Y-10526786D01*
X9436786Y-10698214D02*
X9408214Y-10683929D01*
X9393928Y-10669643D01*
X9379643Y-10641072D01*
X9379643Y-10555357D01*
X9393928Y-10526786D01*
X9408214Y-10512500D01*
X9436786Y-10498214D01*
X9479643Y-10498214D01*
X9508214Y-10512500D01*
X9522500Y-10526786D01*
X9536786Y-10555357D01*
X9536786Y-10641072D01*
X9522500Y-10669643D01*
X9508214Y-10683929D01*
X9479643Y-10698214D01*
X9436786Y-10698214D01*
X9708214Y-10698214D02*
X9679643Y-10683929D01*
X9665357Y-10655357D01*
X9665357Y-10398214D01*
X9936786Y-10683929D02*
X9908214Y-10698214D01*
X9851071Y-10698214D01*
X9822500Y-10683929D01*
X9808214Y-10655357D01*
X9808214Y-10541072D01*
X9822500Y-10512500D01*
X9851071Y-10498214D01*
X9908214Y-10498214D01*
X9936786Y-10512500D01*
X9951071Y-10541072D01*
X9951071Y-10569643D01*
X9808214Y-10598214D01*
X10065357Y-10683929D02*
X10093928Y-10698214D01*
X10151071Y-10698214D01*
X10179643Y-10683929D01*
X10193928Y-10655357D01*
X10193928Y-10641072D01*
X10179643Y-10612500D01*
X10151071Y-10598214D01*
X10108214Y-10598214D01*
X10079643Y-10583929D01*
X10065357Y-10555357D01*
X10065357Y-10541072D01*
X10079643Y-10512500D01*
X10108214Y-10498214D01*
X10151071Y-10498214D01*
X10179643Y-10512500D01*
X10293928Y-10812500D02*
X10308214Y-10798214D01*
X10336786Y-10755357D01*
X10351071Y-10726786D01*
X10365357Y-10683929D01*
X10379643Y-10612500D01*
X10379643Y-10555357D01*
X10365357Y-10483929D01*
X10351071Y-10441072D01*
X10336786Y-10412500D01*
X10308214Y-10369643D01*
X10293928Y-10355357D01*
X10836786Y-10812500D02*
X10822500Y-10798214D01*
X10793928Y-10755357D01*
X10779643Y-10726786D01*
X10765357Y-10683929D01*
X10751071Y-10612500D01*
X10751071Y-10555357D01*
X10765357Y-10483929D01*
X10779643Y-10441072D01*
X10793928Y-10412500D01*
X10822500Y-10369643D01*
X10836786Y-10355357D01*
X10951071Y-10498214D02*
X10951071Y-10698214D01*
X10951071Y-10526786D02*
X10965357Y-10512500D01*
X10993928Y-10498214D01*
X11036786Y-10498214D01*
X11065357Y-10512500D01*
X11079643Y-10541072D01*
X11079643Y-10698214D01*
X11265357Y-10698214D02*
X11236786Y-10683929D01*
X11222500Y-10669643D01*
X11208214Y-10641072D01*
X11208214Y-10555357D01*
X11222500Y-10526786D01*
X11236786Y-10512500D01*
X11265357Y-10498214D01*
X11308214Y-10498214D01*
X11336786Y-10512500D01*
X11351071Y-10526786D01*
X11365357Y-10555357D01*
X11365357Y-10641072D01*
X11351071Y-10669643D01*
X11336786Y-10683929D01*
X11308214Y-10698214D01*
X11265357Y-10698214D01*
X11451071Y-10498214D02*
X11565357Y-10498214D01*
X11493928Y-10398214D02*
X11493928Y-10655357D01*
X11508214Y-10683929D01*
X11536786Y-10698214D01*
X11565357Y-10698214D01*
X11893928Y-10498214D02*
X11893928Y-10798214D01*
X11893928Y-10512500D02*
X11922500Y-10498214D01*
X11979643Y-10498214D01*
X12008214Y-10512500D01*
X12022500Y-10526786D01*
X12036786Y-10555357D01*
X12036786Y-10641072D01*
X12022500Y-10669643D01*
X12008214Y-10683929D01*
X11979643Y-10698214D01*
X11922500Y-10698214D01*
X11893928Y-10683929D01*
X12208214Y-10698214D02*
X12179643Y-10683929D01*
X12165357Y-10655357D01*
X12165357Y-10398214D01*
X12451071Y-10698214D02*
X12451071Y-10541072D01*
X12436786Y-10512500D01*
X12408214Y-10498214D01*
X12351071Y-10498214D01*
X12322500Y-10512500D01*
X12451071Y-10683929D02*
X12422500Y-10698214D01*
X12351071Y-10698214D01*
X12322500Y-10683929D01*
X12308214Y-10655357D01*
X12308214Y-10626786D01*
X12322500Y-10598214D01*
X12351071Y-10583929D01*
X12422500Y-10583929D01*
X12451071Y-10569643D01*
X12551071Y-10498214D02*
X12665357Y-10498214D01*
X12593928Y-10398214D02*
X12593928Y-10655357D01*
X12608214Y-10683929D01*
X12636786Y-10698214D01*
X12665357Y-10698214D01*
X12879643Y-10683929D02*
X12851071Y-10698214D01*
X12793928Y-10698214D01*
X12765357Y-10683929D01*
X12751071Y-10655357D01*
X12751071Y-10541072D01*
X12765357Y-10512500D01*
X12793928Y-10498214D01*
X12851071Y-10498214D01*
X12879643Y-10512500D01*
X12893928Y-10541072D01*
X12893928Y-10569643D01*
X12751071Y-10598214D01*
X13151071Y-10698214D02*
X13151071Y-10398214D01*
X13151071Y-10683929D02*
X13122500Y-10698214D01*
X13065357Y-10698214D01*
X13036786Y-10683929D01*
X13022500Y-10669643D01*
X13008214Y-10641072D01*
X13008214Y-10555357D01*
X13022500Y-10526786D01*
X13036786Y-10512500D01*
X13065357Y-10498214D01*
X13122500Y-10498214D01*
X13151071Y-10512500D01*
X13265357Y-10812500D02*
X13279643Y-10798214D01*
X13308214Y-10755357D01*
X13322500Y-10726786D01*
X13336786Y-10683929D01*
X13351071Y-10612500D01*
X13351071Y-10555357D01*
X13336786Y-10483929D01*
X13322500Y-10441072D01*
X13308214Y-10412500D01*
X13279643Y-10369643D01*
X13265357Y-10355357D01*
X3717500Y-10913500D02*
X3807500Y-11003500D01*
X3807500Y-10913500D02*
X3717500Y-11003500D01*
X3762500Y-10913500D02*
X3762500Y-11003500D01*
X3717500Y-10958500D02*
X3807500Y-10958500D01*
X4151071Y-10794214D02*
X4179643Y-10794214D01*
X4208214Y-10808500D01*
X4222500Y-10822786D01*
X4236786Y-10851357D01*
X4251071Y-10908500D01*
X4251071Y-10979929D01*
X4236786Y-11037072D01*
X4222500Y-11065643D01*
X4208214Y-11079929D01*
X4179643Y-11094214D01*
X4151071Y-11094214D01*
X4122500Y-11079929D01*
X4108214Y-11065643D01*
X4093928Y-11037072D01*
X4079643Y-10979929D01*
X4079643Y-10908500D01*
X4093928Y-10851357D01*
X4108214Y-10822786D01*
X4122500Y-10808500D01*
X4151071Y-10794214D01*
X4379643Y-11065643D02*
X4393928Y-11079929D01*
X4379643Y-11094214D01*
X4365357Y-11079929D01*
X4379643Y-11065643D01*
X4379643Y-11094214D01*
X4536786Y-11094214D02*
X4593928Y-11094214D01*
X4622500Y-11079929D01*
X4636786Y-11065643D01*
X4665357Y-11022786D01*
X4679643Y-10965643D01*
X4679643Y-10851357D01*
X4665357Y-10822786D01*
X4651071Y-10808500D01*
X4622500Y-10794214D01*
X4565357Y-10794214D01*
X4536786Y-10808500D01*
X4522500Y-10822786D01*
X4508214Y-10851357D01*
X4508214Y-10922786D01*
X4522500Y-10951357D01*
X4536786Y-10965643D01*
X4565357Y-10979929D01*
X4622500Y-10979929D01*
X4651071Y-10965643D01*
X4665357Y-10951357D01*
X4679643Y-10922786D01*
X4865357Y-10794214D02*
X4893928Y-10794214D01*
X4922500Y-10808500D01*
X4936786Y-10822786D01*
X4951071Y-10851357D01*
X4965357Y-10908500D01*
X4965357Y-10979929D01*
X4951071Y-11037072D01*
X4936786Y-11065643D01*
X4922500Y-11079929D01*
X4893928Y-11094214D01*
X4865357Y-11094214D01*
X4836786Y-11079929D01*
X4822500Y-11065643D01*
X4808214Y-11037072D01*
X4793928Y-10979929D01*
X4793928Y-10908500D01*
X4808214Y-10851357D01*
X4822500Y-10822786D01*
X4836786Y-10808500D01*
X4865357Y-10794214D01*
X5093928Y-11094214D02*
X5093928Y-10894214D01*
X5093928Y-10922786D02*
X5108214Y-10908500D01*
X5136786Y-10894214D01*
X5179643Y-10894214D01*
X5208214Y-10908500D01*
X5222500Y-10937072D01*
X5222500Y-11094214D01*
X5222500Y-10937072D02*
X5236786Y-10908500D01*
X5265357Y-10894214D01*
X5308214Y-10894214D01*
X5336786Y-10908500D01*
X5351071Y-10937072D01*
X5351071Y-11094214D01*
X5493928Y-11094214D02*
X5493928Y-10894214D01*
X5493928Y-10922786D02*
X5508214Y-10908500D01*
X5536786Y-10894214D01*
X5579643Y-10894214D01*
X5608214Y-10908500D01*
X5622500Y-10937072D01*
X5622500Y-11094214D01*
X5622500Y-10937072D02*
X5636786Y-10908500D01*
X5665357Y-10894214D01*
X5708214Y-10894214D01*
X5736786Y-10908500D01*
X5751071Y-10937072D01*
X5751071Y-11094214D01*
X6336786Y-10779929D02*
X6079643Y-11165643D01*
X6722500Y-10794214D02*
X6751071Y-10794214D01*
X6779643Y-10808500D01*
X6793928Y-10822786D01*
X6808214Y-10851357D01*
X6822500Y-10908500D01*
X6822500Y-10979929D01*
X6808214Y-11037072D01*
X6793928Y-11065643D01*
X6779643Y-11079929D01*
X6751071Y-11094214D01*
X6722500Y-11094214D01*
X6693928Y-11079929D01*
X6679643Y-11065643D01*
X6665357Y-11037072D01*
X6651071Y-10979929D01*
X6651071Y-10908500D01*
X6665357Y-10851357D01*
X6679643Y-10822786D01*
X6693928Y-10808500D01*
X6722500Y-10794214D01*
X6951071Y-11065643D02*
X6965357Y-11079929D01*
X6951071Y-11094214D01*
X6936786Y-11079929D01*
X6951071Y-11065643D01*
X6951071Y-11094214D01*
X7151071Y-10794214D02*
X7179643Y-10794214D01*
X7208214Y-10808500D01*
X7222500Y-10822786D01*
X7236786Y-10851357D01*
X7251071Y-10908500D01*
X7251071Y-10979929D01*
X7236786Y-11037072D01*
X7222500Y-11065643D01*
X7208214Y-11079929D01*
X7179643Y-11094214D01*
X7151071Y-11094214D01*
X7122500Y-11079929D01*
X7108214Y-11065643D01*
X7093928Y-11037072D01*
X7079643Y-10979929D01*
X7079643Y-10908500D01*
X7093928Y-10851357D01*
X7108214Y-10822786D01*
X7122500Y-10808500D01*
X7151071Y-10794214D01*
X7351071Y-10794214D02*
X7536786Y-10794214D01*
X7436786Y-10908500D01*
X7479643Y-10908500D01*
X7508214Y-10922786D01*
X7522500Y-10937072D01*
X7536786Y-10965643D01*
X7536786Y-11037072D01*
X7522500Y-11065643D01*
X7508214Y-11079929D01*
X7479643Y-11094214D01*
X7393928Y-11094214D01*
X7365357Y-11079929D01*
X7351071Y-11065643D01*
X7808214Y-10794214D02*
X7665357Y-10794214D01*
X7651071Y-10937072D01*
X7665357Y-10922786D01*
X7693928Y-10908500D01*
X7765357Y-10908500D01*
X7793928Y-10922786D01*
X7808214Y-10937072D01*
X7822500Y-10965643D01*
X7822500Y-11037072D01*
X7808214Y-11065643D01*
X7793928Y-11079929D01*
X7765357Y-11094214D01*
X7693928Y-11094214D01*
X7665357Y-11079929D01*
X7651071Y-11065643D01*
X7936786Y-10794214D02*
X7936786Y-10851357D01*
X8051071Y-10794214D02*
X8051071Y-10851357D01*
X8493928Y-11208500D02*
X8479643Y-11194214D01*
X8451071Y-11151357D01*
X8436786Y-11122786D01*
X8422500Y-11079929D01*
X8408214Y-11008500D01*
X8408214Y-10951357D01*
X8422500Y-10879929D01*
X8436786Y-10837072D01*
X8451071Y-10808500D01*
X8479643Y-10765643D01*
X8493928Y-10751357D01*
X8593928Y-10822786D02*
X8608214Y-10808500D01*
X8636786Y-10794214D01*
X8708214Y-10794214D01*
X8736786Y-10808500D01*
X8751071Y-10822786D01*
X8765357Y-10851357D01*
X8765357Y-10879929D01*
X8751071Y-10922786D01*
X8579643Y-11094214D01*
X8765357Y-11094214D01*
X9122500Y-11094214D02*
X9122500Y-10794214D01*
X9251071Y-11094214D02*
X9251071Y-10937072D01*
X9236786Y-10908500D01*
X9208214Y-10894214D01*
X9165357Y-10894214D01*
X9136786Y-10908500D01*
X9122500Y-10922786D01*
X9436786Y-11094214D02*
X9408214Y-11079929D01*
X9393928Y-11065643D01*
X9379643Y-11037072D01*
X9379643Y-10951357D01*
X9393928Y-10922786D01*
X9408214Y-10908500D01*
X9436786Y-10894214D01*
X9479643Y-10894214D01*
X9508214Y-10908500D01*
X9522500Y-10922786D01*
X9536786Y-10951357D01*
X9536786Y-11037072D01*
X9522500Y-11065643D01*
X9508214Y-11079929D01*
X9479643Y-11094214D01*
X9436786Y-11094214D01*
X9708214Y-11094214D02*
X9679643Y-11079929D01*
X9665357Y-11051357D01*
X9665357Y-10794214D01*
X9936786Y-11079929D02*
X9908214Y-11094214D01*
X9851071Y-11094214D01*
X9822500Y-11079929D01*
X9808214Y-11051357D01*
X9808214Y-10937072D01*
X9822500Y-10908500D01*
X9851071Y-10894214D01*
X9908214Y-10894214D01*
X9936786Y-10908500D01*
X9951071Y-10937072D01*
X9951071Y-10965643D01*
X9808214Y-10994214D01*
X10065357Y-11079929D02*
X10093928Y-11094214D01*
X10151071Y-11094214D01*
X10179643Y-11079929D01*
X10193928Y-11051357D01*
X10193928Y-11037072D01*
X10179643Y-11008500D01*
X10151071Y-10994214D01*
X10108214Y-10994214D01*
X10079643Y-10979929D01*
X10065357Y-10951357D01*
X10065357Y-10937072D01*
X10079643Y-10908500D01*
X10108214Y-10894214D01*
X10151071Y-10894214D01*
X10179643Y-10908500D01*
X10293928Y-11208500D02*
X10308214Y-11194214D01*
X10336786Y-11151357D01*
X10351071Y-11122786D01*
X10365357Y-11079929D01*
X10379643Y-11008500D01*
X10379643Y-10951357D01*
X10365357Y-10879929D01*
X10351071Y-10837072D01*
X10336786Y-10808500D01*
X10308214Y-10765643D01*
X10293928Y-10751357D01*
X10836786Y-11208500D02*
X10822500Y-11194214D01*
X10793928Y-11151357D01*
X10779643Y-11122786D01*
X10765357Y-11079929D01*
X10751071Y-11008500D01*
X10751071Y-10951357D01*
X10765357Y-10879929D01*
X10779643Y-10837072D01*
X10793928Y-10808500D01*
X10822500Y-10765643D01*
X10836786Y-10751357D01*
X10951071Y-10894214D02*
X10951071Y-11094214D01*
X10951071Y-10922786D02*
X10965357Y-10908500D01*
X10993928Y-10894214D01*
X11036786Y-10894214D01*
X11065357Y-10908500D01*
X11079643Y-10937072D01*
X11079643Y-11094214D01*
X11265357Y-11094214D02*
X11236786Y-11079929D01*
X11222500Y-11065643D01*
X11208214Y-11037072D01*
X11208214Y-10951357D01*
X11222500Y-10922786D01*
X11236786Y-10908500D01*
X11265357Y-10894214D01*
X11308214Y-10894214D01*
X11336786Y-10908500D01*
X11351071Y-10922786D01*
X11365357Y-10951357D01*
X11365357Y-11037072D01*
X11351071Y-11065643D01*
X11336786Y-11079929D01*
X11308214Y-11094214D01*
X11265357Y-11094214D01*
X11451071Y-10894214D02*
X11565357Y-10894214D01*
X11493928Y-10794214D02*
X11493928Y-11051357D01*
X11508214Y-11079929D01*
X11536786Y-11094214D01*
X11565357Y-11094214D01*
X11893928Y-10894214D02*
X11893928Y-11194214D01*
X11893928Y-10908500D02*
X11922500Y-10894214D01*
X11979643Y-10894214D01*
X12008214Y-10908500D01*
X12022500Y-10922786D01*
X12036786Y-10951357D01*
X12036786Y-11037072D01*
X12022500Y-11065643D01*
X12008214Y-11079929D01*
X11979643Y-11094214D01*
X11922500Y-11094214D01*
X11893928Y-11079929D01*
X12208214Y-11094214D02*
X12179643Y-11079929D01*
X12165357Y-11051357D01*
X12165357Y-10794214D01*
X12451071Y-11094214D02*
X12451071Y-10937072D01*
X12436786Y-10908500D01*
X12408214Y-10894214D01*
X12351071Y-10894214D01*
X12322500Y-10908500D01*
X12451071Y-11079929D02*
X12422500Y-11094214D01*
X12351071Y-11094214D01*
X12322500Y-11079929D01*
X12308214Y-11051357D01*
X12308214Y-11022786D01*
X12322500Y-10994214D01*
X12351071Y-10979929D01*
X12422500Y-10979929D01*
X12451071Y-10965643D01*
X12551071Y-10894214D02*
X12665357Y-10894214D01*
X12593928Y-10794214D02*
X12593928Y-11051357D01*
X12608214Y-11079929D01*
X12636786Y-11094214D01*
X12665357Y-11094214D01*
X12879643Y-11079929D02*
X12851071Y-11094214D01*
X12793928Y-11094214D01*
X12765357Y-11079929D01*
X12751071Y-11051357D01*
X12751071Y-10937072D01*
X12765357Y-10908500D01*
X12793928Y-10894214D01*
X12851071Y-10894214D01*
X12879643Y-10908500D01*
X12893928Y-10937072D01*
X12893928Y-10965643D01*
X12751071Y-10994214D01*
X13151071Y-11094214D02*
X13151071Y-10794214D01*
X13151071Y-11079929D02*
X13122500Y-11094214D01*
X13065357Y-11094214D01*
X13036786Y-11079929D01*
X13022500Y-11065643D01*
X13008214Y-11037072D01*
X13008214Y-10951357D01*
X13022500Y-10922786D01*
X13036786Y-10908500D01*
X13065357Y-10894214D01*
X13122500Y-10894214D01*
X13151071Y-10908500D01*
X13265357Y-11208500D02*
X13279643Y-11194214D01*
X13308214Y-11151357D01*
X13322500Y-11122786D01*
X13336786Y-11079929D01*
X13351071Y-11008500D01*
X13351071Y-10951357D01*
X13336786Y-10879929D01*
X13322500Y-10837072D01*
X13308214Y-10808500D01*
X13279643Y-10765643D01*
X13265357Y-10751357D01*
X3632500Y-11267000D02*
X3807500Y-11442000D01*
X3807500Y-11267000D02*
X3632500Y-11442000D01*
X3781872Y-11416372D02*
X3781872Y-11292628D01*
X3658127Y-11292628D01*
X3658127Y-11416372D01*
X3781872Y-11416372D01*
X4251071Y-11490214D02*
X4079643Y-11490214D01*
X4165357Y-11490214D02*
X4165357Y-11190214D01*
X4136786Y-11233071D01*
X4108214Y-11261643D01*
X4079643Y-11275929D01*
X4379643Y-11461643D02*
X4393928Y-11475929D01*
X4379643Y-11490214D01*
X4365357Y-11475929D01*
X4379643Y-11461643D01*
X4379643Y-11490214D01*
X4493928Y-11190214D02*
X4693928Y-11190214D01*
X4565357Y-11490214D01*
X4951071Y-11190214D02*
X4808214Y-11190214D01*
X4793928Y-11333071D01*
X4808214Y-11318786D01*
X4836786Y-11304500D01*
X4908214Y-11304500D01*
X4936786Y-11318786D01*
X4951071Y-11333071D01*
X4965357Y-11361643D01*
X4965357Y-11433071D01*
X4951071Y-11461643D01*
X4936786Y-11475929D01*
X4908214Y-11490214D01*
X4836786Y-11490214D01*
X4808214Y-11475929D01*
X4793928Y-11461643D01*
X5093928Y-11490214D02*
X5093928Y-11290214D01*
X5093928Y-11318786D02*
X5108214Y-11304500D01*
X5136786Y-11290214D01*
X5179643Y-11290214D01*
X5208214Y-11304500D01*
X5222500Y-11333071D01*
X5222500Y-11490214D01*
X5222500Y-11333071D02*
X5236786Y-11304500D01*
X5265357Y-11290214D01*
X5308214Y-11290214D01*
X5336786Y-11304500D01*
X5351071Y-11333071D01*
X5351071Y-11490214D01*
X5493928Y-11490214D02*
X5493928Y-11290214D01*
X5493928Y-11318786D02*
X5508214Y-11304500D01*
X5536786Y-11290214D01*
X5579643Y-11290214D01*
X5608214Y-11304500D01*
X5622500Y-11333071D01*
X5622500Y-11490214D01*
X5622500Y-11333071D02*
X5636786Y-11304500D01*
X5665357Y-11290214D01*
X5708214Y-11290214D01*
X5736786Y-11304500D01*
X5751071Y-11333071D01*
X5751071Y-11490214D01*
X6336786Y-11175929D02*
X6079643Y-11561643D01*
X6722500Y-11190214D02*
X6751071Y-11190214D01*
X6779643Y-11204500D01*
X6793928Y-11218786D01*
X6808214Y-11247357D01*
X6822500Y-11304500D01*
X6822500Y-11375929D01*
X6808214Y-11433071D01*
X6793928Y-11461643D01*
X6779643Y-11475929D01*
X6751071Y-11490214D01*
X6722500Y-11490214D01*
X6693928Y-11475929D01*
X6679643Y-11461643D01*
X6665357Y-11433071D01*
X6651071Y-11375929D01*
X6651071Y-11304500D01*
X6665357Y-11247357D01*
X6679643Y-11218786D01*
X6693928Y-11204500D01*
X6722500Y-11190214D01*
X6951071Y-11461643D02*
X6965357Y-11475929D01*
X6951071Y-11490214D01*
X6936786Y-11475929D01*
X6951071Y-11461643D01*
X6951071Y-11490214D01*
X7151071Y-11190214D02*
X7179643Y-11190214D01*
X7208214Y-11204500D01*
X7222500Y-11218786D01*
X7236786Y-11247357D01*
X7251071Y-11304500D01*
X7251071Y-11375929D01*
X7236786Y-11433071D01*
X7222500Y-11461643D01*
X7208214Y-11475929D01*
X7179643Y-11490214D01*
X7151071Y-11490214D01*
X7122500Y-11475929D01*
X7108214Y-11461643D01*
X7093928Y-11433071D01*
X7079643Y-11375929D01*
X7079643Y-11304500D01*
X7093928Y-11247357D01*
X7108214Y-11218786D01*
X7122500Y-11204500D01*
X7151071Y-11190214D01*
X7508214Y-11190214D02*
X7451071Y-11190214D01*
X7422500Y-11204500D01*
X7408214Y-11218786D01*
X7379643Y-11261643D01*
X7365357Y-11318786D01*
X7365357Y-11433071D01*
X7379643Y-11461643D01*
X7393928Y-11475929D01*
X7422500Y-11490214D01*
X7479643Y-11490214D01*
X7508214Y-11475929D01*
X7522500Y-11461643D01*
X7536786Y-11433071D01*
X7536786Y-11361643D01*
X7522500Y-11333071D01*
X7508214Y-11318786D01*
X7479643Y-11304500D01*
X7422500Y-11304500D01*
X7393928Y-11318786D01*
X7379643Y-11333071D01*
X7365357Y-11361643D01*
X7679643Y-11490214D02*
X7736786Y-11490214D01*
X7765357Y-11475929D01*
X7779643Y-11461643D01*
X7808214Y-11418786D01*
X7822500Y-11361643D01*
X7822500Y-11247357D01*
X7808214Y-11218786D01*
X7793928Y-11204500D01*
X7765357Y-11190214D01*
X7708214Y-11190214D01*
X7679643Y-11204500D01*
X7665357Y-11218786D01*
X7651071Y-11247357D01*
X7651071Y-11318786D01*
X7665357Y-11347357D01*
X7679643Y-11361643D01*
X7708214Y-11375929D01*
X7765357Y-11375929D01*
X7793928Y-11361643D01*
X7808214Y-11347357D01*
X7822500Y-11318786D01*
X7936786Y-11190214D02*
X7936786Y-11247357D01*
X8051071Y-11190214D02*
X8051071Y-11247357D01*
X8493928Y-11604500D02*
X8479643Y-11590214D01*
X8451071Y-11547357D01*
X8436786Y-11518786D01*
X8422500Y-11475929D01*
X8408214Y-11404500D01*
X8408214Y-11347357D01*
X8422500Y-11275929D01*
X8436786Y-11233071D01*
X8451071Y-11204500D01*
X8479643Y-11161643D01*
X8493928Y-11147357D01*
X8651071Y-11318786D02*
X8622500Y-11304500D01*
X8608214Y-11290214D01*
X8593928Y-11261643D01*
X8593928Y-11247357D01*
X8608214Y-11218786D01*
X8622500Y-11204500D01*
X8651071Y-11190214D01*
X8708214Y-11190214D01*
X8736786Y-11204500D01*
X8751071Y-11218786D01*
X8765357Y-11247357D01*
X8765357Y-11261643D01*
X8751071Y-11290214D01*
X8736786Y-11304500D01*
X8708214Y-11318786D01*
X8651071Y-11318786D01*
X8622500Y-11333071D01*
X8608214Y-11347357D01*
X8593928Y-11375929D01*
X8593928Y-11433071D01*
X8608214Y-11461643D01*
X8622500Y-11475929D01*
X8651071Y-11490214D01*
X8708214Y-11490214D01*
X8736786Y-11475929D01*
X8751071Y-11461643D01*
X8765357Y-11433071D01*
X8765357Y-11375929D01*
X8751071Y-11347357D01*
X8736786Y-11333071D01*
X8708214Y-11318786D01*
X9122500Y-11490214D02*
X9122500Y-11190214D01*
X9251071Y-11490214D02*
X9251071Y-11333071D01*
X9236786Y-11304500D01*
X9208214Y-11290214D01*
X9165357Y-11290214D01*
X9136786Y-11304500D01*
X9122500Y-11318786D01*
X9436786Y-11490214D02*
X9408214Y-11475929D01*
X9393928Y-11461643D01*
X9379643Y-11433071D01*
X9379643Y-11347357D01*
X9393928Y-11318786D01*
X9408214Y-11304500D01*
X9436786Y-11290214D01*
X9479643Y-11290214D01*
X9508214Y-11304500D01*
X9522500Y-11318786D01*
X9536786Y-11347357D01*
X9536786Y-11433071D01*
X9522500Y-11461643D01*
X9508214Y-11475929D01*
X9479643Y-11490214D01*
X9436786Y-11490214D01*
X9708214Y-11490214D02*
X9679643Y-11475929D01*
X9665357Y-11447357D01*
X9665357Y-11190214D01*
X9936786Y-11475929D02*
X9908214Y-11490214D01*
X9851071Y-11490214D01*
X9822500Y-11475929D01*
X9808214Y-11447357D01*
X9808214Y-11333071D01*
X9822500Y-11304500D01*
X9851071Y-11290214D01*
X9908214Y-11290214D01*
X9936786Y-11304500D01*
X9951071Y-11333071D01*
X9951071Y-11361643D01*
X9808214Y-11390214D01*
X10065357Y-11475929D02*
X10093928Y-11490214D01*
X10151071Y-11490214D01*
X10179643Y-11475929D01*
X10193928Y-11447357D01*
X10193928Y-11433071D01*
X10179643Y-11404500D01*
X10151071Y-11390214D01*
X10108214Y-11390214D01*
X10079643Y-11375929D01*
X10065357Y-11347357D01*
X10065357Y-11333071D01*
X10079643Y-11304500D01*
X10108214Y-11290214D01*
X10151071Y-11290214D01*
X10179643Y-11304500D01*
X10293928Y-11604500D02*
X10308214Y-11590214D01*
X10336786Y-11547357D01*
X10351071Y-11518786D01*
X10365357Y-11475929D01*
X10379643Y-11404500D01*
X10379643Y-11347357D01*
X10365357Y-11275929D01*
X10351071Y-11233071D01*
X10336786Y-11204500D01*
X10308214Y-11161643D01*
X10293928Y-11147357D01*
X10836786Y-11604500D02*
X10822500Y-11590214D01*
X10793928Y-11547357D01*
X10779643Y-11518786D01*
X10765357Y-11475929D01*
X10751071Y-11404500D01*
X10751071Y-11347357D01*
X10765357Y-11275929D01*
X10779643Y-11233071D01*
X10793928Y-11204500D01*
X10822500Y-11161643D01*
X10836786Y-11147357D01*
X10951071Y-11290214D02*
X10951071Y-11490214D01*
X10951071Y-11318786D02*
X10965357Y-11304500D01*
X10993928Y-11290214D01*
X11036786Y-11290214D01*
X11065357Y-11304500D01*
X11079643Y-11333071D01*
X11079643Y-11490214D01*
X11265357Y-11490214D02*
X11236786Y-11475929D01*
X11222500Y-11461643D01*
X11208214Y-11433071D01*
X11208214Y-11347357D01*
X11222500Y-11318786D01*
X11236786Y-11304500D01*
X11265357Y-11290214D01*
X11308214Y-11290214D01*
X11336786Y-11304500D01*
X11351071Y-11318786D01*
X11365357Y-11347357D01*
X11365357Y-11433071D01*
X11351071Y-11461643D01*
X11336786Y-11475929D01*
X11308214Y-11490214D01*
X11265357Y-11490214D01*
X11451071Y-11290214D02*
X11565357Y-11290214D01*
X11493928Y-11190214D02*
X11493928Y-11447357D01*
X11508214Y-11475929D01*
X11536786Y-11490214D01*
X11565357Y-11490214D01*
X11893928Y-11290214D02*
X11893928Y-11590214D01*
X11893928Y-11304500D02*
X11922500Y-11290214D01*
X11979643Y-11290214D01*
X12008214Y-11304500D01*
X12022500Y-11318786D01*
X12036786Y-11347357D01*
X12036786Y-11433071D01*
X12022500Y-11461643D01*
X12008214Y-11475929D01*
X11979643Y-11490214D01*
X11922500Y-11490214D01*
X11893928Y-11475929D01*
X12208214Y-11490214D02*
X12179643Y-11475929D01*
X12165357Y-11447357D01*
X12165357Y-11190214D01*
X12451071Y-11490214D02*
X12451071Y-11333071D01*
X12436786Y-11304500D01*
X12408214Y-11290214D01*
X12351071Y-11290214D01*
X12322500Y-11304500D01*
X12451071Y-11475929D02*
X12422500Y-11490214D01*
X12351071Y-11490214D01*
X12322500Y-11475929D01*
X12308214Y-11447357D01*
X12308214Y-11418786D01*
X12322500Y-11390214D01*
X12351071Y-11375929D01*
X12422500Y-11375929D01*
X12451071Y-11361643D01*
X12551071Y-11290214D02*
X12665357Y-11290214D01*
X12593928Y-11190214D02*
X12593928Y-11447357D01*
X12608214Y-11475929D01*
X12636786Y-11490214D01*
X12665357Y-11490214D01*
X12879643Y-11475929D02*
X12851071Y-11490214D01*
X12793928Y-11490214D01*
X12765357Y-11475929D01*
X12751071Y-11447357D01*
X12751071Y-11333071D01*
X12765357Y-11304500D01*
X12793928Y-11290214D01*
X12851071Y-11290214D01*
X12879643Y-11304500D01*
X12893928Y-11333071D01*
X12893928Y-11361643D01*
X12751071Y-11390214D01*
X13151071Y-11490214D02*
X13151071Y-11190214D01*
X13151071Y-11475929D02*
X13122500Y-11490214D01*
X13065357Y-11490214D01*
X13036786Y-11475929D01*
X13022500Y-11461643D01*
X13008214Y-11433071D01*
X13008214Y-11347357D01*
X13022500Y-11318786D01*
X13036786Y-11304500D01*
X13065357Y-11290214D01*
X13122500Y-11290214D01*
X13151071Y-11304500D01*
X13265357Y-11604500D02*
X13279643Y-11590214D01*
X13308214Y-11547357D01*
X13322500Y-11518786D01*
X13336786Y-11475929D01*
X13351071Y-11404500D01*
X13351071Y-11347357D01*
X13336786Y-11275929D01*
X13322500Y-11233071D01*
X13308214Y-11204500D01*
X13279643Y-11161643D01*
X13265357Y-11147357D01*
X3408720Y-11551110D02*
X3807500Y-11949890D01*
X3807500Y-11551110D02*
X3408720Y-11949890D01*
X3608110Y-11949890D02*
X3807500Y-11750500D01*
X3608110Y-11551110D01*
X3408720Y-11750500D01*
X3608110Y-11949890D01*
X4065357Y-11586214D02*
X4251071Y-11586214D01*
X4151071Y-11700500D01*
X4193928Y-11700500D01*
X4222500Y-11714786D01*
X4236786Y-11729071D01*
X4251071Y-11757643D01*
X4251071Y-11829071D01*
X4236786Y-11857643D01*
X4222500Y-11871929D01*
X4193928Y-11886214D01*
X4108214Y-11886214D01*
X4079643Y-11871929D01*
X4065357Y-11857643D01*
X4379643Y-11857643D02*
X4393928Y-11871929D01*
X4379643Y-11886214D01*
X4365357Y-11871929D01*
X4379643Y-11857643D01*
X4379643Y-11886214D01*
X4536786Y-11886214D02*
X4593928Y-11886214D01*
X4622500Y-11871929D01*
X4636786Y-11857643D01*
X4665357Y-11814786D01*
X4679643Y-11757643D01*
X4679643Y-11643357D01*
X4665357Y-11614786D01*
X4651071Y-11600500D01*
X4622500Y-11586214D01*
X4565357Y-11586214D01*
X4536786Y-11600500D01*
X4522500Y-11614786D01*
X4508214Y-11643357D01*
X4508214Y-11714786D01*
X4522500Y-11743357D01*
X4536786Y-11757643D01*
X4565357Y-11771929D01*
X4622500Y-11771929D01*
X4651071Y-11757643D01*
X4665357Y-11743357D01*
X4679643Y-11714786D01*
X4822500Y-11886214D02*
X4879643Y-11886214D01*
X4908214Y-11871929D01*
X4922500Y-11857643D01*
X4951071Y-11814786D01*
X4965357Y-11757643D01*
X4965357Y-11643357D01*
X4951071Y-11614786D01*
X4936786Y-11600500D01*
X4908214Y-11586214D01*
X4851071Y-11586214D01*
X4822500Y-11600500D01*
X4808214Y-11614786D01*
X4793928Y-11643357D01*
X4793928Y-11714786D01*
X4808214Y-11743357D01*
X4822500Y-11757643D01*
X4851071Y-11771929D01*
X4908214Y-11771929D01*
X4936786Y-11757643D01*
X4951071Y-11743357D01*
X4965357Y-11714786D01*
X5093928Y-11886214D02*
X5093928Y-11686214D01*
X5093928Y-11714786D02*
X5108214Y-11700500D01*
X5136786Y-11686214D01*
X5179643Y-11686214D01*
X5208214Y-11700500D01*
X5222500Y-11729071D01*
X5222500Y-11886214D01*
X5222500Y-11729071D02*
X5236786Y-11700500D01*
X5265357Y-11686214D01*
X5308214Y-11686214D01*
X5336786Y-11700500D01*
X5351071Y-11729071D01*
X5351071Y-11886214D01*
X5493928Y-11886214D02*
X5493928Y-11686214D01*
X5493928Y-11714786D02*
X5508214Y-11700500D01*
X5536786Y-11686214D01*
X5579643Y-11686214D01*
X5608214Y-11700500D01*
X5622500Y-11729071D01*
X5622500Y-11886214D01*
X5622500Y-11729071D02*
X5636786Y-11700500D01*
X5665357Y-11686214D01*
X5708214Y-11686214D01*
X5736786Y-11700500D01*
X5751071Y-11729071D01*
X5751071Y-11886214D01*
X6336786Y-11571929D02*
X6079643Y-11957643D01*
X6722500Y-11586214D02*
X6751071Y-11586214D01*
X6779643Y-11600500D01*
X6793928Y-11614786D01*
X6808214Y-11643357D01*
X6822500Y-11700500D01*
X6822500Y-11771929D01*
X6808214Y-11829071D01*
X6793928Y-11857643D01*
X6779643Y-11871929D01*
X6751071Y-11886214D01*
X6722500Y-11886214D01*
X6693928Y-11871929D01*
X6679643Y-11857643D01*
X6665357Y-11829071D01*
X6651071Y-11771929D01*
X6651071Y-11700500D01*
X6665357Y-11643357D01*
X6679643Y-11614786D01*
X6693928Y-11600500D01*
X6722500Y-11586214D01*
X6951071Y-11857643D02*
X6965357Y-11871929D01*
X6951071Y-11886214D01*
X6936786Y-11871929D01*
X6951071Y-11857643D01*
X6951071Y-11886214D01*
X7251071Y-11886214D02*
X7079643Y-11886214D01*
X7165357Y-11886214D02*
X7165357Y-11586214D01*
X7136786Y-11629071D01*
X7108214Y-11657643D01*
X7079643Y-11671929D01*
X7522500Y-11586214D02*
X7379643Y-11586214D01*
X7365357Y-11729071D01*
X7379643Y-11714786D01*
X7408214Y-11700500D01*
X7479643Y-11700500D01*
X7508214Y-11714786D01*
X7522500Y-11729071D01*
X7536786Y-11757643D01*
X7536786Y-11829071D01*
X7522500Y-11857643D01*
X7508214Y-11871929D01*
X7479643Y-11886214D01*
X7408214Y-11886214D01*
X7379643Y-11871929D01*
X7365357Y-11857643D01*
X7636786Y-11586214D02*
X7836786Y-11586214D01*
X7708214Y-11886214D01*
X7936786Y-11586214D02*
X7936786Y-11643357D01*
X8051071Y-11586214D02*
X8051071Y-11643357D01*
X8493928Y-12000500D02*
X8479643Y-11986214D01*
X8451071Y-11943357D01*
X8436786Y-11914786D01*
X8422500Y-11871929D01*
X8408214Y-11800500D01*
X8408214Y-11743357D01*
X8422500Y-11671929D01*
X8436786Y-11629071D01*
X8451071Y-11600500D01*
X8479643Y-11557643D01*
X8493928Y-11543357D01*
X8736786Y-11686214D02*
X8736786Y-11886214D01*
X8665357Y-11571929D02*
X8593928Y-11786214D01*
X8779643Y-11786214D01*
X9122500Y-11886214D02*
X9122500Y-11586214D01*
X9251071Y-11886214D02*
X9251071Y-11729071D01*
X9236786Y-11700500D01*
X9208214Y-11686214D01*
X9165357Y-11686214D01*
X9136786Y-11700500D01*
X9122500Y-11714786D01*
X9436786Y-11886214D02*
X9408214Y-11871929D01*
X9393928Y-11857643D01*
X9379643Y-11829071D01*
X9379643Y-11743357D01*
X9393928Y-11714786D01*
X9408214Y-11700500D01*
X9436786Y-11686214D01*
X9479643Y-11686214D01*
X9508214Y-11700500D01*
X9522500Y-11714786D01*
X9536786Y-11743357D01*
X9536786Y-11829071D01*
X9522500Y-11857643D01*
X9508214Y-11871929D01*
X9479643Y-11886214D01*
X9436786Y-11886214D01*
X9708214Y-11886214D02*
X9679643Y-11871929D01*
X9665357Y-11843357D01*
X9665357Y-11586214D01*
X9936786Y-11871929D02*
X9908214Y-11886214D01*
X9851071Y-11886214D01*
X9822500Y-11871929D01*
X9808214Y-11843357D01*
X9808214Y-11729071D01*
X9822500Y-11700500D01*
X9851071Y-11686214D01*
X9908214Y-11686214D01*
X9936786Y-11700500D01*
X9951071Y-11729071D01*
X9951071Y-11757643D01*
X9808214Y-11786214D01*
X10065357Y-11871929D02*
X10093928Y-11886214D01*
X10151071Y-11886214D01*
X10179643Y-11871929D01*
X10193928Y-11843357D01*
X10193928Y-11829071D01*
X10179643Y-11800500D01*
X10151071Y-11786214D01*
X10108214Y-11786214D01*
X10079643Y-11771929D01*
X10065357Y-11743357D01*
X10065357Y-11729071D01*
X10079643Y-11700500D01*
X10108214Y-11686214D01*
X10151071Y-11686214D01*
X10179643Y-11700500D01*
X10293928Y-12000500D02*
X10308214Y-11986214D01*
X10336786Y-11943357D01*
X10351071Y-11914786D01*
X10365357Y-11871929D01*
X10379643Y-11800500D01*
X10379643Y-11743357D01*
X10365357Y-11671929D01*
X10351071Y-11629071D01*
X10336786Y-11600500D01*
X10308214Y-11557643D01*
X10293928Y-11543357D01*
X10836786Y-12000500D02*
X10822500Y-11986214D01*
X10793928Y-11943357D01*
X10779643Y-11914786D01*
X10765357Y-11871929D01*
X10751071Y-11800500D01*
X10751071Y-11743357D01*
X10765357Y-11671929D01*
X10779643Y-11629071D01*
X10793928Y-11600500D01*
X10822500Y-11557643D01*
X10836786Y-11543357D01*
X10951071Y-11686214D02*
X10951071Y-11886214D01*
X10951071Y-11714786D02*
X10965357Y-11700500D01*
X10993928Y-11686214D01*
X11036786Y-11686214D01*
X11065357Y-11700500D01*
X11079643Y-11729071D01*
X11079643Y-11886214D01*
X11265357Y-11886214D02*
X11236786Y-11871929D01*
X11222500Y-11857643D01*
X11208214Y-11829071D01*
X11208214Y-11743357D01*
X11222500Y-11714786D01*
X11236786Y-11700500D01*
X11265357Y-11686214D01*
X11308214Y-11686214D01*
X11336786Y-11700500D01*
X11351071Y-11714786D01*
X11365357Y-11743357D01*
X11365357Y-11829071D01*
X11351071Y-11857643D01*
X11336786Y-11871929D01*
X11308214Y-11886214D01*
X11265357Y-11886214D01*
X11451071Y-11686214D02*
X11565357Y-11686214D01*
X11493928Y-11586214D02*
X11493928Y-11843357D01*
X11508214Y-11871929D01*
X11536786Y-11886214D01*
X11565357Y-11886214D01*
X11893928Y-11686214D02*
X11893928Y-11986214D01*
X11893928Y-11700500D02*
X11922500Y-11686214D01*
X11979643Y-11686214D01*
X12008214Y-11700500D01*
X12022500Y-11714786D01*
X12036786Y-11743357D01*
X12036786Y-11829071D01*
X12022500Y-11857643D01*
X12008214Y-11871929D01*
X11979643Y-11886214D01*
X11922500Y-11886214D01*
X11893928Y-11871929D01*
X12208214Y-11886214D02*
X12179643Y-11871929D01*
X12165357Y-11843357D01*
X12165357Y-11586214D01*
X12451071Y-11886214D02*
X12451071Y-11729071D01*
X12436786Y-11700500D01*
X12408214Y-11686214D01*
X12351071Y-11686214D01*
X12322500Y-11700500D01*
X12451071Y-11871929D02*
X12422500Y-11886214D01*
X12351071Y-11886214D01*
X12322500Y-11871929D01*
X12308214Y-11843357D01*
X12308214Y-11814786D01*
X12322500Y-11786214D01*
X12351071Y-11771929D01*
X12422500Y-11771929D01*
X12451071Y-11757643D01*
X12551071Y-11686214D02*
X12665357Y-11686214D01*
X12593928Y-11586214D02*
X12593928Y-11843357D01*
X12608214Y-11871929D01*
X12636786Y-11886214D01*
X12665357Y-11886214D01*
X12879643Y-11871929D02*
X12851071Y-11886214D01*
X12793928Y-11886214D01*
X12765357Y-11871929D01*
X12751071Y-11843357D01*
X12751071Y-11729071D01*
X12765357Y-11700500D01*
X12793928Y-11686214D01*
X12851071Y-11686214D01*
X12879643Y-11700500D01*
X12893928Y-11729071D01*
X12893928Y-11757643D01*
X12751071Y-11786214D01*
X13151071Y-11886214D02*
X13151071Y-11586214D01*
X13151071Y-11871929D02*
X13122500Y-11886214D01*
X13065357Y-11886214D01*
X13036786Y-11871929D01*
X13022500Y-11857643D01*
X13008214Y-11829071D01*
X13008214Y-11743357D01*
X13022500Y-11714786D01*
X13036786Y-11700500D01*
X13065357Y-11686214D01*
X13122500Y-11686214D01*
X13151071Y-11700500D01*
X13265357Y-12000500D02*
X13279643Y-11986214D01*
X13308214Y-11943357D01*
X13322500Y-11914786D01*
X13336786Y-11871929D01*
X13351071Y-11800500D01*
X13351071Y-11743357D01*
X13336786Y-11671929D01*
X13322500Y-11629071D01*
X13308214Y-11600500D01*
X13279643Y-11557643D01*
X13265357Y-11543357D01*
M02*
