G04 #@! TF.GenerationSoftware,KiCad,Pcbnew,(5.1.5-0-10_14)*
G04 #@! TF.CreationDate,2020-10-23T09:09:01-05:00*
G04 #@! TF.ProjectId,Generic_STM32_Keyboard,47656e65-7269-4635-9f53-544d33325f4b,rev?*
G04 #@! TF.SameCoordinates,Original*
G04 #@! TF.FileFunction,Soldermask,Bot*
G04 #@! TF.FilePolarity,Negative*
%FSLAX46Y46*%
G04 Gerber Fmt 4.6, Leading zero omitted, Abs format (unit mm)*
G04 Created by KiCad (PCBNEW (5.1.5-0-10_14)) date 2020-10-23 09:09:01*
%MOMM*%
%LPD*%
G04 APERTURE LIST*
%ADD10C,0.100000*%
G04 APERTURE END LIST*
D10*
G36*
X72401000Y-75741000D02*
G01*
X70599000Y-75741000D01*
X70599000Y-73939000D01*
X72401000Y-73939000D01*
X72401000Y-75741000D01*
G37*
G36*
X69073512Y-73943927D02*
G01*
X69222812Y-73973624D01*
X69386784Y-74041544D01*
X69534354Y-74140147D01*
X69659853Y-74265646D01*
X69758456Y-74413216D01*
X69826376Y-74577188D01*
X69861000Y-74751259D01*
X69861000Y-74928741D01*
X69826376Y-75102812D01*
X69758456Y-75266784D01*
X69659853Y-75414354D01*
X69534354Y-75539853D01*
X69386784Y-75638456D01*
X69222812Y-75706376D01*
X69073512Y-75736073D01*
X69048742Y-75741000D01*
X68871258Y-75741000D01*
X68846488Y-75736073D01*
X68697188Y-75706376D01*
X68533216Y-75638456D01*
X68385646Y-75539853D01*
X68260147Y-75414354D01*
X68161544Y-75266784D01*
X68093624Y-75102812D01*
X68059000Y-74928741D01*
X68059000Y-74751259D01*
X68093624Y-74577188D01*
X68161544Y-74413216D01*
X68260147Y-74265646D01*
X68385646Y-74140147D01*
X68533216Y-74041544D01*
X68697188Y-73973624D01*
X68846488Y-73943927D01*
X68871258Y-73939000D01*
X69048742Y-73939000D01*
X69073512Y-73943927D01*
G37*
G36*
X66533512Y-73943927D02*
G01*
X66682812Y-73973624D01*
X66846784Y-74041544D01*
X66994354Y-74140147D01*
X67119853Y-74265646D01*
X67218456Y-74413216D01*
X67286376Y-74577188D01*
X67321000Y-74751259D01*
X67321000Y-74928741D01*
X67286376Y-75102812D01*
X67218456Y-75266784D01*
X67119853Y-75414354D01*
X66994354Y-75539853D01*
X66846784Y-75638456D01*
X66682812Y-75706376D01*
X66533512Y-75736073D01*
X66508742Y-75741000D01*
X66331258Y-75741000D01*
X66306488Y-75736073D01*
X66157188Y-75706376D01*
X65993216Y-75638456D01*
X65845646Y-75539853D01*
X65720147Y-75414354D01*
X65621544Y-75266784D01*
X65553624Y-75102812D01*
X65519000Y-74928741D01*
X65519000Y-74751259D01*
X65553624Y-74577188D01*
X65621544Y-74413216D01*
X65720147Y-74265646D01*
X65845646Y-74140147D01*
X65993216Y-74041544D01*
X66157188Y-73973624D01*
X66306488Y-73943927D01*
X66331258Y-73939000D01*
X66508742Y-73939000D01*
X66533512Y-73943927D01*
G37*
G36*
X63993512Y-73943927D02*
G01*
X64142812Y-73973624D01*
X64306784Y-74041544D01*
X64454354Y-74140147D01*
X64579853Y-74265646D01*
X64678456Y-74413216D01*
X64746376Y-74577188D01*
X64781000Y-74751259D01*
X64781000Y-74928741D01*
X64746376Y-75102812D01*
X64678456Y-75266784D01*
X64579853Y-75414354D01*
X64454354Y-75539853D01*
X64306784Y-75638456D01*
X64142812Y-75706376D01*
X63993512Y-75736073D01*
X63968742Y-75741000D01*
X63791258Y-75741000D01*
X63766488Y-75736073D01*
X63617188Y-75706376D01*
X63453216Y-75638456D01*
X63305646Y-75539853D01*
X63180147Y-75414354D01*
X63081544Y-75266784D01*
X63013624Y-75102812D01*
X62979000Y-74928741D01*
X62979000Y-74751259D01*
X63013624Y-74577188D01*
X63081544Y-74413216D01*
X63180147Y-74265646D01*
X63305646Y-74140147D01*
X63453216Y-74041544D01*
X63617188Y-73973624D01*
X63766488Y-73943927D01*
X63791258Y-73939000D01*
X63968742Y-73939000D01*
X63993512Y-73943927D01*
G37*
G36*
X61453512Y-73943927D02*
G01*
X61602812Y-73973624D01*
X61766784Y-74041544D01*
X61914354Y-74140147D01*
X62039853Y-74265646D01*
X62138456Y-74413216D01*
X62206376Y-74577188D01*
X62241000Y-74751259D01*
X62241000Y-74928741D01*
X62206376Y-75102812D01*
X62138456Y-75266784D01*
X62039853Y-75414354D01*
X61914354Y-75539853D01*
X61766784Y-75638456D01*
X61602812Y-75706376D01*
X61453512Y-75736073D01*
X61428742Y-75741000D01*
X61251258Y-75741000D01*
X61226488Y-75736073D01*
X61077188Y-75706376D01*
X60913216Y-75638456D01*
X60765646Y-75539853D01*
X60640147Y-75414354D01*
X60541544Y-75266784D01*
X60473624Y-75102812D01*
X60439000Y-74928741D01*
X60439000Y-74751259D01*
X60473624Y-74577188D01*
X60541544Y-74413216D01*
X60640147Y-74265646D01*
X60765646Y-74140147D01*
X60913216Y-74041544D01*
X61077188Y-73973624D01*
X61226488Y-73943927D01*
X61251258Y-73939000D01*
X61428742Y-73939000D01*
X61453512Y-73943927D01*
G37*
G36*
X54546200Y-75704600D02*
G01*
X52644200Y-75704600D01*
X52644200Y-74502600D01*
X54546200Y-74502600D01*
X54546200Y-75704600D01*
G37*
G36*
X48346200Y-75704600D02*
G01*
X46444200Y-75704600D01*
X46444200Y-74502600D01*
X48346200Y-74502600D01*
X48346200Y-75704600D01*
G37*
G36*
X66533512Y-71403927D02*
G01*
X66682812Y-71433624D01*
X66846784Y-71501544D01*
X66994354Y-71600147D01*
X67119853Y-71725646D01*
X67218456Y-71873216D01*
X67286376Y-72037188D01*
X67321000Y-72211259D01*
X67321000Y-72388741D01*
X67286376Y-72562812D01*
X67218456Y-72726784D01*
X67119853Y-72874354D01*
X66994354Y-72999853D01*
X66846784Y-73098456D01*
X66682812Y-73166376D01*
X66533512Y-73196073D01*
X66508742Y-73201000D01*
X66331258Y-73201000D01*
X66306488Y-73196073D01*
X66157188Y-73166376D01*
X65993216Y-73098456D01*
X65845646Y-72999853D01*
X65720147Y-72874354D01*
X65621544Y-72726784D01*
X65553624Y-72562812D01*
X65519000Y-72388741D01*
X65519000Y-72211259D01*
X65553624Y-72037188D01*
X65621544Y-71873216D01*
X65720147Y-71725646D01*
X65845646Y-71600147D01*
X65993216Y-71501544D01*
X66157188Y-71433624D01*
X66306488Y-71403927D01*
X66331258Y-71399000D01*
X66508742Y-71399000D01*
X66533512Y-71403927D01*
G37*
G36*
X69073512Y-71403927D02*
G01*
X69222812Y-71433624D01*
X69386784Y-71501544D01*
X69534354Y-71600147D01*
X69659853Y-71725646D01*
X69758456Y-71873216D01*
X69826376Y-72037188D01*
X69861000Y-72211259D01*
X69861000Y-72388741D01*
X69826376Y-72562812D01*
X69758456Y-72726784D01*
X69659853Y-72874354D01*
X69534354Y-72999853D01*
X69386784Y-73098456D01*
X69222812Y-73166376D01*
X69073512Y-73196073D01*
X69048742Y-73201000D01*
X68871258Y-73201000D01*
X68846488Y-73196073D01*
X68697188Y-73166376D01*
X68533216Y-73098456D01*
X68385646Y-72999853D01*
X68260147Y-72874354D01*
X68161544Y-72726784D01*
X68093624Y-72562812D01*
X68059000Y-72388741D01*
X68059000Y-72211259D01*
X68093624Y-72037188D01*
X68161544Y-71873216D01*
X68260147Y-71725646D01*
X68385646Y-71600147D01*
X68533216Y-71501544D01*
X68697188Y-71433624D01*
X68846488Y-71403927D01*
X68871258Y-71399000D01*
X69048742Y-71399000D01*
X69073512Y-71403927D01*
G37*
G36*
X71613512Y-71403927D02*
G01*
X71762812Y-71433624D01*
X71926784Y-71501544D01*
X72074354Y-71600147D01*
X72199853Y-71725646D01*
X72298456Y-71873216D01*
X72366376Y-72037188D01*
X72401000Y-72211259D01*
X72401000Y-72388741D01*
X72366376Y-72562812D01*
X72298456Y-72726784D01*
X72199853Y-72874354D01*
X72074354Y-72999853D01*
X71926784Y-73098456D01*
X71762812Y-73166376D01*
X71613512Y-73196073D01*
X71588742Y-73201000D01*
X71411258Y-73201000D01*
X71386488Y-73196073D01*
X71237188Y-73166376D01*
X71073216Y-73098456D01*
X70925646Y-72999853D01*
X70800147Y-72874354D01*
X70701544Y-72726784D01*
X70633624Y-72562812D01*
X70599000Y-72388741D01*
X70599000Y-72211259D01*
X70633624Y-72037188D01*
X70701544Y-71873216D01*
X70800147Y-71725646D01*
X70925646Y-71600147D01*
X71073216Y-71501544D01*
X71237188Y-71433624D01*
X71386488Y-71403927D01*
X71411258Y-71399000D01*
X71588742Y-71399000D01*
X71613512Y-71403927D01*
G37*
G36*
X63993512Y-71403927D02*
G01*
X64142812Y-71433624D01*
X64306784Y-71501544D01*
X64454354Y-71600147D01*
X64579853Y-71725646D01*
X64678456Y-71873216D01*
X64746376Y-72037188D01*
X64781000Y-72211259D01*
X64781000Y-72388741D01*
X64746376Y-72562812D01*
X64678456Y-72726784D01*
X64579853Y-72874354D01*
X64454354Y-72999853D01*
X64306784Y-73098456D01*
X64142812Y-73166376D01*
X63993512Y-73196073D01*
X63968742Y-73201000D01*
X63791258Y-73201000D01*
X63766488Y-73196073D01*
X63617188Y-73166376D01*
X63453216Y-73098456D01*
X63305646Y-72999853D01*
X63180147Y-72874354D01*
X63081544Y-72726784D01*
X63013624Y-72562812D01*
X62979000Y-72388741D01*
X62979000Y-72211259D01*
X63013624Y-72037188D01*
X63081544Y-71873216D01*
X63180147Y-71725646D01*
X63305646Y-71600147D01*
X63453216Y-71501544D01*
X63617188Y-71433624D01*
X63766488Y-71403927D01*
X63791258Y-71399000D01*
X63968742Y-71399000D01*
X63993512Y-71403927D01*
G37*
G36*
X61453512Y-71403927D02*
G01*
X61602812Y-71433624D01*
X61766784Y-71501544D01*
X61914354Y-71600147D01*
X62039853Y-71725646D01*
X62138456Y-71873216D01*
X62206376Y-72037188D01*
X62241000Y-72211259D01*
X62241000Y-72388741D01*
X62206376Y-72562812D01*
X62138456Y-72726784D01*
X62039853Y-72874354D01*
X61914354Y-72999853D01*
X61766784Y-73098456D01*
X61602812Y-73166376D01*
X61453512Y-73196073D01*
X61428742Y-73201000D01*
X61251258Y-73201000D01*
X61226488Y-73196073D01*
X61077188Y-73166376D01*
X60913216Y-73098456D01*
X60765646Y-72999853D01*
X60640147Y-72874354D01*
X60541544Y-72726784D01*
X60473624Y-72562812D01*
X60439000Y-72388741D01*
X60439000Y-72211259D01*
X60473624Y-72037188D01*
X60541544Y-71873216D01*
X60640147Y-71725646D01*
X60765646Y-71600147D01*
X60913216Y-71501544D01*
X61077188Y-71433624D01*
X61226488Y-71403927D01*
X61251258Y-71399000D01*
X61428742Y-71399000D01*
X61453512Y-71403927D01*
G37*
G36*
X48346200Y-72004600D02*
G01*
X46444200Y-72004600D01*
X46444200Y-70802600D01*
X48346200Y-70802600D01*
X48346200Y-72004600D01*
G37*
G36*
X54546200Y-72004600D02*
G01*
X52644200Y-72004600D01*
X52644200Y-70802600D01*
X54546200Y-70802600D01*
X54546200Y-72004600D01*
G37*
G36*
X74813512Y-69823927D02*
G01*
X74962812Y-69853624D01*
X75126784Y-69921544D01*
X75274354Y-70020147D01*
X75399853Y-70145646D01*
X75498456Y-70293216D01*
X75566376Y-70457188D01*
X75585724Y-70554461D01*
X75599142Y-70621915D01*
X75601000Y-70631259D01*
X75601000Y-70808741D01*
X75566376Y-70982812D01*
X75498456Y-71146784D01*
X75399853Y-71294354D01*
X75274354Y-71419853D01*
X75126784Y-71518456D01*
X74962812Y-71586376D01*
X74813512Y-71616073D01*
X74788742Y-71621000D01*
X74611258Y-71621000D01*
X74586488Y-71616073D01*
X74437188Y-71586376D01*
X74273216Y-71518456D01*
X74125646Y-71419853D01*
X74000147Y-71294354D01*
X73901544Y-71146784D01*
X73833624Y-70982812D01*
X73799000Y-70808741D01*
X73799000Y-70631259D01*
X73800859Y-70621915D01*
X73814276Y-70554461D01*
X73833624Y-70457188D01*
X73901544Y-70293216D01*
X74000147Y-70145646D01*
X74125646Y-70020147D01*
X74273216Y-69921544D01*
X74437188Y-69853624D01*
X74586488Y-69823927D01*
X74611258Y-69819000D01*
X74788742Y-69819000D01*
X74813512Y-69823927D01*
G37*
G36*
X58990791Y-70445685D02*
G01*
X59024769Y-70455993D01*
X59056090Y-70472734D01*
X59083539Y-70495261D01*
X59106066Y-70522710D01*
X59122807Y-70554031D01*
X59133115Y-70588009D01*
X59137200Y-70629490D01*
X59137200Y-71305710D01*
X59133115Y-71347191D01*
X59122807Y-71381169D01*
X59106066Y-71412490D01*
X59083539Y-71439939D01*
X59056090Y-71462466D01*
X59024769Y-71479207D01*
X58990791Y-71489515D01*
X58949310Y-71493600D01*
X58348090Y-71493600D01*
X58306609Y-71489515D01*
X58272631Y-71479207D01*
X58241310Y-71462466D01*
X58213861Y-71439939D01*
X58191334Y-71412490D01*
X58174593Y-71381169D01*
X58164285Y-71347191D01*
X58160200Y-71305710D01*
X58160200Y-70629490D01*
X58164285Y-70588009D01*
X58174593Y-70554031D01*
X58191334Y-70522710D01*
X58213861Y-70495261D01*
X58241310Y-70472734D01*
X58272631Y-70455993D01*
X58306609Y-70445685D01*
X58348090Y-70441600D01*
X58949310Y-70441600D01*
X58990791Y-70445685D01*
G37*
G36*
X57415791Y-70445685D02*
G01*
X57449769Y-70455993D01*
X57481090Y-70472734D01*
X57508539Y-70495261D01*
X57531066Y-70522710D01*
X57547807Y-70554031D01*
X57558115Y-70588009D01*
X57562200Y-70629490D01*
X57562200Y-71305710D01*
X57558115Y-71347191D01*
X57547807Y-71381169D01*
X57531066Y-71412490D01*
X57508539Y-71439939D01*
X57481090Y-71462466D01*
X57449769Y-71479207D01*
X57415791Y-71489515D01*
X57374310Y-71493600D01*
X56773090Y-71493600D01*
X56731609Y-71489515D01*
X56697631Y-71479207D01*
X56666310Y-71462466D01*
X56638861Y-71439939D01*
X56616334Y-71412490D01*
X56599593Y-71381169D01*
X56589285Y-71347191D01*
X56585200Y-71305710D01*
X56585200Y-70629490D01*
X56589285Y-70588009D01*
X56599593Y-70554031D01*
X56616334Y-70522710D01*
X56638861Y-70495261D01*
X56666310Y-70472734D01*
X56697631Y-70455993D01*
X56731609Y-70445685D01*
X56773090Y-70441600D01*
X57374310Y-70441600D01*
X57415791Y-70445685D01*
G37*
G36*
X72429591Y-69578085D02*
G01*
X72463569Y-69588393D01*
X72494890Y-69605134D01*
X72522339Y-69627661D01*
X72544866Y-69655110D01*
X72561607Y-69686431D01*
X72571915Y-69720409D01*
X72576000Y-69761890D01*
X72576000Y-70438110D01*
X72571915Y-70479591D01*
X72561607Y-70513569D01*
X72544866Y-70544890D01*
X72522339Y-70572339D01*
X72494890Y-70594866D01*
X72463569Y-70611607D01*
X72429591Y-70621915D01*
X72388110Y-70626000D01*
X71786890Y-70626000D01*
X71745409Y-70621915D01*
X71711431Y-70611607D01*
X71680110Y-70594866D01*
X71652661Y-70572339D01*
X71630134Y-70544890D01*
X71613393Y-70513569D01*
X71603085Y-70479591D01*
X71599000Y-70438110D01*
X71599000Y-69761890D01*
X71603085Y-69720409D01*
X71613393Y-69686431D01*
X71630134Y-69655110D01*
X71652661Y-69627661D01*
X71680110Y-69605134D01*
X71711431Y-69588393D01*
X71745409Y-69578085D01*
X71786890Y-69574000D01*
X72388110Y-69574000D01*
X72429591Y-69578085D01*
G37*
G36*
X70854591Y-69578085D02*
G01*
X70888569Y-69588393D01*
X70919890Y-69605134D01*
X70947339Y-69627661D01*
X70969866Y-69655110D01*
X70986607Y-69686431D01*
X70996915Y-69720409D01*
X71001000Y-69761890D01*
X71001000Y-70438110D01*
X70996915Y-70479591D01*
X70986607Y-70513569D01*
X70969866Y-70544890D01*
X70947339Y-70572339D01*
X70919890Y-70594866D01*
X70888569Y-70611607D01*
X70854591Y-70621915D01*
X70813110Y-70626000D01*
X70211890Y-70626000D01*
X70170409Y-70621915D01*
X70136431Y-70611607D01*
X70105110Y-70594866D01*
X70077661Y-70572339D01*
X70055134Y-70544890D01*
X70038393Y-70513569D01*
X70028085Y-70479591D01*
X70024000Y-70438110D01*
X70024000Y-69761890D01*
X70028085Y-69720409D01*
X70038393Y-69686431D01*
X70055134Y-69655110D01*
X70077661Y-69627661D01*
X70105110Y-69605134D01*
X70136431Y-69588393D01*
X70170409Y-69578085D01*
X70211890Y-69574000D01*
X70813110Y-69574000D01*
X70854591Y-69578085D01*
G37*
G36*
X44829591Y-69359335D02*
G01*
X44863569Y-69369643D01*
X44894890Y-69386384D01*
X44922339Y-69408911D01*
X44944866Y-69436360D01*
X44961607Y-69467681D01*
X44971915Y-69501659D01*
X44976000Y-69543140D01*
X44976000Y-70144360D01*
X44971915Y-70185841D01*
X44961607Y-70219819D01*
X44944866Y-70251140D01*
X44922339Y-70278589D01*
X44894890Y-70301116D01*
X44863569Y-70317857D01*
X44829591Y-70328165D01*
X44788110Y-70332250D01*
X44111890Y-70332250D01*
X44070409Y-70328165D01*
X44036431Y-70317857D01*
X44005110Y-70301116D01*
X43977661Y-70278589D01*
X43955134Y-70251140D01*
X43938393Y-70219819D01*
X43928085Y-70185841D01*
X43924000Y-70144360D01*
X43924000Y-69543140D01*
X43928085Y-69501659D01*
X43938393Y-69467681D01*
X43955134Y-69436360D01*
X43977661Y-69408911D01*
X44005110Y-69386384D01*
X44036431Y-69369643D01*
X44070409Y-69359335D01*
X44111890Y-69355250D01*
X44788110Y-69355250D01*
X44829591Y-69359335D01*
G37*
G36*
X63879591Y-69359335D02*
G01*
X63913569Y-69369643D01*
X63944890Y-69386384D01*
X63972339Y-69408911D01*
X63994866Y-69436360D01*
X64011607Y-69467681D01*
X64021915Y-69501659D01*
X64026000Y-69543140D01*
X64026000Y-70144360D01*
X64021915Y-70185841D01*
X64011607Y-70219819D01*
X63994866Y-70251140D01*
X63972339Y-70278589D01*
X63944890Y-70301116D01*
X63913569Y-70317857D01*
X63879591Y-70328165D01*
X63838110Y-70332250D01*
X63161890Y-70332250D01*
X63120409Y-70328165D01*
X63086431Y-70317857D01*
X63055110Y-70301116D01*
X63027661Y-70278589D01*
X63005134Y-70251140D01*
X62988393Y-70219819D01*
X62978085Y-70185841D01*
X62974000Y-70144360D01*
X62974000Y-69543140D01*
X62978085Y-69501659D01*
X62988393Y-69467681D01*
X63005134Y-69436360D01*
X63027661Y-69408911D01*
X63055110Y-69386384D01*
X63086431Y-69369643D01*
X63120409Y-69359335D01*
X63161890Y-69355250D01*
X63838110Y-69355250D01*
X63879591Y-69359335D01*
G37*
G36*
X59366200Y-69855400D02*
G01*
X56864200Y-69855400D01*
X56864200Y-67753400D01*
X59366200Y-67753400D01*
X59366200Y-69855400D01*
G37*
G36*
X55700791Y-68705185D02*
G01*
X55734769Y-68715493D01*
X55766090Y-68732234D01*
X55793539Y-68754761D01*
X55816066Y-68782210D01*
X55832807Y-68813531D01*
X55843115Y-68847509D01*
X55847200Y-68888990D01*
X55847200Y-69490210D01*
X55843115Y-69531691D01*
X55832807Y-69565669D01*
X55816066Y-69596990D01*
X55793539Y-69624439D01*
X55766090Y-69646966D01*
X55734769Y-69663707D01*
X55700791Y-69674015D01*
X55659310Y-69678100D01*
X54983090Y-69678100D01*
X54941609Y-69674015D01*
X54907631Y-69663707D01*
X54876310Y-69646966D01*
X54848861Y-69624439D01*
X54826334Y-69596990D01*
X54809593Y-69565669D01*
X54799285Y-69531691D01*
X54795200Y-69490210D01*
X54795200Y-68888990D01*
X54799285Y-68847509D01*
X54809593Y-68813531D01*
X54826334Y-68782210D01*
X54848861Y-68754761D01*
X54876310Y-68732234D01*
X54907631Y-68715493D01*
X54941609Y-68705185D01*
X54983090Y-68701100D01*
X55659310Y-68701100D01*
X55700791Y-68705185D01*
G37*
G36*
X74813512Y-67283927D02*
G01*
X74962812Y-67313624D01*
X75126784Y-67381544D01*
X75274354Y-67480147D01*
X75399853Y-67605646D01*
X75498456Y-67753216D01*
X75566376Y-67917188D01*
X75591906Y-68045539D01*
X75600493Y-68088707D01*
X75601000Y-68091259D01*
X75601000Y-68268741D01*
X75566376Y-68442812D01*
X75498456Y-68606784D01*
X75399853Y-68754354D01*
X75274354Y-68879853D01*
X75126784Y-68978456D01*
X74962812Y-69046376D01*
X74813512Y-69076073D01*
X74788742Y-69081000D01*
X74611258Y-69081000D01*
X74586488Y-69076073D01*
X74437188Y-69046376D01*
X74273216Y-68978456D01*
X74125646Y-68879853D01*
X74000147Y-68754354D01*
X73901544Y-68606784D01*
X73833624Y-68442812D01*
X73799000Y-68268741D01*
X73799000Y-68091259D01*
X73799508Y-68088707D01*
X73808094Y-68045539D01*
X73833624Y-67917188D01*
X73901544Y-67753216D01*
X74000147Y-67605646D01*
X74125646Y-67480147D01*
X74273216Y-67381544D01*
X74437188Y-67313624D01*
X74586488Y-67283927D01*
X74611258Y-67279000D01*
X74788742Y-67279000D01*
X74813512Y-67283927D01*
G37*
G36*
X70854591Y-67978085D02*
G01*
X70888569Y-67988393D01*
X70919890Y-68005134D01*
X70947339Y-68027661D01*
X70969866Y-68055110D01*
X70986607Y-68086431D01*
X70996915Y-68120409D01*
X71001000Y-68161890D01*
X71001000Y-68838110D01*
X70996915Y-68879591D01*
X70986607Y-68913569D01*
X70969866Y-68944890D01*
X70947339Y-68972339D01*
X70919890Y-68994866D01*
X70888569Y-69011607D01*
X70854591Y-69021915D01*
X70813110Y-69026000D01*
X70211890Y-69026000D01*
X70170409Y-69021915D01*
X70136431Y-69011607D01*
X70105110Y-68994866D01*
X70077661Y-68972339D01*
X70055134Y-68944890D01*
X70038393Y-68913569D01*
X70028085Y-68879591D01*
X70024000Y-68838110D01*
X70024000Y-68161890D01*
X70028085Y-68120409D01*
X70038393Y-68086431D01*
X70055134Y-68055110D01*
X70077661Y-68027661D01*
X70105110Y-68005134D01*
X70136431Y-67988393D01*
X70170409Y-67978085D01*
X70211890Y-67974000D01*
X70813110Y-67974000D01*
X70854591Y-67978085D01*
G37*
G36*
X72429591Y-67978085D02*
G01*
X72463569Y-67988393D01*
X72494890Y-68005134D01*
X72522339Y-68027661D01*
X72544866Y-68055110D01*
X72561607Y-68086431D01*
X72571915Y-68120409D01*
X72576000Y-68161890D01*
X72576000Y-68838110D01*
X72571915Y-68879591D01*
X72561607Y-68913569D01*
X72544866Y-68944890D01*
X72522339Y-68972339D01*
X72494890Y-68994866D01*
X72463569Y-69011607D01*
X72429591Y-69021915D01*
X72388110Y-69026000D01*
X71786890Y-69026000D01*
X71745409Y-69021915D01*
X71711431Y-69011607D01*
X71680110Y-68994866D01*
X71652661Y-68972339D01*
X71630134Y-68944890D01*
X71613393Y-68913569D01*
X71603085Y-68879591D01*
X71599000Y-68838110D01*
X71599000Y-68161890D01*
X71603085Y-68120409D01*
X71613393Y-68086431D01*
X71630134Y-68055110D01*
X71652661Y-68027661D01*
X71680110Y-68005134D01*
X71711431Y-67988393D01*
X71745409Y-67978085D01*
X71786890Y-67974000D01*
X72388110Y-67974000D01*
X72429591Y-67978085D01*
G37*
G36*
X44829591Y-67784335D02*
G01*
X44863569Y-67794643D01*
X44894890Y-67811384D01*
X44922339Y-67833911D01*
X44944866Y-67861360D01*
X44961607Y-67892681D01*
X44971915Y-67926659D01*
X44976000Y-67968140D01*
X44976000Y-68569360D01*
X44971915Y-68610841D01*
X44961607Y-68644819D01*
X44944866Y-68676140D01*
X44922339Y-68703589D01*
X44894890Y-68726116D01*
X44863569Y-68742857D01*
X44829591Y-68753165D01*
X44788110Y-68757250D01*
X44111890Y-68757250D01*
X44070409Y-68753165D01*
X44036431Y-68742857D01*
X44005110Y-68726116D01*
X43977661Y-68703589D01*
X43955134Y-68676140D01*
X43938393Y-68644819D01*
X43928085Y-68610841D01*
X43924000Y-68569360D01*
X43924000Y-67968140D01*
X43928085Y-67926659D01*
X43938393Y-67892681D01*
X43955134Y-67861360D01*
X43977661Y-67833911D01*
X44005110Y-67811384D01*
X44036431Y-67794643D01*
X44070409Y-67784335D01*
X44111890Y-67780250D01*
X44788110Y-67780250D01*
X44829591Y-67784335D01*
G37*
G36*
X63879591Y-67784335D02*
G01*
X63913569Y-67794643D01*
X63944890Y-67811384D01*
X63972339Y-67833911D01*
X63994866Y-67861360D01*
X64011607Y-67892681D01*
X64021915Y-67926659D01*
X64026000Y-67968140D01*
X64026000Y-68569360D01*
X64021915Y-68610841D01*
X64011607Y-68644819D01*
X63994866Y-68676140D01*
X63972339Y-68703589D01*
X63944890Y-68726116D01*
X63913569Y-68742857D01*
X63879591Y-68753165D01*
X63838110Y-68757250D01*
X63161890Y-68757250D01*
X63120409Y-68753165D01*
X63086431Y-68742857D01*
X63055110Y-68726116D01*
X63027661Y-68703589D01*
X63005134Y-68676140D01*
X62988393Y-68644819D01*
X62978085Y-68610841D01*
X62974000Y-68569360D01*
X62974000Y-67968140D01*
X62978085Y-67926659D01*
X62988393Y-67892681D01*
X63005134Y-67861360D01*
X63027661Y-67833911D01*
X63055110Y-67811384D01*
X63086431Y-67794643D01*
X63120409Y-67784335D01*
X63161890Y-67780250D01*
X63838110Y-67780250D01*
X63879591Y-67784335D01*
G37*
G36*
X48221474Y-64708684D02*
G01*
X48378255Y-64773625D01*
X48593623Y-64862833D01*
X48928548Y-65086623D01*
X49213377Y-65371452D01*
X49437167Y-65706377D01*
X49469562Y-65784586D01*
X49591316Y-66078526D01*
X49669900Y-66473594D01*
X49669900Y-66876406D01*
X49591316Y-67271474D01*
X49540451Y-67394272D01*
X49437167Y-67643623D01*
X49213377Y-67978548D01*
X48928548Y-68263377D01*
X48593623Y-68487167D01*
X48531256Y-68513000D01*
X48221474Y-68641316D01*
X47826406Y-68719900D01*
X47423594Y-68719900D01*
X47028526Y-68641316D01*
X46718744Y-68513000D01*
X46656377Y-68487167D01*
X46321452Y-68263377D01*
X46036623Y-67978548D01*
X45812833Y-67643623D01*
X45709549Y-67394272D01*
X45658684Y-67271474D01*
X45580100Y-66876406D01*
X45580100Y-66473594D01*
X45658684Y-66078526D01*
X45780438Y-65784586D01*
X45812833Y-65706377D01*
X46036623Y-65371452D01*
X46321452Y-65086623D01*
X46656377Y-64862833D01*
X46871745Y-64773625D01*
X47028526Y-64708684D01*
X47423594Y-64630100D01*
X47826406Y-64630100D01*
X48221474Y-64708684D01*
G37*
G36*
X67271474Y-64708684D02*
G01*
X67428255Y-64773625D01*
X67643623Y-64862833D01*
X67978548Y-65086623D01*
X68263377Y-65371452D01*
X68487167Y-65706377D01*
X68519562Y-65784586D01*
X68641316Y-66078526D01*
X68719900Y-66473594D01*
X68719900Y-66876406D01*
X68641316Y-67271474D01*
X68590451Y-67394272D01*
X68487167Y-67643623D01*
X68263377Y-67978548D01*
X67978548Y-68263377D01*
X67643623Y-68487167D01*
X67581256Y-68513000D01*
X67271474Y-68641316D01*
X66876406Y-68719900D01*
X66473594Y-68719900D01*
X66078526Y-68641316D01*
X65768744Y-68513000D01*
X65706377Y-68487167D01*
X65371452Y-68263377D01*
X65086623Y-67978548D01*
X64862833Y-67643623D01*
X64759549Y-67394272D01*
X64708684Y-67271474D01*
X64630100Y-66876406D01*
X64630100Y-66473594D01*
X64708684Y-66078526D01*
X64830438Y-65784586D01*
X64862833Y-65706377D01*
X65086623Y-65371452D01*
X65371452Y-65086623D01*
X65706377Y-64862833D01*
X65921745Y-64773625D01*
X66078526Y-64708684D01*
X66473594Y-64630100D01*
X66876406Y-64630100D01*
X67271474Y-64708684D01*
G37*
G36*
X55700791Y-67130185D02*
G01*
X55734769Y-67140493D01*
X55766090Y-67157234D01*
X55793539Y-67179761D01*
X55816066Y-67207210D01*
X55832807Y-67238531D01*
X55843115Y-67272509D01*
X55847200Y-67313990D01*
X55847200Y-67915210D01*
X55843115Y-67956691D01*
X55832807Y-67990669D01*
X55816066Y-68021990D01*
X55793539Y-68049439D01*
X55766090Y-68071966D01*
X55734769Y-68088707D01*
X55700791Y-68099015D01*
X55659310Y-68103100D01*
X54983090Y-68103100D01*
X54941609Y-68099015D01*
X54907631Y-68088707D01*
X54876310Y-68071966D01*
X54848861Y-68049439D01*
X54826334Y-68021990D01*
X54809593Y-67990669D01*
X54799285Y-67956691D01*
X54795200Y-67915210D01*
X54795200Y-67313990D01*
X54799285Y-67272509D01*
X54809593Y-67238531D01*
X54826334Y-67207210D01*
X54848861Y-67179761D01*
X54876310Y-67157234D01*
X54907631Y-67140493D01*
X54941609Y-67130185D01*
X54983090Y-67126100D01*
X55659310Y-67126100D01*
X55700791Y-67130185D01*
G37*
G36*
X52975104Y-65784585D02*
G01*
X53143626Y-65854389D01*
X53295291Y-65955728D01*
X53424272Y-66084709D01*
X53525611Y-66236374D01*
X53595415Y-66404896D01*
X53631000Y-66583797D01*
X53631000Y-66766203D01*
X53595415Y-66945104D01*
X53525611Y-67113626D01*
X53424272Y-67265291D01*
X53295291Y-67394272D01*
X53143626Y-67495611D01*
X52975104Y-67565415D01*
X52796203Y-67601000D01*
X52613797Y-67601000D01*
X52434896Y-67565415D01*
X52266374Y-67495611D01*
X52114709Y-67394272D01*
X51985728Y-67265291D01*
X51884389Y-67113626D01*
X51814585Y-66945104D01*
X51779000Y-66766203D01*
X51779000Y-66583797D01*
X51814585Y-66404896D01*
X51884389Y-66236374D01*
X51985728Y-66084709D01*
X52114709Y-65955728D01*
X52266374Y-65854389D01*
X52434896Y-65784585D01*
X52613797Y-65749000D01*
X52796203Y-65749000D01*
X52975104Y-65784585D01*
G37*
G36*
X42815104Y-65784585D02*
G01*
X42983626Y-65854389D01*
X43135291Y-65955728D01*
X43264272Y-66084709D01*
X43365611Y-66236374D01*
X43435415Y-66404896D01*
X43471000Y-66583797D01*
X43471000Y-66766203D01*
X43435415Y-66945104D01*
X43365611Y-67113626D01*
X43264272Y-67265291D01*
X43135291Y-67394272D01*
X42983626Y-67495611D01*
X42815104Y-67565415D01*
X42636203Y-67601000D01*
X42453797Y-67601000D01*
X42274896Y-67565415D01*
X42106374Y-67495611D01*
X41954709Y-67394272D01*
X41825728Y-67265291D01*
X41724389Y-67113626D01*
X41654585Y-66945104D01*
X41619000Y-66766203D01*
X41619000Y-66583797D01*
X41654585Y-66404896D01*
X41724389Y-66236374D01*
X41825728Y-66084709D01*
X41954709Y-65955728D01*
X42106374Y-65854389D01*
X42274896Y-65784585D01*
X42453797Y-65749000D01*
X42636203Y-65749000D01*
X42815104Y-65784585D01*
G37*
G36*
X72025104Y-65784585D02*
G01*
X72193626Y-65854389D01*
X72345291Y-65955728D01*
X72474272Y-66084709D01*
X72575611Y-66236374D01*
X72645415Y-66404896D01*
X72681000Y-66583797D01*
X72681000Y-66766203D01*
X72645415Y-66945104D01*
X72575611Y-67113626D01*
X72474272Y-67265291D01*
X72345291Y-67394272D01*
X72193626Y-67495611D01*
X72025104Y-67565415D01*
X71846203Y-67601000D01*
X71663797Y-67601000D01*
X71484896Y-67565415D01*
X71316374Y-67495611D01*
X71164709Y-67394272D01*
X71035728Y-67265291D01*
X70934389Y-67113626D01*
X70864585Y-66945104D01*
X70829000Y-66766203D01*
X70829000Y-66583797D01*
X70864585Y-66404896D01*
X70934389Y-66236374D01*
X71035728Y-66084709D01*
X71164709Y-65955728D01*
X71316374Y-65854389D01*
X71484896Y-65784585D01*
X71663797Y-65749000D01*
X71846203Y-65749000D01*
X72025104Y-65784585D01*
G37*
G36*
X61865104Y-65784585D02*
G01*
X62033626Y-65854389D01*
X62185291Y-65955728D01*
X62314272Y-66084709D01*
X62415611Y-66236374D01*
X62485415Y-66404896D01*
X62521000Y-66583797D01*
X62521000Y-66766203D01*
X62485415Y-66945104D01*
X62415611Y-67113626D01*
X62314272Y-67265291D01*
X62185291Y-67394272D01*
X62033626Y-67495611D01*
X61865104Y-67565415D01*
X61686203Y-67601000D01*
X61503797Y-67601000D01*
X61324896Y-67565415D01*
X61156374Y-67495611D01*
X61004709Y-67394272D01*
X60875728Y-67265291D01*
X60774389Y-67113626D01*
X60704585Y-66945104D01*
X60669000Y-66766203D01*
X60669000Y-66583797D01*
X60704585Y-66404896D01*
X60774389Y-66236374D01*
X60875728Y-66084709D01*
X61004709Y-65955728D01*
X61156374Y-65854389D01*
X61324896Y-65784585D01*
X61503797Y-65749000D01*
X61686203Y-65749000D01*
X61865104Y-65784585D01*
G37*
G36*
X74813512Y-64743927D02*
G01*
X74962812Y-64773624D01*
X75126784Y-64841544D01*
X75274354Y-64940147D01*
X75399853Y-65065646D01*
X75498456Y-65213216D01*
X75566376Y-65377188D01*
X75601000Y-65551259D01*
X75601000Y-65728741D01*
X75566376Y-65902812D01*
X75498456Y-66066784D01*
X75399853Y-66214354D01*
X75274354Y-66339853D01*
X75126784Y-66438456D01*
X74962812Y-66506376D01*
X74813512Y-66536073D01*
X74788742Y-66541000D01*
X74611258Y-66541000D01*
X74586488Y-66536073D01*
X74437188Y-66506376D01*
X74273216Y-66438456D01*
X74125646Y-66339853D01*
X74000147Y-66214354D01*
X73901544Y-66066784D01*
X73833624Y-65902812D01*
X73799000Y-65728741D01*
X73799000Y-65551259D01*
X73833624Y-65377188D01*
X73901544Y-65213216D01*
X74000147Y-65065646D01*
X74125646Y-64940147D01*
X74273216Y-64841544D01*
X74437188Y-64773624D01*
X74586488Y-64743927D01*
X74611258Y-64739000D01*
X74788742Y-64739000D01*
X74813512Y-64743927D01*
G37*
G36*
X55679591Y-65203085D02*
G01*
X55713569Y-65213393D01*
X55744890Y-65230134D01*
X55772339Y-65252661D01*
X55794866Y-65280110D01*
X55811607Y-65311431D01*
X55821915Y-65345409D01*
X55826000Y-65386890D01*
X55826000Y-65988110D01*
X55821915Y-66029591D01*
X55811607Y-66063569D01*
X55794866Y-66094890D01*
X55772339Y-66122339D01*
X55744890Y-66144866D01*
X55713569Y-66161607D01*
X55679591Y-66171915D01*
X55638110Y-66176000D01*
X54961890Y-66176000D01*
X54920409Y-66171915D01*
X54886431Y-66161607D01*
X54855110Y-66144866D01*
X54827661Y-66122339D01*
X54805134Y-66094890D01*
X54788393Y-66063569D01*
X54778085Y-66029591D01*
X54774000Y-65988110D01*
X54774000Y-65386890D01*
X54778085Y-65345409D01*
X54788393Y-65311431D01*
X54805134Y-65280110D01*
X54827661Y-65252661D01*
X54855110Y-65230134D01*
X54886431Y-65213393D01*
X54920409Y-65203085D01*
X54961890Y-65199000D01*
X55638110Y-65199000D01*
X55679591Y-65203085D01*
G37*
G36*
X59366200Y-66155400D02*
G01*
X56864200Y-66155400D01*
X56864200Y-64053400D01*
X59366200Y-64053400D01*
X59366200Y-66155400D01*
G37*
G36*
X63056560Y-62974064D02*
G01*
X63208027Y-63004193D01*
X63422045Y-63092842D01*
X63422046Y-63092843D01*
X63614654Y-63221539D01*
X63778461Y-63385346D01*
X63864258Y-63513751D01*
X63907158Y-63577955D01*
X63995807Y-63791973D01*
X64041000Y-64019174D01*
X64041000Y-64250826D01*
X63995807Y-64478027D01*
X63907158Y-64692045D01*
X63871848Y-64744890D01*
X63778461Y-64884654D01*
X63614654Y-65048461D01*
X63557540Y-65086623D01*
X63422045Y-65177158D01*
X63208027Y-65265807D01*
X63056560Y-65295936D01*
X62980827Y-65311000D01*
X62749173Y-65311000D01*
X62673440Y-65295936D01*
X62521973Y-65265807D01*
X62307955Y-65177158D01*
X62172460Y-65086623D01*
X62115346Y-65048461D01*
X61951539Y-64884654D01*
X61858152Y-64744890D01*
X61822842Y-64692045D01*
X61734193Y-64478027D01*
X61689000Y-64250826D01*
X61689000Y-64019174D01*
X61734193Y-63791973D01*
X61822842Y-63577955D01*
X61865742Y-63513751D01*
X61951539Y-63385346D01*
X62115346Y-63221539D01*
X62307954Y-63092843D01*
X62307955Y-63092842D01*
X62521973Y-63004193D01*
X62673440Y-62974064D01*
X62749173Y-62959000D01*
X62980827Y-62959000D01*
X63056560Y-62974064D01*
G37*
G36*
X44006560Y-62974064D02*
G01*
X44158027Y-63004193D01*
X44372045Y-63092842D01*
X44372046Y-63092843D01*
X44564654Y-63221539D01*
X44728461Y-63385346D01*
X44814258Y-63513751D01*
X44857158Y-63577955D01*
X44945807Y-63791973D01*
X44991000Y-64019174D01*
X44991000Y-64250826D01*
X44945807Y-64478027D01*
X44857158Y-64692045D01*
X44821848Y-64744890D01*
X44728461Y-64884654D01*
X44564654Y-65048461D01*
X44507540Y-65086623D01*
X44372045Y-65177158D01*
X44158027Y-65265807D01*
X44006560Y-65295936D01*
X43930827Y-65311000D01*
X43699173Y-65311000D01*
X43623440Y-65295936D01*
X43471973Y-65265807D01*
X43257955Y-65177158D01*
X43122460Y-65086623D01*
X43065346Y-65048461D01*
X42901539Y-64884654D01*
X42808152Y-64744890D01*
X42772842Y-64692045D01*
X42684193Y-64478027D01*
X42639000Y-64250826D01*
X42639000Y-64019174D01*
X42684193Y-63791973D01*
X42772842Y-63577955D01*
X42815742Y-63513751D01*
X42901539Y-63385346D01*
X43065346Y-63221539D01*
X43257954Y-63092843D01*
X43257955Y-63092842D01*
X43471973Y-63004193D01*
X43623440Y-62974064D01*
X43699173Y-62959000D01*
X43930827Y-62959000D01*
X44006560Y-62974064D01*
G37*
G36*
X54042091Y-63778085D02*
G01*
X54076069Y-63788393D01*
X54107390Y-63805134D01*
X54134839Y-63827661D01*
X54157366Y-63855110D01*
X54174107Y-63886431D01*
X54184415Y-63920409D01*
X54188500Y-63961890D01*
X54188500Y-64638110D01*
X54184415Y-64679591D01*
X54174107Y-64713569D01*
X54157366Y-64744890D01*
X54134839Y-64772339D01*
X54107390Y-64794866D01*
X54076069Y-64811607D01*
X54042091Y-64821915D01*
X54000610Y-64826000D01*
X53399390Y-64826000D01*
X53357909Y-64821915D01*
X53323931Y-64811607D01*
X53292610Y-64794866D01*
X53265161Y-64772339D01*
X53242634Y-64744890D01*
X53225893Y-64713569D01*
X53215585Y-64679591D01*
X53211500Y-64638110D01*
X53211500Y-63961890D01*
X53215585Y-63920409D01*
X53225893Y-63886431D01*
X53242634Y-63855110D01*
X53265161Y-63827661D01*
X53292610Y-63805134D01*
X53323931Y-63788393D01*
X53357909Y-63778085D01*
X53399390Y-63774000D01*
X54000610Y-63774000D01*
X54042091Y-63778085D01*
G37*
G36*
X52467091Y-63778085D02*
G01*
X52501069Y-63788393D01*
X52532390Y-63805134D01*
X52559839Y-63827661D01*
X52582366Y-63855110D01*
X52599107Y-63886431D01*
X52609415Y-63920409D01*
X52613500Y-63961890D01*
X52613500Y-64638110D01*
X52609415Y-64679591D01*
X52599107Y-64713569D01*
X52582366Y-64744890D01*
X52559839Y-64772339D01*
X52532390Y-64794866D01*
X52501069Y-64811607D01*
X52467091Y-64821915D01*
X52425610Y-64826000D01*
X51824390Y-64826000D01*
X51782909Y-64821915D01*
X51748931Y-64811607D01*
X51717610Y-64794866D01*
X51690161Y-64772339D01*
X51667634Y-64744890D01*
X51650893Y-64713569D01*
X51640585Y-64679591D01*
X51636500Y-64638110D01*
X51636500Y-63961890D01*
X51640585Y-63920409D01*
X51650893Y-63886431D01*
X51667634Y-63855110D01*
X51690161Y-63827661D01*
X51717610Y-63805134D01*
X51748931Y-63788393D01*
X51782909Y-63778085D01*
X51824390Y-63774000D01*
X52425610Y-63774000D01*
X52467091Y-63778085D01*
G37*
G36*
X55679591Y-63628085D02*
G01*
X55713569Y-63638393D01*
X55744890Y-63655134D01*
X55772339Y-63677661D01*
X55794866Y-63705110D01*
X55811607Y-63736431D01*
X55821915Y-63770409D01*
X55826000Y-63811890D01*
X55826000Y-64413110D01*
X55821915Y-64454591D01*
X55811607Y-64488569D01*
X55794866Y-64519890D01*
X55772339Y-64547339D01*
X55744890Y-64569866D01*
X55713569Y-64586607D01*
X55679591Y-64596915D01*
X55638110Y-64601000D01*
X54961890Y-64601000D01*
X54920409Y-64596915D01*
X54886431Y-64586607D01*
X54855110Y-64569866D01*
X54827661Y-64547339D01*
X54805134Y-64519890D01*
X54788393Y-64488569D01*
X54778085Y-64454591D01*
X54774000Y-64413110D01*
X54774000Y-63811890D01*
X54778085Y-63770409D01*
X54788393Y-63736431D01*
X54805134Y-63705110D01*
X54827661Y-63677661D01*
X54855110Y-63655134D01*
X54886431Y-63638393D01*
X54920409Y-63628085D01*
X54961890Y-63624000D01*
X55638110Y-63624000D01*
X55679591Y-63628085D01*
G37*
G36*
X75601000Y-64001000D02*
G01*
X73799000Y-64001000D01*
X73799000Y-62199000D01*
X75601000Y-62199000D01*
X75601000Y-64001000D01*
G37*
G36*
X54570295Y-61319073D02*
G01*
X54577309Y-61321201D01*
X54591077Y-61328560D01*
X54613716Y-61337937D01*
X54637749Y-61342717D01*
X54662253Y-61342717D01*
X54686286Y-61337936D01*
X54708923Y-61328560D01*
X54722691Y-61321201D01*
X54729705Y-61319073D01*
X54743140Y-61317750D01*
X55056860Y-61317750D01*
X55070295Y-61319073D01*
X55077309Y-61321201D01*
X55091077Y-61328560D01*
X55113716Y-61337937D01*
X55137749Y-61342717D01*
X55162253Y-61342717D01*
X55186286Y-61337936D01*
X55208923Y-61328560D01*
X55222691Y-61321201D01*
X55229705Y-61319073D01*
X55243140Y-61317750D01*
X55556860Y-61317750D01*
X55570295Y-61319073D01*
X55577309Y-61321201D01*
X55591077Y-61328560D01*
X55613716Y-61337937D01*
X55637749Y-61342717D01*
X55662253Y-61342717D01*
X55686286Y-61337936D01*
X55708923Y-61328560D01*
X55722691Y-61321201D01*
X55729705Y-61319073D01*
X55743140Y-61317750D01*
X56056860Y-61317750D01*
X56070295Y-61319073D01*
X56077309Y-61321201D01*
X56091077Y-61328560D01*
X56113716Y-61337937D01*
X56137749Y-61342717D01*
X56162253Y-61342717D01*
X56186286Y-61337936D01*
X56208923Y-61328560D01*
X56222691Y-61321201D01*
X56229705Y-61319073D01*
X56243140Y-61317750D01*
X56556860Y-61317750D01*
X56570295Y-61319073D01*
X56577309Y-61321201D01*
X56591077Y-61328560D01*
X56613716Y-61337937D01*
X56637749Y-61342717D01*
X56662253Y-61342717D01*
X56686286Y-61337936D01*
X56708923Y-61328560D01*
X56722691Y-61321201D01*
X56729705Y-61319073D01*
X56743140Y-61317750D01*
X57056860Y-61317750D01*
X57070295Y-61319073D01*
X57077309Y-61321201D01*
X57091077Y-61328560D01*
X57113716Y-61337937D01*
X57137749Y-61342717D01*
X57162253Y-61342717D01*
X57186286Y-61337936D01*
X57208923Y-61328560D01*
X57222691Y-61321201D01*
X57229705Y-61319073D01*
X57243140Y-61317750D01*
X57556860Y-61317750D01*
X57570295Y-61319073D01*
X57577309Y-61321201D01*
X57591077Y-61328560D01*
X57613716Y-61337937D01*
X57637749Y-61342717D01*
X57662253Y-61342717D01*
X57686286Y-61337936D01*
X57708923Y-61328560D01*
X57722691Y-61321201D01*
X57729705Y-61319073D01*
X57743140Y-61317750D01*
X58056860Y-61317750D01*
X58070295Y-61319073D01*
X58077309Y-61321201D01*
X58091077Y-61328560D01*
X58113716Y-61337937D01*
X58137749Y-61342717D01*
X58162253Y-61342717D01*
X58186286Y-61337936D01*
X58208923Y-61328560D01*
X58222691Y-61321201D01*
X58229705Y-61319073D01*
X58243140Y-61317750D01*
X58556860Y-61317750D01*
X58570295Y-61319073D01*
X58577309Y-61321201D01*
X58591077Y-61328560D01*
X58613716Y-61337937D01*
X58637749Y-61342717D01*
X58662253Y-61342717D01*
X58686286Y-61337936D01*
X58708923Y-61328560D01*
X58722691Y-61321201D01*
X58729705Y-61319073D01*
X58743140Y-61317750D01*
X59056860Y-61317750D01*
X59070295Y-61319073D01*
X59077309Y-61321201D01*
X59091077Y-61328560D01*
X59113716Y-61337937D01*
X59137749Y-61342717D01*
X59162253Y-61342717D01*
X59186286Y-61337936D01*
X59208923Y-61328560D01*
X59222691Y-61321201D01*
X59229705Y-61319073D01*
X59243140Y-61317750D01*
X59556860Y-61317750D01*
X59570295Y-61319073D01*
X59577309Y-61321201D01*
X59591077Y-61328560D01*
X59613716Y-61337937D01*
X59637749Y-61342717D01*
X59662253Y-61342717D01*
X59686286Y-61337936D01*
X59708923Y-61328560D01*
X59722691Y-61321201D01*
X59729705Y-61319073D01*
X59743140Y-61317750D01*
X60056860Y-61317750D01*
X60070295Y-61319073D01*
X60077310Y-61321201D01*
X60083776Y-61324658D01*
X60089442Y-61329308D01*
X60094092Y-61334974D01*
X60097549Y-61341440D01*
X60099677Y-61348455D01*
X60101000Y-61361890D01*
X60101000Y-62850610D01*
X60099677Y-62864045D01*
X60097549Y-62871060D01*
X60094092Y-62877526D01*
X60089442Y-62883192D01*
X60083776Y-62887842D01*
X60077310Y-62891299D01*
X60070295Y-62893427D01*
X60056860Y-62894750D01*
X59743140Y-62894750D01*
X59729705Y-62893427D01*
X59722691Y-62891299D01*
X59708923Y-62883940D01*
X59686284Y-62874563D01*
X59662251Y-62869783D01*
X59637747Y-62869783D01*
X59613714Y-62874564D01*
X59591077Y-62883940D01*
X59577309Y-62891299D01*
X59570295Y-62893427D01*
X59556860Y-62894750D01*
X59243140Y-62894750D01*
X59229705Y-62893427D01*
X59222691Y-62891299D01*
X59208923Y-62883940D01*
X59186284Y-62874563D01*
X59162251Y-62869783D01*
X59137747Y-62869783D01*
X59113714Y-62874564D01*
X59091077Y-62883940D01*
X59077309Y-62891299D01*
X59070295Y-62893427D01*
X59056860Y-62894750D01*
X58743140Y-62894750D01*
X58729705Y-62893427D01*
X58722691Y-62891299D01*
X58708923Y-62883940D01*
X58686284Y-62874563D01*
X58662251Y-62869783D01*
X58637747Y-62869783D01*
X58613714Y-62874564D01*
X58591077Y-62883940D01*
X58577309Y-62891299D01*
X58570295Y-62893427D01*
X58556860Y-62894750D01*
X58243140Y-62894750D01*
X58229705Y-62893427D01*
X58222691Y-62891299D01*
X58208923Y-62883940D01*
X58186284Y-62874563D01*
X58162251Y-62869783D01*
X58137747Y-62869783D01*
X58113714Y-62874564D01*
X58091077Y-62883940D01*
X58077309Y-62891299D01*
X58070295Y-62893427D01*
X58056860Y-62894750D01*
X57743140Y-62894750D01*
X57729705Y-62893427D01*
X57722691Y-62891299D01*
X57708923Y-62883940D01*
X57686284Y-62874563D01*
X57662251Y-62869783D01*
X57637747Y-62869783D01*
X57613714Y-62874564D01*
X57591077Y-62883940D01*
X57577309Y-62891299D01*
X57570295Y-62893427D01*
X57556860Y-62894750D01*
X57243140Y-62894750D01*
X57229705Y-62893427D01*
X57222691Y-62891299D01*
X57208923Y-62883940D01*
X57186284Y-62874563D01*
X57162251Y-62869783D01*
X57137747Y-62869783D01*
X57113714Y-62874564D01*
X57091077Y-62883940D01*
X57077309Y-62891299D01*
X57070295Y-62893427D01*
X57056860Y-62894750D01*
X56743140Y-62894750D01*
X56729705Y-62893427D01*
X56722691Y-62891299D01*
X56708923Y-62883940D01*
X56686284Y-62874563D01*
X56662251Y-62869783D01*
X56637747Y-62869783D01*
X56613714Y-62874564D01*
X56591077Y-62883940D01*
X56577309Y-62891299D01*
X56570295Y-62893427D01*
X56556860Y-62894750D01*
X56243140Y-62894750D01*
X56229705Y-62893427D01*
X56222691Y-62891299D01*
X56208923Y-62883940D01*
X56186284Y-62874563D01*
X56162251Y-62869783D01*
X56137747Y-62869783D01*
X56113714Y-62874564D01*
X56091077Y-62883940D01*
X56077309Y-62891299D01*
X56070295Y-62893427D01*
X56056860Y-62894750D01*
X55743140Y-62894750D01*
X55729705Y-62893427D01*
X55722691Y-62891299D01*
X55708923Y-62883940D01*
X55686284Y-62874563D01*
X55662251Y-62869783D01*
X55637747Y-62869783D01*
X55613714Y-62874564D01*
X55591077Y-62883940D01*
X55577309Y-62891299D01*
X55570295Y-62893427D01*
X55556860Y-62894750D01*
X55243140Y-62894750D01*
X55229705Y-62893427D01*
X55222691Y-62891299D01*
X55208923Y-62883940D01*
X55186284Y-62874563D01*
X55162251Y-62869783D01*
X55137747Y-62869783D01*
X55113714Y-62874564D01*
X55091077Y-62883940D01*
X55077309Y-62891299D01*
X55070295Y-62893427D01*
X55056860Y-62894750D01*
X54743140Y-62894750D01*
X54729705Y-62893427D01*
X54722691Y-62891299D01*
X54708923Y-62883940D01*
X54686284Y-62874563D01*
X54662251Y-62869783D01*
X54637747Y-62869783D01*
X54613714Y-62874564D01*
X54591077Y-62883940D01*
X54577309Y-62891299D01*
X54570295Y-62893427D01*
X54556860Y-62894750D01*
X54243140Y-62894750D01*
X54229705Y-62893427D01*
X54222690Y-62891299D01*
X54216224Y-62887842D01*
X54210558Y-62883192D01*
X54205908Y-62877526D01*
X54202451Y-62871060D01*
X54200323Y-62864045D01*
X54199000Y-62850610D01*
X54199000Y-61361890D01*
X54200323Y-61348455D01*
X54202451Y-61341440D01*
X54205908Y-61334974D01*
X54210558Y-61329308D01*
X54216224Y-61324658D01*
X54222690Y-61321201D01*
X54229705Y-61319073D01*
X54243140Y-61317750D01*
X54556860Y-61317750D01*
X54570295Y-61319073D01*
G37*
G36*
X69386801Y-60430134D02*
G01*
X69558027Y-60464193D01*
X69772045Y-60552842D01*
X69772046Y-60552843D01*
X69964654Y-60681539D01*
X70128461Y-60845346D01*
X70214258Y-60973751D01*
X70257158Y-61037955D01*
X70345807Y-61251973D01*
X70367671Y-61361890D01*
X70378882Y-61418250D01*
X70391000Y-61479174D01*
X70391000Y-61710826D01*
X70345807Y-61938027D01*
X70257158Y-62152045D01*
X70214258Y-62216249D01*
X70128461Y-62344654D01*
X69964654Y-62508461D01*
X69836249Y-62594258D01*
X69772045Y-62637158D01*
X69558027Y-62725807D01*
X69406560Y-62755936D01*
X69330827Y-62771000D01*
X69099173Y-62771000D01*
X69023440Y-62755936D01*
X68871973Y-62725807D01*
X68657955Y-62637158D01*
X68593751Y-62594258D01*
X68465346Y-62508461D01*
X68301539Y-62344654D01*
X68215742Y-62216249D01*
X68172842Y-62152045D01*
X68084193Y-61938027D01*
X68039000Y-61710826D01*
X68039000Y-61479174D01*
X68051119Y-61418250D01*
X68062329Y-61361890D01*
X68084193Y-61251973D01*
X68172842Y-61037955D01*
X68215742Y-60973751D01*
X68301539Y-60845346D01*
X68465346Y-60681539D01*
X68657954Y-60552843D01*
X68657955Y-60552842D01*
X68871973Y-60464193D01*
X69043199Y-60430134D01*
X69099173Y-60419000D01*
X69330827Y-60419000D01*
X69386801Y-60430134D01*
G37*
G36*
X50336801Y-60430134D02*
G01*
X50508027Y-60464193D01*
X50722045Y-60552842D01*
X50722046Y-60552843D01*
X50914654Y-60681539D01*
X51078461Y-60845346D01*
X51164258Y-60973751D01*
X51207158Y-61037955D01*
X51295807Y-61251973D01*
X51317671Y-61361890D01*
X51328882Y-61418250D01*
X51341000Y-61479174D01*
X51341000Y-61710826D01*
X51295807Y-61938027D01*
X51207158Y-62152045D01*
X51164258Y-62216249D01*
X51078461Y-62344654D01*
X50914654Y-62508461D01*
X50786249Y-62594258D01*
X50722045Y-62637158D01*
X50508027Y-62725807D01*
X50356560Y-62755936D01*
X50280827Y-62771000D01*
X50049173Y-62771000D01*
X49973440Y-62755936D01*
X49821973Y-62725807D01*
X49607955Y-62637158D01*
X49543751Y-62594258D01*
X49415346Y-62508461D01*
X49251539Y-62344654D01*
X49165742Y-62216249D01*
X49122842Y-62152045D01*
X49034193Y-61938027D01*
X48989000Y-61710826D01*
X48989000Y-61479174D01*
X49001119Y-61418250D01*
X49012329Y-61361890D01*
X49034193Y-61251973D01*
X49122842Y-61037955D01*
X49165742Y-60973751D01*
X49251539Y-60845346D01*
X49415346Y-60681539D01*
X49607954Y-60552843D01*
X49607955Y-60552842D01*
X49821973Y-60464193D01*
X49993199Y-60430134D01*
X50049173Y-60419000D01*
X50280827Y-60419000D01*
X50336801Y-60430134D01*
G37*
G36*
X65279591Y-60403085D02*
G01*
X65313569Y-60413393D01*
X65344890Y-60430134D01*
X65372339Y-60452661D01*
X65394866Y-60480110D01*
X65411607Y-60511431D01*
X65421915Y-60545409D01*
X65426000Y-60586890D01*
X65426000Y-61188110D01*
X65421915Y-61229591D01*
X65411607Y-61263569D01*
X65394866Y-61294890D01*
X65372339Y-61322339D01*
X65344890Y-61344866D01*
X65313569Y-61361607D01*
X65279591Y-61371915D01*
X65238110Y-61376000D01*
X64561890Y-61376000D01*
X64520409Y-61371915D01*
X64486431Y-61361607D01*
X64455110Y-61344866D01*
X64427661Y-61322339D01*
X64405134Y-61294890D01*
X64388393Y-61263569D01*
X64378085Y-61229591D01*
X64374000Y-61188110D01*
X64374000Y-60586890D01*
X64378085Y-60545409D01*
X64388393Y-60511431D01*
X64405134Y-60480110D01*
X64427661Y-60452661D01*
X64455110Y-60430134D01*
X64486431Y-60413393D01*
X64520409Y-60403085D01*
X64561890Y-60399000D01*
X65238110Y-60399000D01*
X65279591Y-60403085D01*
G37*
G36*
X63679591Y-60403085D02*
G01*
X63713569Y-60413393D01*
X63744890Y-60430134D01*
X63772339Y-60452661D01*
X63794866Y-60480110D01*
X63811607Y-60511431D01*
X63821915Y-60545409D01*
X63826000Y-60586890D01*
X63826000Y-61188110D01*
X63821915Y-61229591D01*
X63811607Y-61263569D01*
X63794866Y-61294890D01*
X63772339Y-61322339D01*
X63744890Y-61344866D01*
X63713569Y-61361607D01*
X63679591Y-61371915D01*
X63638110Y-61376000D01*
X62961890Y-61376000D01*
X62920409Y-61371915D01*
X62886431Y-61361607D01*
X62855110Y-61344866D01*
X62827661Y-61322339D01*
X62805134Y-61294890D01*
X62788393Y-61263569D01*
X62778085Y-61229591D01*
X62774000Y-61188110D01*
X62774000Y-60586890D01*
X62778085Y-60545409D01*
X62788393Y-60511431D01*
X62805134Y-60480110D01*
X62827661Y-60452661D01*
X62855110Y-60430134D01*
X62886431Y-60413393D01*
X62920409Y-60403085D01*
X62961890Y-60399000D01*
X63638110Y-60399000D01*
X63679591Y-60403085D01*
G37*
G36*
X74728200Y-61351000D02*
G01*
X73826200Y-61351000D01*
X73826200Y-60249000D01*
X74728200Y-60249000D01*
X74728200Y-61351000D01*
G37*
G36*
X72518200Y-61351000D02*
G01*
X71616200Y-61351000D01*
X71616200Y-60249000D01*
X72518200Y-60249000D01*
X72518200Y-61351000D01*
G37*
G36*
X53745295Y-54994073D02*
G01*
X53752310Y-54996201D01*
X53758776Y-54999658D01*
X53764442Y-55004308D01*
X53769092Y-55009974D01*
X53772549Y-55016440D01*
X53774677Y-55023455D01*
X53776000Y-55036890D01*
X53776000Y-55350610D01*
X53774677Y-55364045D01*
X53772549Y-55371059D01*
X53765190Y-55384827D01*
X53755813Y-55407466D01*
X53751033Y-55431499D01*
X53751033Y-55456003D01*
X53755814Y-55480036D01*
X53765190Y-55502673D01*
X53772549Y-55516441D01*
X53774677Y-55523455D01*
X53776000Y-55536890D01*
X53776000Y-55850610D01*
X53774677Y-55864045D01*
X53772549Y-55871059D01*
X53765190Y-55884827D01*
X53755813Y-55907466D01*
X53751033Y-55931499D01*
X53751033Y-55956003D01*
X53755814Y-55980036D01*
X53765190Y-56002673D01*
X53772549Y-56016441D01*
X53774677Y-56023455D01*
X53776000Y-56036890D01*
X53776000Y-56350610D01*
X53774677Y-56364045D01*
X53772549Y-56371059D01*
X53765190Y-56384827D01*
X53755813Y-56407466D01*
X53751033Y-56431499D01*
X53751033Y-56456003D01*
X53755814Y-56480036D01*
X53765190Y-56502673D01*
X53772549Y-56516441D01*
X53774677Y-56523455D01*
X53776000Y-56536890D01*
X53776000Y-56850610D01*
X53774677Y-56864045D01*
X53772549Y-56871059D01*
X53765190Y-56884827D01*
X53755813Y-56907466D01*
X53751033Y-56931499D01*
X53751033Y-56956003D01*
X53755814Y-56980036D01*
X53765190Y-57002673D01*
X53772549Y-57016441D01*
X53774677Y-57023455D01*
X53776000Y-57036890D01*
X53776000Y-57350610D01*
X53774677Y-57364045D01*
X53772549Y-57371059D01*
X53765190Y-57384827D01*
X53755813Y-57407466D01*
X53751033Y-57431499D01*
X53751033Y-57456003D01*
X53755814Y-57480036D01*
X53765190Y-57502673D01*
X53772549Y-57516441D01*
X53774677Y-57523455D01*
X53776000Y-57536890D01*
X53776000Y-57850610D01*
X53774677Y-57864045D01*
X53772549Y-57871059D01*
X53765190Y-57884827D01*
X53755813Y-57907466D01*
X53751033Y-57931499D01*
X53751033Y-57956003D01*
X53755814Y-57980036D01*
X53765190Y-58002673D01*
X53772549Y-58016441D01*
X53774677Y-58023455D01*
X53776000Y-58036890D01*
X53776000Y-58350610D01*
X53774677Y-58364045D01*
X53772549Y-58371059D01*
X53765190Y-58384827D01*
X53755813Y-58407466D01*
X53751033Y-58431499D01*
X53751033Y-58456003D01*
X53755814Y-58480036D01*
X53765190Y-58502673D01*
X53772549Y-58516441D01*
X53774677Y-58523455D01*
X53776000Y-58536890D01*
X53776000Y-58850610D01*
X53774677Y-58864045D01*
X53772549Y-58871059D01*
X53765190Y-58884827D01*
X53755813Y-58907466D01*
X53751033Y-58931499D01*
X53751033Y-58956003D01*
X53755814Y-58980036D01*
X53765190Y-59002673D01*
X53772549Y-59016441D01*
X53774677Y-59023455D01*
X53776000Y-59036890D01*
X53776000Y-59350610D01*
X53774677Y-59364045D01*
X53772549Y-59371059D01*
X53765190Y-59384827D01*
X53755813Y-59407466D01*
X53751033Y-59431499D01*
X53751033Y-59456003D01*
X53755814Y-59480036D01*
X53765190Y-59502673D01*
X53772549Y-59516441D01*
X53774677Y-59523455D01*
X53776000Y-59536890D01*
X53776000Y-59850610D01*
X53774677Y-59864045D01*
X53772549Y-59871059D01*
X53765190Y-59884827D01*
X53755813Y-59907466D01*
X53751033Y-59931499D01*
X53751033Y-59956003D01*
X53755814Y-59980036D01*
X53765190Y-60002673D01*
X53772549Y-60016441D01*
X53774677Y-60023455D01*
X53776000Y-60036890D01*
X53776000Y-60350610D01*
X53774677Y-60364045D01*
X53772549Y-60371059D01*
X53765190Y-60384827D01*
X53755813Y-60407466D01*
X53751033Y-60431499D01*
X53751033Y-60456003D01*
X53755814Y-60480036D01*
X53765190Y-60502673D01*
X53772549Y-60516441D01*
X53774677Y-60523455D01*
X53776000Y-60536890D01*
X53776000Y-60850610D01*
X53774677Y-60864045D01*
X53772549Y-60871060D01*
X53769092Y-60877526D01*
X53764442Y-60883192D01*
X53758776Y-60887842D01*
X53752310Y-60891299D01*
X53745295Y-60893427D01*
X53731860Y-60894750D01*
X52243140Y-60894750D01*
X52229705Y-60893427D01*
X52222690Y-60891299D01*
X52216224Y-60887842D01*
X52210558Y-60883192D01*
X52205908Y-60877526D01*
X52202451Y-60871060D01*
X52200323Y-60864045D01*
X52199000Y-60850610D01*
X52199000Y-60536890D01*
X52200323Y-60523455D01*
X52202451Y-60516441D01*
X52209810Y-60502673D01*
X52219187Y-60480034D01*
X52223967Y-60456001D01*
X52223967Y-60431497D01*
X52219186Y-60407464D01*
X52209810Y-60384827D01*
X52202451Y-60371059D01*
X52200323Y-60364045D01*
X52199000Y-60350610D01*
X52199000Y-60036890D01*
X52200323Y-60023455D01*
X52202451Y-60016441D01*
X52209810Y-60002673D01*
X52219187Y-59980034D01*
X52223967Y-59956001D01*
X52223967Y-59931497D01*
X52219186Y-59907464D01*
X52209810Y-59884827D01*
X52202451Y-59871059D01*
X52200323Y-59864045D01*
X52199000Y-59850610D01*
X52199000Y-59536890D01*
X52200323Y-59523455D01*
X52202451Y-59516441D01*
X52209810Y-59502673D01*
X52219187Y-59480034D01*
X52223967Y-59456001D01*
X52223967Y-59431497D01*
X52219186Y-59407464D01*
X52209810Y-59384827D01*
X52202451Y-59371059D01*
X52200323Y-59364045D01*
X52199000Y-59350610D01*
X52199000Y-59036890D01*
X52200323Y-59023455D01*
X52202451Y-59016441D01*
X52209810Y-59002673D01*
X52219187Y-58980034D01*
X52223967Y-58956001D01*
X52223967Y-58931497D01*
X52219186Y-58907464D01*
X52209810Y-58884827D01*
X52202451Y-58871059D01*
X52200323Y-58864045D01*
X52199000Y-58850610D01*
X52199000Y-58536890D01*
X52200323Y-58523455D01*
X52202451Y-58516441D01*
X52209810Y-58502673D01*
X52219187Y-58480034D01*
X52223967Y-58456001D01*
X52223967Y-58431497D01*
X52219186Y-58407464D01*
X52209810Y-58384827D01*
X52202451Y-58371059D01*
X52200323Y-58364045D01*
X52199000Y-58350610D01*
X52199000Y-58036890D01*
X52200323Y-58023455D01*
X52202451Y-58016441D01*
X52209810Y-58002673D01*
X52219187Y-57980034D01*
X52223967Y-57956001D01*
X52223967Y-57931497D01*
X52219186Y-57907464D01*
X52209810Y-57884827D01*
X52202451Y-57871059D01*
X52200323Y-57864045D01*
X52199000Y-57850610D01*
X52199000Y-57536890D01*
X52200323Y-57523455D01*
X52202451Y-57516441D01*
X52209810Y-57502673D01*
X52219187Y-57480034D01*
X52223967Y-57456001D01*
X52223967Y-57431497D01*
X52219186Y-57407464D01*
X52209810Y-57384827D01*
X52202451Y-57371059D01*
X52200323Y-57364045D01*
X52199000Y-57350610D01*
X52199000Y-57036890D01*
X52200323Y-57023455D01*
X52202451Y-57016441D01*
X52209810Y-57002673D01*
X52219187Y-56980034D01*
X52223967Y-56956001D01*
X52223967Y-56931497D01*
X52219186Y-56907464D01*
X52209810Y-56884827D01*
X52202451Y-56871059D01*
X52200323Y-56864045D01*
X52199000Y-56850610D01*
X52199000Y-56536890D01*
X52200323Y-56523455D01*
X52202451Y-56516441D01*
X52209810Y-56502673D01*
X52219187Y-56480034D01*
X52223967Y-56456001D01*
X52223967Y-56431497D01*
X52219186Y-56407464D01*
X52209810Y-56384827D01*
X52202451Y-56371059D01*
X52200323Y-56364045D01*
X52199000Y-56350610D01*
X52199000Y-56036890D01*
X52200323Y-56023455D01*
X52202451Y-56016441D01*
X52209810Y-56002673D01*
X52219187Y-55980034D01*
X52223967Y-55956001D01*
X52223967Y-55931497D01*
X52219186Y-55907464D01*
X52209810Y-55884827D01*
X52202451Y-55871059D01*
X52200323Y-55864045D01*
X52199000Y-55850610D01*
X52199000Y-55536890D01*
X52200323Y-55523455D01*
X52202451Y-55516441D01*
X52209810Y-55502673D01*
X52219187Y-55480034D01*
X52223967Y-55456001D01*
X52223967Y-55431497D01*
X52219186Y-55407464D01*
X52209810Y-55384827D01*
X52202451Y-55371059D01*
X52200323Y-55364045D01*
X52199000Y-55350610D01*
X52199000Y-55036890D01*
X52200323Y-55023455D01*
X52202451Y-55016440D01*
X52205908Y-55009974D01*
X52210558Y-55004308D01*
X52216224Y-54999658D01*
X52222690Y-54996201D01*
X52229705Y-54994073D01*
X52243140Y-54992750D01*
X53731860Y-54992750D01*
X53745295Y-54994073D01*
G37*
G36*
X62070295Y-54994073D02*
G01*
X62077310Y-54996201D01*
X62083776Y-54999658D01*
X62089442Y-55004308D01*
X62094092Y-55009974D01*
X62097549Y-55016440D01*
X62099677Y-55023455D01*
X62101000Y-55036890D01*
X62101000Y-55350610D01*
X62099677Y-55364045D01*
X62097549Y-55371059D01*
X62090190Y-55384827D01*
X62080813Y-55407466D01*
X62076033Y-55431499D01*
X62076033Y-55456003D01*
X62080814Y-55480036D01*
X62090190Y-55502673D01*
X62097549Y-55516441D01*
X62099677Y-55523455D01*
X62101000Y-55536890D01*
X62101000Y-55850610D01*
X62099677Y-55864045D01*
X62097549Y-55871059D01*
X62090190Y-55884827D01*
X62080813Y-55907466D01*
X62076033Y-55931499D01*
X62076033Y-55956003D01*
X62080814Y-55980036D01*
X62090190Y-56002673D01*
X62097549Y-56016441D01*
X62099677Y-56023455D01*
X62101000Y-56036890D01*
X62101000Y-56350610D01*
X62099677Y-56364045D01*
X62097549Y-56371059D01*
X62090190Y-56384827D01*
X62080813Y-56407466D01*
X62076033Y-56431499D01*
X62076033Y-56456003D01*
X62080814Y-56480036D01*
X62090190Y-56502673D01*
X62097549Y-56516441D01*
X62099677Y-56523455D01*
X62101000Y-56536890D01*
X62101000Y-56850610D01*
X62099677Y-56864045D01*
X62097549Y-56871059D01*
X62090190Y-56884827D01*
X62080813Y-56907466D01*
X62076033Y-56931499D01*
X62076033Y-56956003D01*
X62080814Y-56980036D01*
X62090190Y-57002673D01*
X62097549Y-57016441D01*
X62099677Y-57023455D01*
X62101000Y-57036890D01*
X62101000Y-57350610D01*
X62099677Y-57364045D01*
X62097549Y-57371059D01*
X62090190Y-57384827D01*
X62080813Y-57407466D01*
X62076033Y-57431499D01*
X62076033Y-57456003D01*
X62080814Y-57480036D01*
X62090190Y-57502673D01*
X62097549Y-57516441D01*
X62099677Y-57523455D01*
X62101000Y-57536890D01*
X62101000Y-57850610D01*
X62099677Y-57864045D01*
X62097549Y-57871059D01*
X62090190Y-57884827D01*
X62080813Y-57907466D01*
X62076033Y-57931499D01*
X62076033Y-57956003D01*
X62080814Y-57980036D01*
X62090190Y-58002673D01*
X62097549Y-58016441D01*
X62099677Y-58023455D01*
X62101000Y-58036890D01*
X62101000Y-58350610D01*
X62099677Y-58364045D01*
X62097549Y-58371059D01*
X62090190Y-58384827D01*
X62080813Y-58407466D01*
X62076033Y-58431499D01*
X62076033Y-58456003D01*
X62080814Y-58480036D01*
X62090190Y-58502673D01*
X62097549Y-58516441D01*
X62099677Y-58523455D01*
X62101000Y-58536890D01*
X62101000Y-58850610D01*
X62099677Y-58864045D01*
X62097549Y-58871059D01*
X62090190Y-58884827D01*
X62080813Y-58907466D01*
X62076033Y-58931499D01*
X62076033Y-58956003D01*
X62080814Y-58980036D01*
X62090190Y-59002673D01*
X62097549Y-59016441D01*
X62099677Y-59023455D01*
X62101000Y-59036890D01*
X62101000Y-59350610D01*
X62099677Y-59364045D01*
X62097549Y-59371059D01*
X62090190Y-59384827D01*
X62080813Y-59407466D01*
X62076033Y-59431499D01*
X62076033Y-59456003D01*
X62080814Y-59480036D01*
X62090190Y-59502673D01*
X62097549Y-59516441D01*
X62099677Y-59523455D01*
X62101000Y-59536890D01*
X62101000Y-59850610D01*
X62099677Y-59864045D01*
X62097549Y-59871059D01*
X62090190Y-59884827D01*
X62080813Y-59907466D01*
X62076033Y-59931499D01*
X62076033Y-59956003D01*
X62080814Y-59980036D01*
X62090190Y-60002673D01*
X62097549Y-60016441D01*
X62099677Y-60023455D01*
X62101000Y-60036890D01*
X62101000Y-60350610D01*
X62099677Y-60364045D01*
X62097549Y-60371059D01*
X62090190Y-60384827D01*
X62080813Y-60407466D01*
X62076033Y-60431499D01*
X62076033Y-60456003D01*
X62080814Y-60480036D01*
X62090190Y-60502673D01*
X62097549Y-60516441D01*
X62099677Y-60523455D01*
X62101000Y-60536890D01*
X62101000Y-60850610D01*
X62099677Y-60864045D01*
X62097549Y-60871060D01*
X62094092Y-60877526D01*
X62089442Y-60883192D01*
X62083776Y-60887842D01*
X62077310Y-60891299D01*
X62070295Y-60893427D01*
X62056860Y-60894750D01*
X60568140Y-60894750D01*
X60554705Y-60893427D01*
X60547690Y-60891299D01*
X60541224Y-60887842D01*
X60535558Y-60883192D01*
X60530908Y-60877526D01*
X60527451Y-60871060D01*
X60525323Y-60864045D01*
X60524000Y-60850610D01*
X60524000Y-60536890D01*
X60525323Y-60523455D01*
X60527451Y-60516441D01*
X60534810Y-60502673D01*
X60544187Y-60480034D01*
X60548967Y-60456001D01*
X60548967Y-60431497D01*
X60544186Y-60407464D01*
X60534810Y-60384827D01*
X60527451Y-60371059D01*
X60525323Y-60364045D01*
X60524000Y-60350610D01*
X60524000Y-60036890D01*
X60525323Y-60023455D01*
X60527451Y-60016441D01*
X60534810Y-60002673D01*
X60544187Y-59980034D01*
X60548967Y-59956001D01*
X60548967Y-59931497D01*
X60544186Y-59907464D01*
X60534810Y-59884827D01*
X60527451Y-59871059D01*
X60525323Y-59864045D01*
X60524000Y-59850610D01*
X60524000Y-59536890D01*
X60525323Y-59523455D01*
X60527451Y-59516441D01*
X60534810Y-59502673D01*
X60544187Y-59480034D01*
X60548967Y-59456001D01*
X60548967Y-59431497D01*
X60544186Y-59407464D01*
X60534810Y-59384827D01*
X60527451Y-59371059D01*
X60525323Y-59364045D01*
X60524000Y-59350610D01*
X60524000Y-59036890D01*
X60525323Y-59023455D01*
X60527451Y-59016441D01*
X60534810Y-59002673D01*
X60544187Y-58980034D01*
X60548967Y-58956001D01*
X60548967Y-58931497D01*
X60544186Y-58907464D01*
X60534810Y-58884827D01*
X60527451Y-58871059D01*
X60525323Y-58864045D01*
X60524000Y-58850610D01*
X60524000Y-58536890D01*
X60525323Y-58523455D01*
X60527451Y-58516441D01*
X60534810Y-58502673D01*
X60544187Y-58480034D01*
X60548967Y-58456001D01*
X60548967Y-58431497D01*
X60544186Y-58407464D01*
X60534810Y-58384827D01*
X60527451Y-58371059D01*
X60525323Y-58364045D01*
X60524000Y-58350610D01*
X60524000Y-58036890D01*
X60525323Y-58023455D01*
X60527451Y-58016441D01*
X60534810Y-58002673D01*
X60544187Y-57980034D01*
X60548967Y-57956001D01*
X60548967Y-57931497D01*
X60544186Y-57907464D01*
X60534810Y-57884827D01*
X60527451Y-57871059D01*
X60525323Y-57864045D01*
X60524000Y-57850610D01*
X60524000Y-57536890D01*
X60525323Y-57523455D01*
X60527451Y-57516441D01*
X60534810Y-57502673D01*
X60544187Y-57480034D01*
X60548967Y-57456001D01*
X60548967Y-57431497D01*
X60544186Y-57407464D01*
X60534810Y-57384827D01*
X60527451Y-57371059D01*
X60525323Y-57364045D01*
X60524000Y-57350610D01*
X60524000Y-57036890D01*
X60525323Y-57023455D01*
X60527451Y-57016441D01*
X60534810Y-57002673D01*
X60544187Y-56980034D01*
X60548967Y-56956001D01*
X60548967Y-56931497D01*
X60544186Y-56907464D01*
X60534810Y-56884827D01*
X60527451Y-56871059D01*
X60525323Y-56864045D01*
X60524000Y-56850610D01*
X60524000Y-56536890D01*
X60525323Y-56523455D01*
X60527451Y-56516441D01*
X60534810Y-56502673D01*
X60544187Y-56480034D01*
X60548967Y-56456001D01*
X60548967Y-56431497D01*
X60544186Y-56407464D01*
X60534810Y-56384827D01*
X60527451Y-56371059D01*
X60525323Y-56364045D01*
X60524000Y-56350610D01*
X60524000Y-56036890D01*
X60525323Y-56023455D01*
X60527451Y-56016441D01*
X60534810Y-56002673D01*
X60544187Y-55980034D01*
X60548967Y-55956001D01*
X60548967Y-55931497D01*
X60544186Y-55907464D01*
X60534810Y-55884827D01*
X60527451Y-55871059D01*
X60525323Y-55864045D01*
X60524000Y-55850610D01*
X60524000Y-55536890D01*
X60525323Y-55523455D01*
X60527451Y-55516441D01*
X60534810Y-55502673D01*
X60544187Y-55480034D01*
X60548967Y-55456001D01*
X60548967Y-55431497D01*
X60544186Y-55407464D01*
X60534810Y-55384827D01*
X60527451Y-55371059D01*
X60525323Y-55364045D01*
X60524000Y-55350610D01*
X60524000Y-55036890D01*
X60525323Y-55023455D01*
X60527451Y-55016440D01*
X60530908Y-55009974D01*
X60535558Y-55004308D01*
X60541224Y-54999658D01*
X60547690Y-54996201D01*
X60554705Y-54994073D01*
X60568140Y-54992750D01*
X62056860Y-54992750D01*
X62070295Y-54994073D01*
G37*
G36*
X40601000Y-60601000D02*
G01*
X38799000Y-60601000D01*
X38799000Y-58799000D01*
X40601000Y-58799000D01*
X40601000Y-60601000D01*
G37*
G36*
X72218200Y-59801000D02*
G01*
X70616200Y-59801000D01*
X70616200Y-58999000D01*
X72218200Y-58999000D01*
X72218200Y-59801000D01*
G37*
G36*
X65279591Y-58828085D02*
G01*
X65313569Y-58838393D01*
X65344890Y-58855134D01*
X65372339Y-58877661D01*
X65394866Y-58905110D01*
X65411607Y-58936431D01*
X65421915Y-58970409D01*
X65426000Y-59011890D01*
X65426000Y-59613110D01*
X65421915Y-59654591D01*
X65411607Y-59688569D01*
X65394866Y-59719890D01*
X65372339Y-59747339D01*
X65344890Y-59769866D01*
X65313569Y-59786607D01*
X65279591Y-59796915D01*
X65238110Y-59801000D01*
X64561890Y-59801000D01*
X64520409Y-59796915D01*
X64486431Y-59786607D01*
X64455110Y-59769866D01*
X64427661Y-59747339D01*
X64405134Y-59719890D01*
X64388393Y-59688569D01*
X64378085Y-59654591D01*
X64374000Y-59613110D01*
X64374000Y-59011890D01*
X64378085Y-58970409D01*
X64388393Y-58936431D01*
X64405134Y-58905110D01*
X64427661Y-58877661D01*
X64455110Y-58855134D01*
X64486431Y-58838393D01*
X64520409Y-58828085D01*
X64561890Y-58824000D01*
X65238110Y-58824000D01*
X65279591Y-58828085D01*
G37*
G36*
X63679591Y-58828085D02*
G01*
X63713569Y-58838393D01*
X63744890Y-58855134D01*
X63772339Y-58877661D01*
X63794866Y-58905110D01*
X63811607Y-58936431D01*
X63821915Y-58970409D01*
X63826000Y-59011890D01*
X63826000Y-59613110D01*
X63821915Y-59654591D01*
X63811607Y-59688569D01*
X63794866Y-59719890D01*
X63772339Y-59747339D01*
X63744890Y-59769866D01*
X63713569Y-59786607D01*
X63679591Y-59796915D01*
X63638110Y-59801000D01*
X62961890Y-59801000D01*
X62920409Y-59796915D01*
X62886431Y-59786607D01*
X62855110Y-59769866D01*
X62827661Y-59747339D01*
X62805134Y-59719890D01*
X62788393Y-59688569D01*
X62778085Y-59654591D01*
X62774000Y-59613110D01*
X62774000Y-59011890D01*
X62778085Y-58970409D01*
X62788393Y-58936431D01*
X62805134Y-58905110D01*
X62827661Y-58877661D01*
X62855110Y-58855134D01*
X62886431Y-58838393D01*
X62920409Y-58828085D01*
X62961890Y-58824000D01*
X63638110Y-58824000D01*
X63679591Y-58828085D01*
G37*
G36*
X43079591Y-58803085D02*
G01*
X43113569Y-58813393D01*
X43144890Y-58830134D01*
X43172339Y-58852661D01*
X43194866Y-58880110D01*
X43211607Y-58911431D01*
X43221915Y-58945409D01*
X43226000Y-58986890D01*
X43226000Y-59588110D01*
X43221915Y-59629591D01*
X43211607Y-59663569D01*
X43194866Y-59694890D01*
X43172339Y-59722339D01*
X43144890Y-59744866D01*
X43113569Y-59761607D01*
X43079591Y-59771915D01*
X43038110Y-59776000D01*
X42361890Y-59776000D01*
X42320409Y-59771915D01*
X42286431Y-59761607D01*
X42255110Y-59744866D01*
X42227661Y-59722339D01*
X42205134Y-59694890D01*
X42188393Y-59663569D01*
X42178085Y-59629591D01*
X42174000Y-59588110D01*
X42174000Y-58986890D01*
X42178085Y-58945409D01*
X42188393Y-58911431D01*
X42205134Y-58880110D01*
X42227661Y-58852661D01*
X42255110Y-58830134D01*
X42286431Y-58813393D01*
X42320409Y-58803085D01*
X42361890Y-58799000D01*
X43038110Y-58799000D01*
X43079591Y-58803085D01*
G37*
G36*
X68613512Y-57883927D02*
G01*
X68762812Y-57913624D01*
X68926784Y-57981544D01*
X69074354Y-58080147D01*
X69199853Y-58205646D01*
X69298456Y-58353216D01*
X69366376Y-58517188D01*
X69377605Y-58573643D01*
X69401000Y-58691258D01*
X69401000Y-58868742D01*
X69400539Y-58871059D01*
X69366376Y-59042812D01*
X69298456Y-59206784D01*
X69199853Y-59354354D01*
X69074354Y-59479853D01*
X68926784Y-59578456D01*
X68762812Y-59646376D01*
X68613512Y-59676073D01*
X68588742Y-59681000D01*
X68411258Y-59681000D01*
X68386488Y-59676073D01*
X68237188Y-59646376D01*
X68073216Y-59578456D01*
X67925646Y-59479853D01*
X67800147Y-59354354D01*
X67701544Y-59206784D01*
X67633624Y-59042812D01*
X67599461Y-58871059D01*
X67599000Y-58868742D01*
X67599000Y-58691258D01*
X67622395Y-58573643D01*
X67633624Y-58517188D01*
X67701544Y-58353216D01*
X67800147Y-58205646D01*
X67925646Y-58080147D01*
X68073216Y-57981544D01*
X68237188Y-57913624D01*
X68386488Y-57883927D01*
X68411258Y-57879000D01*
X68588742Y-57879000D01*
X68613512Y-57883927D01*
G37*
G36*
X73274940Y-58158627D02*
G01*
X73323336Y-58168253D01*
X73361102Y-58183896D01*
X73414511Y-58206019D01*
X73414512Y-58206020D01*
X73496569Y-58260848D01*
X73566352Y-58330631D01*
X73581444Y-58353218D01*
X73621181Y-58412689D01*
X73628971Y-58431497D01*
X73658947Y-58503864D01*
X73678200Y-58600656D01*
X73678200Y-58699344D01*
X73658947Y-58796136D01*
X73650059Y-58817592D01*
X73621181Y-58887311D01*
X73593952Y-58928062D01*
X73566352Y-58969369D01*
X73496569Y-59039152D01*
X73473165Y-59054790D01*
X73414511Y-59093981D01*
X73361102Y-59116104D01*
X73323336Y-59131747D01*
X73274940Y-59141373D01*
X73226545Y-59151000D01*
X73127855Y-59151000D01*
X73079460Y-59141373D01*
X73031064Y-59131747D01*
X72993298Y-59116104D01*
X72939889Y-59093981D01*
X72881235Y-59054790D01*
X72857831Y-59039152D01*
X72788048Y-58969369D01*
X72760448Y-58928062D01*
X72733219Y-58887311D01*
X72704341Y-58817592D01*
X72695453Y-58796136D01*
X72676200Y-58699344D01*
X72676200Y-58600656D01*
X72695453Y-58503864D01*
X72725429Y-58431497D01*
X72733219Y-58412689D01*
X72772956Y-58353218D01*
X72788048Y-58330631D01*
X72857831Y-58260848D01*
X72939888Y-58206020D01*
X72939889Y-58206019D01*
X72993298Y-58183896D01*
X73031064Y-58168253D01*
X73079460Y-58158627D01*
X73127855Y-58149000D01*
X73226545Y-58149000D01*
X73274940Y-58158627D01*
G37*
G36*
X72218200Y-58301000D02*
G01*
X70616200Y-58301000D01*
X70616200Y-57499000D01*
X72218200Y-57499000D01*
X72218200Y-58301000D01*
G37*
G36*
X43079591Y-57228085D02*
G01*
X43113569Y-57238393D01*
X43144890Y-57255134D01*
X43172339Y-57277661D01*
X43194866Y-57305110D01*
X43211607Y-57336431D01*
X43221915Y-57370409D01*
X43226000Y-57411890D01*
X43226000Y-58013110D01*
X43221915Y-58054591D01*
X43211607Y-58088569D01*
X43194866Y-58119890D01*
X43172339Y-58147339D01*
X43144890Y-58169866D01*
X43113569Y-58186607D01*
X43079591Y-58196915D01*
X43038110Y-58201000D01*
X42361890Y-58201000D01*
X42320409Y-58196915D01*
X42286431Y-58186607D01*
X42255110Y-58169866D01*
X42227661Y-58147339D01*
X42205134Y-58119890D01*
X42188393Y-58088569D01*
X42178085Y-58054591D01*
X42174000Y-58013110D01*
X42174000Y-57411890D01*
X42178085Y-57370409D01*
X42188393Y-57336431D01*
X42205134Y-57305110D01*
X42227661Y-57277661D01*
X42255110Y-57255134D01*
X42286431Y-57238393D01*
X42320409Y-57228085D01*
X42361890Y-57224000D01*
X43038110Y-57224000D01*
X43079591Y-57228085D01*
G37*
G36*
X39813512Y-56263927D02*
G01*
X39962812Y-56293624D01*
X40126784Y-56361544D01*
X40274354Y-56460147D01*
X40399853Y-56585646D01*
X40498456Y-56733216D01*
X40566376Y-56897188D01*
X40588753Y-57009687D01*
X40601000Y-57071258D01*
X40601000Y-57248742D01*
X40598051Y-57263569D01*
X40566376Y-57422812D01*
X40498456Y-57586784D01*
X40399853Y-57734354D01*
X40274354Y-57859853D01*
X40126784Y-57958456D01*
X39962812Y-58026376D01*
X39813512Y-58056073D01*
X39788742Y-58061000D01*
X39611258Y-58061000D01*
X39586488Y-58056073D01*
X39437188Y-58026376D01*
X39273216Y-57958456D01*
X39125646Y-57859853D01*
X39000147Y-57734354D01*
X38901544Y-57586784D01*
X38833624Y-57422812D01*
X38801949Y-57263569D01*
X38799000Y-57248742D01*
X38799000Y-57071258D01*
X38811247Y-57009687D01*
X38833624Y-56897188D01*
X38901544Y-56733216D01*
X39000147Y-56585646D01*
X39125646Y-56460147D01*
X39273216Y-56361544D01*
X39437188Y-56293624D01*
X39586488Y-56263927D01*
X39611258Y-56259000D01*
X39788742Y-56259000D01*
X39813512Y-56263927D01*
G37*
G36*
X51479591Y-56403085D02*
G01*
X51513569Y-56413393D01*
X51544890Y-56430134D01*
X51572339Y-56452661D01*
X51594866Y-56480110D01*
X51611607Y-56511431D01*
X51621915Y-56545409D01*
X51626000Y-56586890D01*
X51626000Y-57188110D01*
X51621915Y-57229591D01*
X51611607Y-57263569D01*
X51594866Y-57294890D01*
X51572339Y-57322339D01*
X51544890Y-57344866D01*
X51513569Y-57361607D01*
X51479591Y-57371915D01*
X51438110Y-57376000D01*
X50761890Y-57376000D01*
X50720409Y-57371915D01*
X50686431Y-57361607D01*
X50655110Y-57344866D01*
X50627661Y-57322339D01*
X50605134Y-57294890D01*
X50588393Y-57263569D01*
X50578085Y-57229591D01*
X50574000Y-57188110D01*
X50574000Y-56586890D01*
X50578085Y-56545409D01*
X50588393Y-56511431D01*
X50605134Y-56480110D01*
X50627661Y-56452661D01*
X50655110Y-56430134D01*
X50686431Y-56413393D01*
X50720409Y-56403085D01*
X50761890Y-56399000D01*
X51438110Y-56399000D01*
X51479591Y-56403085D01*
G37*
G36*
X68613512Y-55343927D02*
G01*
X68762812Y-55373624D01*
X68926784Y-55441544D01*
X69074354Y-55540147D01*
X69199853Y-55665646D01*
X69298456Y-55813216D01*
X69366376Y-55977188D01*
X69389607Y-56093980D01*
X69400949Y-56151000D01*
X69401000Y-56151259D01*
X69401000Y-56328741D01*
X69366376Y-56502812D01*
X69298456Y-56666784D01*
X69199853Y-56814354D01*
X69074354Y-56939853D01*
X68926784Y-57038456D01*
X68762812Y-57106376D01*
X68613512Y-57136073D01*
X68588742Y-57141000D01*
X68411258Y-57141000D01*
X68386488Y-57136073D01*
X68237188Y-57106376D01*
X68073216Y-57038456D01*
X67925646Y-56939853D01*
X67800147Y-56814354D01*
X67701544Y-56666784D01*
X67633624Y-56502812D01*
X67599000Y-56328741D01*
X67599000Y-56151259D01*
X67599052Y-56151000D01*
X67610393Y-56093980D01*
X67633624Y-55977188D01*
X67701544Y-55813216D01*
X67800147Y-55665646D01*
X67925646Y-55540147D01*
X68073216Y-55441544D01*
X68237188Y-55373624D01*
X68386488Y-55343927D01*
X68411258Y-55339000D01*
X68588742Y-55339000D01*
X68613512Y-55343927D01*
G37*
G36*
X66429591Y-55778085D02*
G01*
X66463569Y-55788393D01*
X66494890Y-55805134D01*
X66522339Y-55827661D01*
X66544866Y-55855110D01*
X66561607Y-55886431D01*
X66571915Y-55920409D01*
X66576000Y-55961890D01*
X66576000Y-56638110D01*
X66571915Y-56679591D01*
X66561607Y-56713569D01*
X66544866Y-56744890D01*
X66522339Y-56772339D01*
X66494890Y-56794866D01*
X66463569Y-56811607D01*
X66429591Y-56821915D01*
X66388110Y-56826000D01*
X65786890Y-56826000D01*
X65745409Y-56821915D01*
X65711431Y-56811607D01*
X65680110Y-56794866D01*
X65652661Y-56772339D01*
X65630134Y-56744890D01*
X65613393Y-56713569D01*
X65603085Y-56679591D01*
X65599000Y-56638110D01*
X65599000Y-55961890D01*
X65603085Y-55920409D01*
X65613393Y-55886431D01*
X65630134Y-55855110D01*
X65652661Y-55827661D01*
X65680110Y-55805134D01*
X65711431Y-55788393D01*
X65745409Y-55778085D01*
X65786890Y-55774000D01*
X66388110Y-55774000D01*
X66429591Y-55778085D01*
G37*
G36*
X64854591Y-55778085D02*
G01*
X64888569Y-55788393D01*
X64919890Y-55805134D01*
X64947339Y-55827661D01*
X64969866Y-55855110D01*
X64986607Y-55886431D01*
X64996915Y-55920409D01*
X65001000Y-55961890D01*
X65001000Y-56638110D01*
X64996915Y-56679591D01*
X64986607Y-56713569D01*
X64969866Y-56744890D01*
X64947339Y-56772339D01*
X64919890Y-56794866D01*
X64888569Y-56811607D01*
X64854591Y-56821915D01*
X64813110Y-56826000D01*
X64211890Y-56826000D01*
X64170409Y-56821915D01*
X64136431Y-56811607D01*
X64105110Y-56794866D01*
X64077661Y-56772339D01*
X64055134Y-56744890D01*
X64038393Y-56713569D01*
X64028085Y-56679591D01*
X64024000Y-56638110D01*
X64024000Y-55961890D01*
X64028085Y-55920409D01*
X64038393Y-55886431D01*
X64055134Y-55855110D01*
X64077661Y-55827661D01*
X64105110Y-55805134D01*
X64136431Y-55788393D01*
X64170409Y-55778085D01*
X64211890Y-55774000D01*
X64813110Y-55774000D01*
X64854591Y-55778085D01*
G37*
G36*
X73274940Y-55158626D02*
G01*
X73323336Y-55168253D01*
X73361102Y-55183896D01*
X73414511Y-55206019D01*
X73414512Y-55206020D01*
X73496569Y-55260848D01*
X73566352Y-55330631D01*
X73579701Y-55350610D01*
X73621181Y-55412689D01*
X73628971Y-55431497D01*
X73658947Y-55503864D01*
X73678200Y-55600656D01*
X73678200Y-55699344D01*
X73658947Y-55796136D01*
X73651065Y-55815164D01*
X73621181Y-55887311D01*
X73616210Y-55894750D01*
X73566352Y-55969369D01*
X73496569Y-56039152D01*
X73473165Y-56054790D01*
X73414511Y-56093981D01*
X73361102Y-56116104D01*
X73323336Y-56131747D01*
X73274940Y-56141374D01*
X73226545Y-56151000D01*
X73127855Y-56151000D01*
X73079460Y-56141374D01*
X73031064Y-56131747D01*
X72993298Y-56116104D01*
X72939889Y-56093981D01*
X72881235Y-56054790D01*
X72857831Y-56039152D01*
X72788048Y-55969369D01*
X72738190Y-55894750D01*
X72733219Y-55887311D01*
X72703335Y-55815164D01*
X72695453Y-55796136D01*
X72676200Y-55699344D01*
X72676200Y-55600656D01*
X72695453Y-55503864D01*
X72725429Y-55431497D01*
X72733219Y-55412689D01*
X72774699Y-55350610D01*
X72788048Y-55330631D01*
X72857831Y-55260848D01*
X72939888Y-55206020D01*
X72939889Y-55206019D01*
X72993298Y-55183896D01*
X73031064Y-55168253D01*
X73079460Y-55158626D01*
X73127855Y-55149000D01*
X73226545Y-55149000D01*
X73274940Y-55158626D01*
G37*
G36*
X51479591Y-54828085D02*
G01*
X51513569Y-54838393D01*
X51544890Y-54855134D01*
X51572339Y-54877661D01*
X51594866Y-54905110D01*
X51611607Y-54936431D01*
X51621915Y-54970409D01*
X51626000Y-55011890D01*
X51626000Y-55613110D01*
X51621915Y-55654591D01*
X51611607Y-55688569D01*
X51594866Y-55719890D01*
X51572339Y-55747339D01*
X51544890Y-55769866D01*
X51513569Y-55786607D01*
X51479591Y-55796915D01*
X51438110Y-55801000D01*
X50761890Y-55801000D01*
X50720409Y-55796915D01*
X50686431Y-55786607D01*
X50655110Y-55769866D01*
X50627661Y-55747339D01*
X50605134Y-55719890D01*
X50588393Y-55688569D01*
X50578085Y-55654591D01*
X50574000Y-55613110D01*
X50574000Y-55011890D01*
X50578085Y-54970409D01*
X50588393Y-54936431D01*
X50605134Y-54905110D01*
X50627661Y-54877661D01*
X50655110Y-54855134D01*
X50686431Y-54838393D01*
X50720409Y-54828085D01*
X50761890Y-54824000D01*
X51438110Y-54824000D01*
X51479591Y-54828085D01*
G37*
G36*
X39813512Y-53723927D02*
G01*
X39962812Y-53753624D01*
X40126784Y-53821544D01*
X40274354Y-53920147D01*
X40399853Y-54045646D01*
X40498456Y-54193216D01*
X40566376Y-54357188D01*
X40588666Y-54469250D01*
X40599877Y-54525610D01*
X40601000Y-54531259D01*
X40601000Y-54708741D01*
X40566376Y-54882812D01*
X40498456Y-55046784D01*
X40399853Y-55194354D01*
X40274354Y-55319853D01*
X40126784Y-55418456D01*
X39962812Y-55486376D01*
X39813512Y-55516073D01*
X39788742Y-55521000D01*
X39611258Y-55521000D01*
X39586488Y-55516073D01*
X39437188Y-55486376D01*
X39273216Y-55418456D01*
X39125646Y-55319853D01*
X39000147Y-55194354D01*
X38901544Y-55046784D01*
X38833624Y-54882812D01*
X38799000Y-54708741D01*
X38799000Y-54531259D01*
X38800124Y-54525610D01*
X38811334Y-54469250D01*
X38833624Y-54357188D01*
X38901544Y-54193216D01*
X39000147Y-54045646D01*
X39125646Y-53920147D01*
X39273216Y-53821544D01*
X39437188Y-53753624D01*
X39586488Y-53723927D01*
X39611258Y-53719000D01*
X39788742Y-53719000D01*
X39813512Y-53723927D01*
G37*
G36*
X72218200Y-55301000D02*
G01*
X70616200Y-55301000D01*
X70616200Y-54499000D01*
X72218200Y-54499000D01*
X72218200Y-55301000D01*
G37*
G36*
X47826791Y-53897085D02*
G01*
X47860769Y-53907393D01*
X47892090Y-53924134D01*
X47919539Y-53946661D01*
X47942066Y-53974110D01*
X47958807Y-54005431D01*
X47969115Y-54039409D01*
X47973200Y-54080890D01*
X47973200Y-54682110D01*
X47969115Y-54723591D01*
X47958807Y-54757569D01*
X47942066Y-54788890D01*
X47919539Y-54816339D01*
X47892090Y-54838866D01*
X47860769Y-54855607D01*
X47826791Y-54865915D01*
X47785310Y-54870000D01*
X47109090Y-54870000D01*
X47067609Y-54865915D01*
X47033631Y-54855607D01*
X47002310Y-54838866D01*
X46974861Y-54816339D01*
X46952334Y-54788890D01*
X46935593Y-54757569D01*
X46925285Y-54723591D01*
X46921200Y-54682110D01*
X46921200Y-54080890D01*
X46925285Y-54039409D01*
X46935593Y-54005431D01*
X46952334Y-53974110D01*
X46974861Y-53946661D01*
X47002310Y-53924134D01*
X47033631Y-53907393D01*
X47067609Y-53897085D01*
X47109090Y-53893000D01*
X47785310Y-53893000D01*
X47826791Y-53897085D01*
G37*
G36*
X46302791Y-53897085D02*
G01*
X46336769Y-53907393D01*
X46368090Y-53924134D01*
X46395539Y-53946661D01*
X46418066Y-53974110D01*
X46434807Y-54005431D01*
X46445115Y-54039409D01*
X46449200Y-54080890D01*
X46449200Y-54682110D01*
X46445115Y-54723591D01*
X46434807Y-54757569D01*
X46418066Y-54788890D01*
X46395539Y-54816339D01*
X46368090Y-54838866D01*
X46336769Y-54855607D01*
X46302791Y-54865915D01*
X46261310Y-54870000D01*
X45585090Y-54870000D01*
X45543609Y-54865915D01*
X45509631Y-54855607D01*
X45478310Y-54838866D01*
X45450861Y-54816339D01*
X45428334Y-54788890D01*
X45411593Y-54757569D01*
X45401285Y-54723591D01*
X45397200Y-54682110D01*
X45397200Y-54080890D01*
X45401285Y-54039409D01*
X45411593Y-54005431D01*
X45428334Y-53974110D01*
X45450861Y-53946661D01*
X45478310Y-53924134D01*
X45509631Y-53907393D01*
X45543609Y-53897085D01*
X45585090Y-53893000D01*
X46261310Y-53893000D01*
X46302791Y-53897085D01*
G37*
G36*
X69401000Y-54601000D02*
G01*
X67599000Y-54601000D01*
X67599000Y-52799000D01*
X69401000Y-52799000D01*
X69401000Y-54601000D01*
G37*
G36*
X54570295Y-52994073D02*
G01*
X54577309Y-52996201D01*
X54591077Y-53003560D01*
X54613716Y-53012937D01*
X54637749Y-53017717D01*
X54662253Y-53017717D01*
X54686286Y-53012936D01*
X54708923Y-53003560D01*
X54722691Y-52996201D01*
X54729705Y-52994073D01*
X54743140Y-52992750D01*
X55056860Y-52992750D01*
X55070295Y-52994073D01*
X55077309Y-52996201D01*
X55091077Y-53003560D01*
X55113716Y-53012937D01*
X55137749Y-53017717D01*
X55162253Y-53017717D01*
X55186286Y-53012936D01*
X55208923Y-53003560D01*
X55222691Y-52996201D01*
X55229705Y-52994073D01*
X55243140Y-52992750D01*
X55556860Y-52992750D01*
X55570295Y-52994073D01*
X55577309Y-52996201D01*
X55591077Y-53003560D01*
X55613716Y-53012937D01*
X55637749Y-53017717D01*
X55662253Y-53017717D01*
X55686286Y-53012936D01*
X55708923Y-53003560D01*
X55722691Y-52996201D01*
X55729705Y-52994073D01*
X55743140Y-52992750D01*
X56056860Y-52992750D01*
X56070295Y-52994073D01*
X56077309Y-52996201D01*
X56091077Y-53003560D01*
X56113716Y-53012937D01*
X56137749Y-53017717D01*
X56162253Y-53017717D01*
X56186286Y-53012936D01*
X56208923Y-53003560D01*
X56222691Y-52996201D01*
X56229705Y-52994073D01*
X56243140Y-52992750D01*
X56556860Y-52992750D01*
X56570295Y-52994073D01*
X56577309Y-52996201D01*
X56591077Y-53003560D01*
X56613716Y-53012937D01*
X56637749Y-53017717D01*
X56662253Y-53017717D01*
X56686286Y-53012936D01*
X56708923Y-53003560D01*
X56722691Y-52996201D01*
X56729705Y-52994073D01*
X56743140Y-52992750D01*
X57056860Y-52992750D01*
X57070295Y-52994073D01*
X57077309Y-52996201D01*
X57091077Y-53003560D01*
X57113716Y-53012937D01*
X57137749Y-53017717D01*
X57162253Y-53017717D01*
X57186286Y-53012936D01*
X57208923Y-53003560D01*
X57222691Y-52996201D01*
X57229705Y-52994073D01*
X57243140Y-52992750D01*
X57556860Y-52992750D01*
X57570295Y-52994073D01*
X57577309Y-52996201D01*
X57591077Y-53003560D01*
X57613716Y-53012937D01*
X57637749Y-53017717D01*
X57662253Y-53017717D01*
X57686286Y-53012936D01*
X57708923Y-53003560D01*
X57722691Y-52996201D01*
X57729705Y-52994073D01*
X57743140Y-52992750D01*
X58056860Y-52992750D01*
X58070295Y-52994073D01*
X58077309Y-52996201D01*
X58091077Y-53003560D01*
X58113716Y-53012937D01*
X58137749Y-53017717D01*
X58162253Y-53017717D01*
X58186286Y-53012936D01*
X58208923Y-53003560D01*
X58222691Y-52996201D01*
X58229705Y-52994073D01*
X58243140Y-52992750D01*
X58556860Y-52992750D01*
X58570295Y-52994073D01*
X58577309Y-52996201D01*
X58591077Y-53003560D01*
X58613716Y-53012937D01*
X58637749Y-53017717D01*
X58662253Y-53017717D01*
X58686286Y-53012936D01*
X58708923Y-53003560D01*
X58722691Y-52996201D01*
X58729705Y-52994073D01*
X58743140Y-52992750D01*
X59056860Y-52992750D01*
X59070295Y-52994073D01*
X59077309Y-52996201D01*
X59091077Y-53003560D01*
X59113716Y-53012937D01*
X59137749Y-53017717D01*
X59162253Y-53017717D01*
X59186286Y-53012936D01*
X59208923Y-53003560D01*
X59222691Y-52996201D01*
X59229705Y-52994073D01*
X59243140Y-52992750D01*
X59556860Y-52992750D01*
X59570295Y-52994073D01*
X59577309Y-52996201D01*
X59591077Y-53003560D01*
X59613716Y-53012937D01*
X59637749Y-53017717D01*
X59662253Y-53017717D01*
X59686286Y-53012936D01*
X59708923Y-53003560D01*
X59722691Y-52996201D01*
X59729705Y-52994073D01*
X59743140Y-52992750D01*
X60056860Y-52992750D01*
X60070295Y-52994073D01*
X60077310Y-52996201D01*
X60083776Y-52999658D01*
X60089442Y-53004308D01*
X60094092Y-53009974D01*
X60097549Y-53016440D01*
X60099677Y-53023455D01*
X60101000Y-53036890D01*
X60101000Y-54525610D01*
X60099677Y-54539045D01*
X60097549Y-54546060D01*
X60094092Y-54552526D01*
X60089442Y-54558192D01*
X60083776Y-54562842D01*
X60077310Y-54566299D01*
X60070295Y-54568427D01*
X60056860Y-54569750D01*
X59743140Y-54569750D01*
X59729705Y-54568427D01*
X59722691Y-54566299D01*
X59708923Y-54558940D01*
X59686284Y-54549563D01*
X59662251Y-54544783D01*
X59637747Y-54544783D01*
X59613714Y-54549564D01*
X59591077Y-54558940D01*
X59577309Y-54566299D01*
X59570295Y-54568427D01*
X59556860Y-54569750D01*
X59243140Y-54569750D01*
X59229705Y-54568427D01*
X59222691Y-54566299D01*
X59208923Y-54558940D01*
X59186284Y-54549563D01*
X59162251Y-54544783D01*
X59137747Y-54544783D01*
X59113714Y-54549564D01*
X59091077Y-54558940D01*
X59077309Y-54566299D01*
X59070295Y-54568427D01*
X59056860Y-54569750D01*
X58743140Y-54569750D01*
X58729705Y-54568427D01*
X58722691Y-54566299D01*
X58708923Y-54558940D01*
X58686284Y-54549563D01*
X58662251Y-54544783D01*
X58637747Y-54544783D01*
X58613714Y-54549564D01*
X58591077Y-54558940D01*
X58577309Y-54566299D01*
X58570295Y-54568427D01*
X58556860Y-54569750D01*
X58243140Y-54569750D01*
X58229705Y-54568427D01*
X58222691Y-54566299D01*
X58208923Y-54558940D01*
X58186284Y-54549563D01*
X58162251Y-54544783D01*
X58137747Y-54544783D01*
X58113714Y-54549564D01*
X58091077Y-54558940D01*
X58077309Y-54566299D01*
X58070295Y-54568427D01*
X58056860Y-54569750D01*
X57743140Y-54569750D01*
X57729705Y-54568427D01*
X57722691Y-54566299D01*
X57708923Y-54558940D01*
X57686284Y-54549563D01*
X57662251Y-54544783D01*
X57637747Y-54544783D01*
X57613714Y-54549564D01*
X57591077Y-54558940D01*
X57577309Y-54566299D01*
X57570295Y-54568427D01*
X57556860Y-54569750D01*
X57243140Y-54569750D01*
X57229705Y-54568427D01*
X57222691Y-54566299D01*
X57208923Y-54558940D01*
X57186284Y-54549563D01*
X57162251Y-54544783D01*
X57137747Y-54544783D01*
X57113714Y-54549564D01*
X57091077Y-54558940D01*
X57077309Y-54566299D01*
X57070295Y-54568427D01*
X57056860Y-54569750D01*
X56743140Y-54569750D01*
X56729705Y-54568427D01*
X56722691Y-54566299D01*
X56708923Y-54558940D01*
X56686284Y-54549563D01*
X56662251Y-54544783D01*
X56637747Y-54544783D01*
X56613714Y-54549564D01*
X56591077Y-54558940D01*
X56577309Y-54566299D01*
X56570295Y-54568427D01*
X56556860Y-54569750D01*
X56243140Y-54569750D01*
X56229705Y-54568427D01*
X56222691Y-54566299D01*
X56208923Y-54558940D01*
X56186284Y-54549563D01*
X56162251Y-54544783D01*
X56137747Y-54544783D01*
X56113714Y-54549564D01*
X56091077Y-54558940D01*
X56077309Y-54566299D01*
X56070295Y-54568427D01*
X56056860Y-54569750D01*
X55743140Y-54569750D01*
X55729705Y-54568427D01*
X55722691Y-54566299D01*
X55708923Y-54558940D01*
X55686284Y-54549563D01*
X55662251Y-54544783D01*
X55637747Y-54544783D01*
X55613714Y-54549564D01*
X55591077Y-54558940D01*
X55577309Y-54566299D01*
X55570295Y-54568427D01*
X55556860Y-54569750D01*
X55243140Y-54569750D01*
X55229705Y-54568427D01*
X55222691Y-54566299D01*
X55208923Y-54558940D01*
X55186284Y-54549563D01*
X55162251Y-54544783D01*
X55137747Y-54544783D01*
X55113714Y-54549564D01*
X55091077Y-54558940D01*
X55077309Y-54566299D01*
X55070295Y-54568427D01*
X55056860Y-54569750D01*
X54743140Y-54569750D01*
X54729705Y-54568427D01*
X54722691Y-54566299D01*
X54708923Y-54558940D01*
X54686284Y-54549563D01*
X54662251Y-54544783D01*
X54637747Y-54544783D01*
X54613714Y-54549564D01*
X54591077Y-54558940D01*
X54577309Y-54566299D01*
X54570295Y-54568427D01*
X54556860Y-54569750D01*
X54243140Y-54569750D01*
X54229705Y-54568427D01*
X54222690Y-54566299D01*
X54216224Y-54562842D01*
X54210558Y-54558192D01*
X54205908Y-54552526D01*
X54202451Y-54546060D01*
X54200323Y-54539045D01*
X54199000Y-54525610D01*
X54199000Y-53036890D01*
X54200323Y-53023455D01*
X54202451Y-53016440D01*
X54205908Y-53009974D01*
X54210558Y-53004308D01*
X54216224Y-52999658D01*
X54222690Y-52996201D01*
X54229705Y-52994073D01*
X54243140Y-52992750D01*
X54556860Y-52992750D01*
X54570295Y-52994073D01*
G37*
G36*
X49488200Y-54367800D02*
G01*
X48586200Y-54367800D01*
X48586200Y-53365800D01*
X49488200Y-53365800D01*
X49488200Y-54367800D01*
G37*
G36*
X51388200Y-54367800D02*
G01*
X50486200Y-54367800D01*
X50486200Y-53365800D01*
X51388200Y-53365800D01*
X51388200Y-54367800D01*
G37*
G36*
X72518200Y-54051000D02*
G01*
X71616200Y-54051000D01*
X71616200Y-52949000D01*
X72518200Y-52949000D01*
X72518200Y-54051000D01*
G37*
G36*
X74728200Y-54051000D02*
G01*
X73826200Y-54051000D01*
X73826200Y-52949000D01*
X74728200Y-52949000D01*
X74728200Y-54051000D01*
G37*
G36*
X52906791Y-52931885D02*
G01*
X52940769Y-52942193D01*
X52972090Y-52958934D01*
X52999539Y-52981461D01*
X53022066Y-53008910D01*
X53038807Y-53040231D01*
X53049115Y-53074209D01*
X53053200Y-53115690D01*
X53053200Y-53716910D01*
X53049115Y-53758391D01*
X53038807Y-53792369D01*
X53022066Y-53823690D01*
X52999539Y-53851139D01*
X52972090Y-53873666D01*
X52940769Y-53890407D01*
X52906791Y-53900715D01*
X52865310Y-53904800D01*
X52189090Y-53904800D01*
X52147609Y-53900715D01*
X52113631Y-53890407D01*
X52082310Y-53873666D01*
X52054861Y-53851139D01*
X52032334Y-53823690D01*
X52015593Y-53792369D01*
X52005285Y-53758391D01*
X52001200Y-53716910D01*
X52001200Y-53115690D01*
X52005285Y-53074209D01*
X52015593Y-53040231D01*
X52032334Y-53008910D01*
X52054861Y-52981461D01*
X52082310Y-52958934D01*
X52113631Y-52942193D01*
X52147609Y-52931885D01*
X52189090Y-52927800D01*
X52865310Y-52927800D01*
X52906791Y-52931885D01*
G37*
G36*
X46302791Y-52322085D02*
G01*
X46336769Y-52332393D01*
X46368090Y-52349134D01*
X46395539Y-52371661D01*
X46418066Y-52399110D01*
X46434807Y-52430431D01*
X46445115Y-52464409D01*
X46449200Y-52505890D01*
X46449200Y-53107110D01*
X46445115Y-53148591D01*
X46434807Y-53182569D01*
X46418066Y-53213890D01*
X46395539Y-53241339D01*
X46368090Y-53263866D01*
X46336769Y-53280607D01*
X46302791Y-53290915D01*
X46261310Y-53295000D01*
X45585090Y-53295000D01*
X45543609Y-53290915D01*
X45509631Y-53280607D01*
X45478310Y-53263866D01*
X45450861Y-53241339D01*
X45428334Y-53213890D01*
X45411593Y-53182569D01*
X45401285Y-53148591D01*
X45397200Y-53107110D01*
X45397200Y-52505890D01*
X45401285Y-52464409D01*
X45411593Y-52430431D01*
X45428334Y-52399110D01*
X45450861Y-52371661D01*
X45478310Y-52349134D01*
X45509631Y-52332393D01*
X45543609Y-52322085D01*
X45585090Y-52318000D01*
X46261310Y-52318000D01*
X46302791Y-52322085D01*
G37*
G36*
X47826791Y-52322085D02*
G01*
X47860769Y-52332393D01*
X47892090Y-52349134D01*
X47919539Y-52371661D01*
X47942066Y-52399110D01*
X47958807Y-52430431D01*
X47969115Y-52464409D01*
X47973200Y-52505890D01*
X47973200Y-53107110D01*
X47969115Y-53148591D01*
X47958807Y-53182569D01*
X47942066Y-53213890D01*
X47919539Y-53241339D01*
X47892090Y-53263866D01*
X47860769Y-53280607D01*
X47826791Y-53290915D01*
X47785310Y-53295000D01*
X47109090Y-53295000D01*
X47067609Y-53290915D01*
X47033631Y-53280607D01*
X47002310Y-53263866D01*
X46974861Y-53241339D01*
X46952334Y-53213890D01*
X46935593Y-53182569D01*
X46925285Y-53148591D01*
X46921200Y-53107110D01*
X46921200Y-52505890D01*
X46925285Y-52464409D01*
X46935593Y-52430431D01*
X46952334Y-52399110D01*
X46974861Y-52371661D01*
X47002310Y-52349134D01*
X47033631Y-52332393D01*
X47067609Y-52322085D01*
X47109090Y-52318000D01*
X47785310Y-52318000D01*
X47826791Y-52322085D01*
G37*
G36*
X62229591Y-51378085D02*
G01*
X62263569Y-51388393D01*
X62294890Y-51405134D01*
X62322339Y-51427661D01*
X62344866Y-51455110D01*
X62361607Y-51486431D01*
X62371915Y-51520409D01*
X62376000Y-51561890D01*
X62376000Y-52238110D01*
X62371915Y-52279591D01*
X62361607Y-52313569D01*
X62344866Y-52344890D01*
X62322339Y-52372339D01*
X62294890Y-52394866D01*
X62263569Y-52411607D01*
X62229591Y-52421915D01*
X62188110Y-52426000D01*
X61586890Y-52426000D01*
X61545409Y-52421915D01*
X61511431Y-52411607D01*
X61480110Y-52394866D01*
X61452661Y-52372339D01*
X61430134Y-52344890D01*
X61413393Y-52313569D01*
X61403085Y-52279591D01*
X61399000Y-52238110D01*
X61399000Y-51561890D01*
X61403085Y-51520409D01*
X61413393Y-51486431D01*
X61430134Y-51455110D01*
X61452661Y-51427661D01*
X61480110Y-51405134D01*
X61511431Y-51388393D01*
X61545409Y-51378085D01*
X61586890Y-51374000D01*
X62188110Y-51374000D01*
X62229591Y-51378085D01*
G37*
G36*
X60654591Y-51378085D02*
G01*
X60688569Y-51388393D01*
X60719890Y-51405134D01*
X60747339Y-51427661D01*
X60769866Y-51455110D01*
X60786607Y-51486431D01*
X60796915Y-51520409D01*
X60801000Y-51561890D01*
X60801000Y-52238110D01*
X60796915Y-52279591D01*
X60786607Y-52313569D01*
X60769866Y-52344890D01*
X60747339Y-52372339D01*
X60719890Y-52394866D01*
X60688569Y-52411607D01*
X60654591Y-52421915D01*
X60613110Y-52426000D01*
X60011890Y-52426000D01*
X59970409Y-52421915D01*
X59936431Y-52411607D01*
X59905110Y-52394866D01*
X59877661Y-52372339D01*
X59855134Y-52344890D01*
X59838393Y-52313569D01*
X59828085Y-52279591D01*
X59824000Y-52238110D01*
X59824000Y-51561890D01*
X59828085Y-51520409D01*
X59838393Y-51486431D01*
X59855134Y-51455110D01*
X59877661Y-51427661D01*
X59905110Y-51405134D01*
X59936431Y-51388393D01*
X59970409Y-51378085D01*
X60011890Y-51374000D01*
X60613110Y-51374000D01*
X60654591Y-51378085D01*
G37*
G36*
X50438200Y-52367800D02*
G01*
X49536200Y-52367800D01*
X49536200Y-51365800D01*
X50438200Y-51365800D01*
X50438200Y-52367800D01*
G37*
G36*
X54367791Y-51319585D02*
G01*
X54401769Y-51329893D01*
X54433090Y-51346634D01*
X54460539Y-51369161D01*
X54483066Y-51396610D01*
X54499807Y-51427931D01*
X54510115Y-51461909D01*
X54514200Y-51503390D01*
X54514200Y-52179610D01*
X54510115Y-52221091D01*
X54499807Y-52255069D01*
X54483066Y-52286390D01*
X54460539Y-52313839D01*
X54433090Y-52336366D01*
X54401769Y-52353107D01*
X54367791Y-52363415D01*
X54326310Y-52367500D01*
X53725090Y-52367500D01*
X53683609Y-52363415D01*
X53649631Y-52353107D01*
X53618310Y-52336366D01*
X53590861Y-52313839D01*
X53568334Y-52286390D01*
X53551593Y-52255069D01*
X53541285Y-52221091D01*
X53537200Y-52179610D01*
X53537200Y-51503390D01*
X53541285Y-51461909D01*
X53551593Y-51427931D01*
X53568334Y-51396610D01*
X53590861Y-51369161D01*
X53618310Y-51346634D01*
X53649631Y-51329893D01*
X53683609Y-51319585D01*
X53725090Y-51315500D01*
X54326310Y-51315500D01*
X54367791Y-51319585D01*
G37*
G36*
X55942791Y-51319585D02*
G01*
X55976769Y-51329893D01*
X56008090Y-51346634D01*
X56035539Y-51369161D01*
X56058066Y-51396610D01*
X56074807Y-51427931D01*
X56085115Y-51461909D01*
X56089200Y-51503390D01*
X56089200Y-52179610D01*
X56085115Y-52221091D01*
X56074807Y-52255069D01*
X56058066Y-52286390D01*
X56035539Y-52313839D01*
X56008090Y-52336366D01*
X55976769Y-52353107D01*
X55942791Y-52363415D01*
X55901310Y-52367500D01*
X55300090Y-52367500D01*
X55258609Y-52363415D01*
X55224631Y-52353107D01*
X55193310Y-52336366D01*
X55165861Y-52313839D01*
X55143334Y-52286390D01*
X55126593Y-52255069D01*
X55116285Y-52221091D01*
X55112200Y-52179610D01*
X55112200Y-51503390D01*
X55116285Y-51461909D01*
X55126593Y-51427931D01*
X55143334Y-51396610D01*
X55165861Y-51369161D01*
X55193310Y-51346634D01*
X55224631Y-51329893D01*
X55258609Y-51319585D01*
X55300090Y-51315500D01*
X55901310Y-51315500D01*
X55942791Y-51319585D01*
G37*
G36*
X52906791Y-51356885D02*
G01*
X52940769Y-51367193D01*
X52972090Y-51383934D01*
X52999539Y-51406461D01*
X53022066Y-51433910D01*
X53038807Y-51465231D01*
X53049115Y-51499209D01*
X53053200Y-51540690D01*
X53053200Y-52141910D01*
X53049115Y-52183391D01*
X53038807Y-52217369D01*
X53022066Y-52248690D01*
X52999539Y-52276139D01*
X52972090Y-52298666D01*
X52940769Y-52315407D01*
X52906791Y-52325715D01*
X52865310Y-52329800D01*
X52189090Y-52329800D01*
X52147609Y-52325715D01*
X52113631Y-52315407D01*
X52082310Y-52298666D01*
X52054861Y-52276139D01*
X52032334Y-52248690D01*
X52015593Y-52217369D01*
X52005285Y-52183391D01*
X52001200Y-52141910D01*
X52001200Y-51540690D01*
X52005285Y-51499209D01*
X52015593Y-51465231D01*
X52032334Y-51433910D01*
X52054861Y-51406461D01*
X52082310Y-51383934D01*
X52113631Y-51367193D01*
X52147609Y-51356885D01*
X52189090Y-51352800D01*
X52865310Y-51352800D01*
X52906791Y-51356885D01*
G37*
G36*
X72079591Y-50603085D02*
G01*
X72113569Y-50613393D01*
X72144890Y-50630134D01*
X72172339Y-50652661D01*
X72194866Y-50680110D01*
X72211607Y-50711431D01*
X72221915Y-50745409D01*
X72226000Y-50786890D01*
X72226000Y-51388110D01*
X72221915Y-51429591D01*
X72211607Y-51463569D01*
X72194866Y-51494890D01*
X72172339Y-51522339D01*
X72144890Y-51544866D01*
X72113569Y-51561607D01*
X72079591Y-51571915D01*
X72038110Y-51576000D01*
X71361890Y-51576000D01*
X71320409Y-51571915D01*
X71286431Y-51561607D01*
X71255110Y-51544866D01*
X71227661Y-51522339D01*
X71205134Y-51494890D01*
X71188393Y-51463569D01*
X71178085Y-51429591D01*
X71174000Y-51388110D01*
X71174000Y-50786890D01*
X71178085Y-50745409D01*
X71188393Y-50711431D01*
X71205134Y-50680110D01*
X71227661Y-50652661D01*
X71255110Y-50630134D01*
X71286431Y-50613393D01*
X71320409Y-50603085D01*
X71361890Y-50599000D01*
X72038110Y-50599000D01*
X72079591Y-50603085D01*
G37*
G36*
X63879591Y-50309335D02*
G01*
X63913569Y-50319643D01*
X63944890Y-50336384D01*
X63972339Y-50358911D01*
X63994866Y-50386360D01*
X64011607Y-50417681D01*
X64021915Y-50451659D01*
X64026000Y-50493140D01*
X64026000Y-51094360D01*
X64021915Y-51135841D01*
X64011607Y-51169819D01*
X63994866Y-51201140D01*
X63972339Y-51228589D01*
X63944890Y-51251116D01*
X63913569Y-51267857D01*
X63879591Y-51278165D01*
X63838110Y-51282250D01*
X63161890Y-51282250D01*
X63120409Y-51278165D01*
X63086431Y-51267857D01*
X63055110Y-51251116D01*
X63027661Y-51228589D01*
X63005134Y-51201140D01*
X62988393Y-51169819D01*
X62978085Y-51135841D01*
X62974000Y-51094360D01*
X62974000Y-50493140D01*
X62978085Y-50451659D01*
X62988393Y-50417681D01*
X63005134Y-50386360D01*
X63027661Y-50358911D01*
X63055110Y-50336384D01*
X63086431Y-50319643D01*
X63120409Y-50309335D01*
X63161890Y-50305250D01*
X63838110Y-50305250D01*
X63879591Y-50309335D01*
G37*
G36*
X44829591Y-50309335D02*
G01*
X44863569Y-50319643D01*
X44894890Y-50336384D01*
X44922339Y-50358911D01*
X44944866Y-50386360D01*
X44961607Y-50417681D01*
X44971915Y-50451659D01*
X44976000Y-50493140D01*
X44976000Y-51094360D01*
X44971915Y-51135841D01*
X44961607Y-51169819D01*
X44944866Y-51201140D01*
X44922339Y-51228589D01*
X44894890Y-51251116D01*
X44863569Y-51267857D01*
X44829591Y-51278165D01*
X44788110Y-51282250D01*
X44111890Y-51282250D01*
X44070409Y-51278165D01*
X44036431Y-51267857D01*
X44005110Y-51251116D01*
X43977661Y-51228589D01*
X43955134Y-51201140D01*
X43938393Y-51169819D01*
X43928085Y-51135841D01*
X43924000Y-51094360D01*
X43924000Y-50493140D01*
X43928085Y-50451659D01*
X43938393Y-50417681D01*
X43955134Y-50386360D01*
X43977661Y-50358911D01*
X44005110Y-50336384D01*
X44036431Y-50319643D01*
X44070409Y-50309335D01*
X44111890Y-50305250D01*
X44788110Y-50305250D01*
X44829591Y-50309335D01*
G37*
G36*
X75601000Y-50941000D02*
G01*
X73799000Y-50941000D01*
X73799000Y-49139000D01*
X75601000Y-49139000D01*
X75601000Y-50941000D01*
G37*
G36*
X60654591Y-49778085D02*
G01*
X60688569Y-49788393D01*
X60719890Y-49805134D01*
X60747339Y-49827661D01*
X60769866Y-49855110D01*
X60786607Y-49886431D01*
X60796915Y-49920409D01*
X60801000Y-49961890D01*
X60801000Y-50638110D01*
X60796915Y-50679591D01*
X60786607Y-50713569D01*
X60769866Y-50744890D01*
X60747339Y-50772339D01*
X60719890Y-50794866D01*
X60688569Y-50811607D01*
X60654591Y-50821915D01*
X60613110Y-50826000D01*
X60011890Y-50826000D01*
X59970409Y-50821915D01*
X59936431Y-50811607D01*
X59905110Y-50794866D01*
X59877661Y-50772339D01*
X59855134Y-50744890D01*
X59838393Y-50713569D01*
X59828085Y-50679591D01*
X59824000Y-50638110D01*
X59824000Y-49961890D01*
X59828085Y-49920409D01*
X59838393Y-49886431D01*
X59855134Y-49855110D01*
X59877661Y-49827661D01*
X59905110Y-49805134D01*
X59936431Y-49788393D01*
X59970409Y-49778085D01*
X60011890Y-49774000D01*
X60613110Y-49774000D01*
X60654591Y-49778085D01*
G37*
G36*
X62229591Y-49778085D02*
G01*
X62263569Y-49788393D01*
X62294890Y-49805134D01*
X62322339Y-49827661D01*
X62344866Y-49855110D01*
X62361607Y-49886431D01*
X62371915Y-49920409D01*
X62376000Y-49961890D01*
X62376000Y-50638110D01*
X62371915Y-50679591D01*
X62361607Y-50713569D01*
X62344866Y-50744890D01*
X62322339Y-50772339D01*
X62294890Y-50794866D01*
X62263569Y-50811607D01*
X62229591Y-50821915D01*
X62188110Y-50826000D01*
X61586890Y-50826000D01*
X61545409Y-50821915D01*
X61511431Y-50811607D01*
X61480110Y-50794866D01*
X61452661Y-50772339D01*
X61430134Y-50744890D01*
X61413393Y-50713569D01*
X61403085Y-50679591D01*
X61399000Y-50638110D01*
X61399000Y-49961890D01*
X61403085Y-49920409D01*
X61413393Y-49886431D01*
X61430134Y-49855110D01*
X61452661Y-49827661D01*
X61480110Y-49805134D01*
X61511431Y-49788393D01*
X61545409Y-49778085D01*
X61586890Y-49774000D01*
X62188110Y-49774000D01*
X62229591Y-49778085D01*
G37*
G36*
X59068604Y-48709947D02*
G01*
X59105144Y-48721032D01*
X59138821Y-48739033D01*
X59168341Y-48763259D01*
X59192567Y-48792779D01*
X59210568Y-48826456D01*
X59221653Y-48862996D01*
X59226000Y-48907138D01*
X59226000Y-50356062D01*
X59221653Y-50400204D01*
X59210568Y-50436744D01*
X59192567Y-50470421D01*
X59168341Y-50499941D01*
X59138821Y-50524167D01*
X59105144Y-50542168D01*
X59068604Y-50553253D01*
X59024462Y-50557600D01*
X58075538Y-50557600D01*
X58031396Y-50553253D01*
X57994856Y-50542168D01*
X57961179Y-50524167D01*
X57931659Y-50499941D01*
X57907433Y-50470421D01*
X57889432Y-50436744D01*
X57878347Y-50400204D01*
X57874000Y-50356062D01*
X57874000Y-48907138D01*
X57878347Y-48862996D01*
X57889432Y-48826456D01*
X57907433Y-48792779D01*
X57931659Y-48763259D01*
X57961179Y-48739033D01*
X57994856Y-48721032D01*
X58031396Y-48709947D01*
X58075538Y-48705600D01*
X59024462Y-48705600D01*
X59068604Y-48709947D01*
G37*
G36*
X56268604Y-48709947D02*
G01*
X56305144Y-48721032D01*
X56338821Y-48739033D01*
X56368341Y-48763259D01*
X56392567Y-48792779D01*
X56410568Y-48826456D01*
X56421653Y-48862996D01*
X56426000Y-48907138D01*
X56426000Y-50356062D01*
X56421653Y-50400204D01*
X56410568Y-50436744D01*
X56392567Y-50470421D01*
X56368341Y-50499941D01*
X56338821Y-50524167D01*
X56305144Y-50542168D01*
X56268604Y-50553253D01*
X56224462Y-50557600D01*
X55275538Y-50557600D01*
X55231396Y-50553253D01*
X55194856Y-50542168D01*
X55161179Y-50524167D01*
X55131659Y-50499941D01*
X55107433Y-50470421D01*
X55089432Y-50436744D01*
X55078347Y-50400204D01*
X55074000Y-50356062D01*
X55074000Y-48907138D01*
X55078347Y-48862996D01*
X55089432Y-48826456D01*
X55107433Y-48792779D01*
X55131659Y-48763259D01*
X55161179Y-48739033D01*
X55194856Y-48721032D01*
X55231396Y-48709947D01*
X55275538Y-48705600D01*
X56224462Y-48705600D01*
X56268604Y-48709947D01*
G37*
G36*
X54119400Y-50536600D02*
G01*
X53117400Y-50536600D01*
X53117400Y-49234600D01*
X54119400Y-49234600D01*
X54119400Y-50536600D01*
G37*
G36*
X50819400Y-50536600D02*
G01*
X49817400Y-50536600D01*
X49817400Y-49234600D01*
X50819400Y-49234600D01*
X50819400Y-50536600D01*
G37*
G36*
X72079591Y-49028085D02*
G01*
X72113569Y-49038393D01*
X72144890Y-49055134D01*
X72172339Y-49077661D01*
X72194866Y-49105110D01*
X72211607Y-49136431D01*
X72221915Y-49170409D01*
X72226000Y-49211890D01*
X72226000Y-49813110D01*
X72221915Y-49854591D01*
X72211607Y-49888569D01*
X72194866Y-49919890D01*
X72172339Y-49947339D01*
X72144890Y-49969866D01*
X72113569Y-49986607D01*
X72079591Y-49996915D01*
X72038110Y-50001000D01*
X71361890Y-50001000D01*
X71320409Y-49996915D01*
X71286431Y-49986607D01*
X71255110Y-49969866D01*
X71227661Y-49947339D01*
X71205134Y-49919890D01*
X71188393Y-49888569D01*
X71178085Y-49854591D01*
X71174000Y-49813110D01*
X71174000Y-49211890D01*
X71178085Y-49170409D01*
X71188393Y-49136431D01*
X71205134Y-49105110D01*
X71227661Y-49077661D01*
X71255110Y-49055134D01*
X71286431Y-49038393D01*
X71320409Y-49028085D01*
X71361890Y-49024000D01*
X72038110Y-49024000D01*
X72079591Y-49028085D01*
G37*
G36*
X63879591Y-48734335D02*
G01*
X63913569Y-48744643D01*
X63944890Y-48761384D01*
X63972339Y-48783911D01*
X63994866Y-48811360D01*
X64011607Y-48842681D01*
X64021915Y-48876659D01*
X64026000Y-48918140D01*
X64026000Y-49519360D01*
X64021915Y-49560841D01*
X64011607Y-49594819D01*
X63994866Y-49626140D01*
X63972339Y-49653589D01*
X63944890Y-49676116D01*
X63913569Y-49692857D01*
X63879591Y-49703165D01*
X63838110Y-49707250D01*
X63161890Y-49707250D01*
X63120409Y-49703165D01*
X63086431Y-49692857D01*
X63055110Y-49676116D01*
X63027661Y-49653589D01*
X63005134Y-49626140D01*
X62988393Y-49594819D01*
X62978085Y-49560841D01*
X62974000Y-49519360D01*
X62974000Y-48918140D01*
X62978085Y-48876659D01*
X62988393Y-48842681D01*
X63005134Y-48811360D01*
X63027661Y-48783911D01*
X63055110Y-48761384D01*
X63086431Y-48744643D01*
X63120409Y-48734335D01*
X63161890Y-48730250D01*
X63838110Y-48730250D01*
X63879591Y-48734335D01*
G37*
G36*
X44829591Y-48734335D02*
G01*
X44863569Y-48744643D01*
X44894890Y-48761384D01*
X44922339Y-48783911D01*
X44944866Y-48811360D01*
X44961607Y-48842681D01*
X44971915Y-48876659D01*
X44976000Y-48918140D01*
X44976000Y-49519360D01*
X44971915Y-49560841D01*
X44961607Y-49594819D01*
X44944866Y-49626140D01*
X44922339Y-49653589D01*
X44894890Y-49676116D01*
X44863569Y-49692857D01*
X44829591Y-49703165D01*
X44788110Y-49707250D01*
X44111890Y-49707250D01*
X44070409Y-49703165D01*
X44036431Y-49692857D01*
X44005110Y-49676116D01*
X43977661Y-49653589D01*
X43955134Y-49626140D01*
X43938393Y-49594819D01*
X43928085Y-49560841D01*
X43924000Y-49519360D01*
X43924000Y-48918140D01*
X43928085Y-48876659D01*
X43938393Y-48842681D01*
X43955134Y-48811360D01*
X43977661Y-48783911D01*
X44005110Y-48761384D01*
X44036431Y-48744643D01*
X44070409Y-48734335D01*
X44111890Y-48730250D01*
X44788110Y-48730250D01*
X44829591Y-48734335D01*
G37*
G36*
X48221474Y-45658684D02*
G01*
X48439474Y-45748983D01*
X48593623Y-45812833D01*
X48928548Y-46036623D01*
X49213377Y-46321452D01*
X49437167Y-46656377D01*
X49469562Y-46734586D01*
X49591316Y-47028526D01*
X49669900Y-47423594D01*
X49669900Y-47826406D01*
X49591316Y-48221474D01*
X49516954Y-48401000D01*
X49437167Y-48593623D01*
X49213377Y-48928548D01*
X48928548Y-49213377D01*
X48593623Y-49437167D01*
X48531256Y-49463000D01*
X48221474Y-49591316D01*
X47826406Y-49669900D01*
X47423594Y-49669900D01*
X47028526Y-49591316D01*
X46718744Y-49463000D01*
X46656377Y-49437167D01*
X46321452Y-49213377D01*
X46036623Y-48928548D01*
X45812833Y-48593623D01*
X45733046Y-48401000D01*
X45658684Y-48221474D01*
X45580100Y-47826406D01*
X45580100Y-47423594D01*
X45658684Y-47028526D01*
X45780438Y-46734586D01*
X45812833Y-46656377D01*
X46036623Y-46321452D01*
X46321452Y-46036623D01*
X46656377Y-45812833D01*
X46810526Y-45748983D01*
X47028526Y-45658684D01*
X47423594Y-45580100D01*
X47826406Y-45580100D01*
X48221474Y-45658684D01*
G37*
G36*
X67271474Y-45658684D02*
G01*
X67489474Y-45748983D01*
X67643623Y-45812833D01*
X67978548Y-46036623D01*
X68263377Y-46321452D01*
X68487167Y-46656377D01*
X68519562Y-46734586D01*
X68641316Y-47028526D01*
X68719900Y-47423594D01*
X68719900Y-47826406D01*
X68641316Y-48221474D01*
X68566954Y-48401000D01*
X68487167Y-48593623D01*
X68263377Y-48928548D01*
X67978548Y-49213377D01*
X67643623Y-49437167D01*
X67581256Y-49463000D01*
X67271474Y-49591316D01*
X66876406Y-49669900D01*
X66473594Y-49669900D01*
X66078526Y-49591316D01*
X65768744Y-49463000D01*
X65706377Y-49437167D01*
X65371452Y-49213377D01*
X65086623Y-48928548D01*
X64862833Y-48593623D01*
X64783046Y-48401000D01*
X64708684Y-48221474D01*
X64630100Y-47826406D01*
X64630100Y-47423594D01*
X64708684Y-47028526D01*
X64830438Y-46734586D01*
X64862833Y-46656377D01*
X65086623Y-46321452D01*
X65371452Y-46036623D01*
X65706377Y-45812833D01*
X65860526Y-45748983D01*
X66078526Y-45658684D01*
X66473594Y-45580100D01*
X66876406Y-45580100D01*
X67271474Y-45658684D01*
G37*
G36*
X42815104Y-46734585D02*
G01*
X42983626Y-46804389D01*
X43135291Y-46905728D01*
X43264272Y-47034709D01*
X43365611Y-47186374D01*
X43435415Y-47354896D01*
X43471000Y-47533797D01*
X43471000Y-47716203D01*
X43435415Y-47895104D01*
X43365611Y-48063626D01*
X43264272Y-48215291D01*
X43135291Y-48344272D01*
X42983626Y-48445611D01*
X42815104Y-48515415D01*
X42636203Y-48551000D01*
X42453797Y-48551000D01*
X42274896Y-48515415D01*
X42106374Y-48445611D01*
X41954709Y-48344272D01*
X41825728Y-48215291D01*
X41724389Y-48063626D01*
X41654585Y-47895104D01*
X41619000Y-47716203D01*
X41619000Y-47533797D01*
X41654585Y-47354896D01*
X41724389Y-47186374D01*
X41825728Y-47034709D01*
X41954709Y-46905728D01*
X42106374Y-46804389D01*
X42274896Y-46734585D01*
X42453797Y-46699000D01*
X42636203Y-46699000D01*
X42815104Y-46734585D01*
G37*
G36*
X52975104Y-46734585D02*
G01*
X53143626Y-46804389D01*
X53295291Y-46905728D01*
X53424272Y-47034709D01*
X53525611Y-47186374D01*
X53595415Y-47354896D01*
X53631000Y-47533797D01*
X53631000Y-47716203D01*
X53595415Y-47895104D01*
X53525611Y-48063626D01*
X53424272Y-48215291D01*
X53295291Y-48344272D01*
X53143626Y-48445611D01*
X52975104Y-48515415D01*
X52796203Y-48551000D01*
X52613797Y-48551000D01*
X52434896Y-48515415D01*
X52266374Y-48445611D01*
X52114709Y-48344272D01*
X51985728Y-48215291D01*
X51884389Y-48063626D01*
X51814585Y-47895104D01*
X51779000Y-47716203D01*
X51779000Y-47533797D01*
X51814585Y-47354896D01*
X51884389Y-47186374D01*
X51985728Y-47034709D01*
X52114709Y-46905728D01*
X52266374Y-46804389D01*
X52434896Y-46734585D01*
X52613797Y-46699000D01*
X52796203Y-46699000D01*
X52975104Y-46734585D01*
G37*
G36*
X72025104Y-46734585D02*
G01*
X72193626Y-46804389D01*
X72345291Y-46905728D01*
X72474272Y-47034709D01*
X72575611Y-47186374D01*
X72645415Y-47354896D01*
X72681000Y-47533797D01*
X72681000Y-47716203D01*
X72645415Y-47895104D01*
X72575611Y-48063626D01*
X72474272Y-48215291D01*
X72345291Y-48344272D01*
X72193626Y-48445611D01*
X72025104Y-48515415D01*
X71846203Y-48551000D01*
X71663797Y-48551000D01*
X71484896Y-48515415D01*
X71316374Y-48445611D01*
X71164709Y-48344272D01*
X71035728Y-48215291D01*
X70934389Y-48063626D01*
X70864585Y-47895104D01*
X70829000Y-47716203D01*
X70829000Y-47533797D01*
X70864585Y-47354896D01*
X70934389Y-47186374D01*
X71035728Y-47034709D01*
X71164709Y-46905728D01*
X71316374Y-46804389D01*
X71484896Y-46734585D01*
X71663797Y-46699000D01*
X71846203Y-46699000D01*
X72025104Y-46734585D01*
G37*
G36*
X61865104Y-46734585D02*
G01*
X62033626Y-46804389D01*
X62185291Y-46905728D01*
X62314272Y-47034709D01*
X62415611Y-47186374D01*
X62485415Y-47354896D01*
X62521000Y-47533797D01*
X62521000Y-47716203D01*
X62485415Y-47895104D01*
X62415611Y-48063626D01*
X62314272Y-48215291D01*
X62185291Y-48344272D01*
X62033626Y-48445611D01*
X61865104Y-48515415D01*
X61686203Y-48551000D01*
X61503797Y-48551000D01*
X61324896Y-48515415D01*
X61156374Y-48445611D01*
X61004709Y-48344272D01*
X60875728Y-48215291D01*
X60774389Y-48063626D01*
X60704585Y-47895104D01*
X60669000Y-47716203D01*
X60669000Y-47533797D01*
X60704585Y-47354896D01*
X60774389Y-47186374D01*
X60875728Y-47034709D01*
X61004709Y-46905728D01*
X61156374Y-46804389D01*
X61324896Y-46734585D01*
X61503797Y-46699000D01*
X61686203Y-46699000D01*
X61865104Y-46734585D01*
G37*
G36*
X74813512Y-46603927D02*
G01*
X74962812Y-46633624D01*
X75126784Y-46701544D01*
X75274354Y-46800147D01*
X75399853Y-46925646D01*
X75498456Y-47073216D01*
X75566376Y-47237188D01*
X75601000Y-47411259D01*
X75601000Y-47588741D01*
X75566376Y-47762812D01*
X75498456Y-47926784D01*
X75399853Y-48074354D01*
X75274354Y-48199853D01*
X75126784Y-48298456D01*
X74962812Y-48366376D01*
X74813512Y-48396073D01*
X74788742Y-48401000D01*
X74611258Y-48401000D01*
X74586488Y-48396073D01*
X74437188Y-48366376D01*
X74273216Y-48298456D01*
X74125646Y-48199853D01*
X74000147Y-48074354D01*
X73901544Y-47926784D01*
X73833624Y-47762812D01*
X73799000Y-47588741D01*
X73799000Y-47411259D01*
X73833624Y-47237188D01*
X73901544Y-47073216D01*
X74000147Y-46925646D01*
X74125646Y-46800147D01*
X74273216Y-46701544D01*
X74437188Y-46633624D01*
X74586488Y-46603927D01*
X74611258Y-46599000D01*
X74788742Y-46599000D01*
X74813512Y-46603927D01*
G37*
G36*
X58831000Y-47757200D02*
G01*
X57669000Y-47757200D01*
X57669000Y-45105200D01*
X58831000Y-45105200D01*
X58831000Y-47757200D01*
G37*
G36*
X56631000Y-47757200D02*
G01*
X55469000Y-47757200D01*
X55469000Y-45105200D01*
X56631000Y-45105200D01*
X56631000Y-47757200D01*
G37*
G36*
X44006560Y-43924064D02*
G01*
X44158027Y-43954193D01*
X44372045Y-44042842D01*
X44372046Y-44042843D01*
X44564654Y-44171539D01*
X44728461Y-44335346D01*
X44762070Y-44385646D01*
X44857158Y-44527955D01*
X44945807Y-44741973D01*
X44991000Y-44969174D01*
X44991000Y-45200826D01*
X44945807Y-45428027D01*
X44857158Y-45642045D01*
X44845259Y-45659853D01*
X44728461Y-45834654D01*
X44564654Y-45998461D01*
X44436249Y-46084258D01*
X44372045Y-46127158D01*
X44158027Y-46215807D01*
X44006560Y-46245936D01*
X43930827Y-46261000D01*
X43699173Y-46261000D01*
X43623440Y-46245936D01*
X43471973Y-46215807D01*
X43257955Y-46127158D01*
X43193751Y-46084258D01*
X43065346Y-45998461D01*
X42901539Y-45834654D01*
X42784741Y-45659853D01*
X42772842Y-45642045D01*
X42684193Y-45428027D01*
X42639000Y-45200826D01*
X42639000Y-44969174D01*
X42684193Y-44741973D01*
X42772842Y-44527955D01*
X42867930Y-44385646D01*
X42901539Y-44335346D01*
X43065346Y-44171539D01*
X43257954Y-44042843D01*
X43257955Y-44042842D01*
X43471973Y-43954193D01*
X43623440Y-43924064D01*
X43699173Y-43909000D01*
X43930827Y-43909000D01*
X44006560Y-43924064D01*
G37*
G36*
X63056560Y-43924064D02*
G01*
X63208027Y-43954193D01*
X63422045Y-44042842D01*
X63422046Y-44042843D01*
X63614654Y-44171539D01*
X63778461Y-44335346D01*
X63812070Y-44385646D01*
X63907158Y-44527955D01*
X63995807Y-44741973D01*
X64041000Y-44969174D01*
X64041000Y-45200826D01*
X63995807Y-45428027D01*
X63907158Y-45642045D01*
X63895259Y-45659853D01*
X63778461Y-45834654D01*
X63614654Y-45998461D01*
X63486249Y-46084258D01*
X63422045Y-46127158D01*
X63208027Y-46215807D01*
X63056560Y-46245936D01*
X62980827Y-46261000D01*
X62749173Y-46261000D01*
X62673440Y-46245936D01*
X62521973Y-46215807D01*
X62307955Y-46127158D01*
X62243751Y-46084258D01*
X62115346Y-45998461D01*
X61951539Y-45834654D01*
X61834741Y-45659853D01*
X61822842Y-45642045D01*
X61734193Y-45428027D01*
X61689000Y-45200826D01*
X61689000Y-44969174D01*
X61734193Y-44741973D01*
X61822842Y-44527955D01*
X61917930Y-44385646D01*
X61951539Y-44335346D01*
X62115346Y-44171539D01*
X62307954Y-44042843D01*
X62307955Y-44042842D01*
X62521973Y-43954193D01*
X62673440Y-43924064D01*
X62749173Y-43909000D01*
X62980827Y-43909000D01*
X63056560Y-43924064D01*
G37*
G36*
X54170200Y-46117000D02*
G01*
X53168200Y-46117000D01*
X53168200Y-44815000D01*
X54170200Y-44815000D01*
X54170200Y-46117000D01*
G37*
G36*
X50870200Y-46117000D02*
G01*
X49868200Y-46117000D01*
X49868200Y-44815000D01*
X50870200Y-44815000D01*
X50870200Y-46117000D01*
G37*
G36*
X74813512Y-44063927D02*
G01*
X74962812Y-44093624D01*
X75126784Y-44161544D01*
X75274354Y-44260147D01*
X75399853Y-44385646D01*
X75498456Y-44533216D01*
X75566376Y-44697188D01*
X75601000Y-44871259D01*
X75601000Y-45048741D01*
X75566376Y-45222812D01*
X75498456Y-45386784D01*
X75399853Y-45534354D01*
X75274354Y-45659853D01*
X75126784Y-45758456D01*
X74962812Y-45826376D01*
X74813512Y-45856073D01*
X74788742Y-45861000D01*
X74611258Y-45861000D01*
X74586488Y-45856073D01*
X74437188Y-45826376D01*
X74273216Y-45758456D01*
X74125646Y-45659853D01*
X74000147Y-45534354D01*
X73901544Y-45386784D01*
X73833624Y-45222812D01*
X73799000Y-45048741D01*
X73799000Y-44871259D01*
X73833624Y-44697188D01*
X73901544Y-44533216D01*
X74000147Y-44385646D01*
X74125646Y-44260147D01*
X74273216Y-44161544D01*
X74437188Y-44093624D01*
X74586488Y-44063927D01*
X74611258Y-44059000D01*
X74788742Y-44059000D01*
X74813512Y-44063927D01*
G37*
G36*
X60726000Y-44189750D02*
G01*
X53574000Y-44189750D01*
X53574000Y-42637750D01*
X60726000Y-42637750D01*
X60726000Y-44189750D01*
G37*
G36*
X69406560Y-41384064D02*
G01*
X69558027Y-41414193D01*
X69772045Y-41502842D01*
X69772046Y-41502843D01*
X69964654Y-41631539D01*
X70128461Y-41795346D01*
X70158407Y-41840164D01*
X70257158Y-41987955D01*
X70345807Y-42201973D01*
X70355055Y-42248466D01*
X70391000Y-42429173D01*
X70391000Y-42660827D01*
X70378764Y-42722339D01*
X70345807Y-42888027D01*
X70257158Y-43102045D01*
X70257157Y-43102046D01*
X70128461Y-43294654D01*
X69964654Y-43458461D01*
X69836249Y-43544258D01*
X69772045Y-43587158D01*
X69558027Y-43675807D01*
X69406560Y-43705936D01*
X69330827Y-43721000D01*
X69099173Y-43721000D01*
X69023440Y-43705936D01*
X68871973Y-43675807D01*
X68657955Y-43587158D01*
X68593751Y-43544258D01*
X68465346Y-43458461D01*
X68301539Y-43294654D01*
X68172843Y-43102046D01*
X68172842Y-43102045D01*
X68084193Y-42888027D01*
X68051236Y-42722339D01*
X68039000Y-42660827D01*
X68039000Y-42429173D01*
X68074945Y-42248466D01*
X68084193Y-42201973D01*
X68172842Y-41987955D01*
X68271593Y-41840164D01*
X68301539Y-41795346D01*
X68465346Y-41631539D01*
X68657954Y-41502843D01*
X68657955Y-41502842D01*
X68871973Y-41414193D01*
X69023440Y-41384064D01*
X69099173Y-41369000D01*
X69330827Y-41369000D01*
X69406560Y-41384064D01*
G37*
G36*
X50356560Y-41384064D02*
G01*
X50508027Y-41414193D01*
X50722045Y-41502842D01*
X50722046Y-41502843D01*
X50914654Y-41631539D01*
X51078461Y-41795346D01*
X51108407Y-41840164D01*
X51207158Y-41987955D01*
X51295807Y-42201973D01*
X51305055Y-42248466D01*
X51341000Y-42429173D01*
X51341000Y-42660827D01*
X51328764Y-42722339D01*
X51295807Y-42888027D01*
X51207158Y-43102045D01*
X51207157Y-43102046D01*
X51078461Y-43294654D01*
X50914654Y-43458461D01*
X50786249Y-43544258D01*
X50722045Y-43587158D01*
X50508027Y-43675807D01*
X50356560Y-43705936D01*
X50280827Y-43721000D01*
X50049173Y-43721000D01*
X49973440Y-43705936D01*
X49821973Y-43675807D01*
X49607955Y-43587158D01*
X49543751Y-43544258D01*
X49415346Y-43458461D01*
X49251539Y-43294654D01*
X49122843Y-43102046D01*
X49122842Y-43102045D01*
X49034193Y-42888027D01*
X49001236Y-42722339D01*
X48989000Y-42660827D01*
X48989000Y-42429173D01*
X49024945Y-42248466D01*
X49034193Y-42201973D01*
X49122842Y-41987955D01*
X49221593Y-41840164D01*
X49251539Y-41795346D01*
X49415346Y-41631539D01*
X49607954Y-41502843D01*
X49607955Y-41502842D01*
X49821973Y-41414193D01*
X49973440Y-41384064D01*
X50049173Y-41369000D01*
X50280827Y-41369000D01*
X50356560Y-41384064D01*
G37*
G36*
X65479591Y-41803085D02*
G01*
X65513569Y-41813393D01*
X65544890Y-41830134D01*
X65572339Y-41852661D01*
X65594866Y-41880110D01*
X65611607Y-41911431D01*
X65621915Y-41945409D01*
X65626000Y-41986890D01*
X65626000Y-42588110D01*
X65621915Y-42629591D01*
X65611607Y-42663569D01*
X65594866Y-42694890D01*
X65572339Y-42722339D01*
X65544890Y-42744866D01*
X65513569Y-42761607D01*
X65479591Y-42771915D01*
X65438110Y-42776000D01*
X64761890Y-42776000D01*
X64720409Y-42771915D01*
X64686431Y-42761607D01*
X64655110Y-42744866D01*
X64627661Y-42722339D01*
X64605134Y-42694890D01*
X64588393Y-42663569D01*
X64578085Y-42629591D01*
X64574000Y-42588110D01*
X64574000Y-41986890D01*
X64578085Y-41945409D01*
X64588393Y-41911431D01*
X64605134Y-41880110D01*
X64627661Y-41852661D01*
X64655110Y-41830134D01*
X64686431Y-41813393D01*
X64720409Y-41803085D01*
X64761890Y-41799000D01*
X65438110Y-41799000D01*
X65479591Y-41803085D01*
G37*
G36*
X63879591Y-41803085D02*
G01*
X63913569Y-41813393D01*
X63944890Y-41830134D01*
X63972339Y-41852661D01*
X63994866Y-41880110D01*
X64011607Y-41911431D01*
X64021915Y-41945409D01*
X64026000Y-41986890D01*
X64026000Y-42588110D01*
X64021915Y-42629591D01*
X64011607Y-42663569D01*
X63994866Y-42694890D01*
X63972339Y-42722339D01*
X63944890Y-42744866D01*
X63913569Y-42761607D01*
X63879591Y-42771915D01*
X63838110Y-42776000D01*
X63161890Y-42776000D01*
X63120409Y-42771915D01*
X63086431Y-42761607D01*
X63055110Y-42744866D01*
X63027661Y-42722339D01*
X63005134Y-42694890D01*
X62988393Y-42663569D01*
X62978085Y-42629591D01*
X62974000Y-42588110D01*
X62974000Y-41986890D01*
X62978085Y-41945409D01*
X62988393Y-41911431D01*
X63005134Y-41880110D01*
X63027661Y-41852661D01*
X63055110Y-41830134D01*
X63086431Y-41813393D01*
X63120409Y-41803085D01*
X63161890Y-41799000D01*
X63838110Y-41799000D01*
X63879591Y-41803085D01*
G37*
G36*
X73975880Y-38259776D02*
G01*
X74356593Y-38335504D01*
X74766249Y-38505189D01*
X75134929Y-38751534D01*
X75448466Y-39065071D01*
X75694811Y-39433751D01*
X75864496Y-39843407D01*
X75951000Y-40278296D01*
X75951000Y-40721704D01*
X75864496Y-41156593D01*
X75694811Y-41566249D01*
X75448466Y-41934929D01*
X75134929Y-42248466D01*
X74766249Y-42494811D01*
X74356593Y-42664496D01*
X73975880Y-42740224D01*
X73921705Y-42751000D01*
X73478295Y-42751000D01*
X73424120Y-42740224D01*
X73043407Y-42664496D01*
X72633751Y-42494811D01*
X72265071Y-42248466D01*
X71951534Y-41934929D01*
X71705189Y-41566249D01*
X71535504Y-41156593D01*
X71449000Y-40721704D01*
X71449000Y-40278296D01*
X71535504Y-39843407D01*
X71705189Y-39433751D01*
X71951534Y-39065071D01*
X72265071Y-38751534D01*
X72633751Y-38505189D01*
X73043407Y-38335504D01*
X73424120Y-38259776D01*
X73478295Y-38249000D01*
X73921705Y-38249000D01*
X73975880Y-38259776D01*
G37*
G36*
X60149672Y-41607199D02*
G01*
X60149674Y-41607200D01*
X60149675Y-41607200D01*
X60218103Y-41635543D01*
X60279686Y-41676692D01*
X60332058Y-41729064D01*
X60373207Y-41790647D01*
X60393037Y-41838523D01*
X60401551Y-41859078D01*
X60416000Y-41931716D01*
X60416000Y-42005784D01*
X60403679Y-42067726D01*
X60401550Y-42078425D01*
X60373207Y-42146853D01*
X60332058Y-42208436D01*
X60279686Y-42260808D01*
X60218103Y-42301957D01*
X60149675Y-42330300D01*
X60149674Y-42330300D01*
X60149672Y-42330301D01*
X60077034Y-42344750D01*
X60002966Y-42344750D01*
X59930328Y-42330301D01*
X59930326Y-42330300D01*
X59930325Y-42330300D01*
X59861897Y-42301957D01*
X59800314Y-42260808D01*
X59747942Y-42208436D01*
X59706793Y-42146853D01*
X59678450Y-42078425D01*
X59676322Y-42067726D01*
X59664000Y-42005784D01*
X59664000Y-41931716D01*
X59678449Y-41859078D01*
X59686963Y-41838523D01*
X59706793Y-41790647D01*
X59747942Y-41729064D01*
X59800314Y-41676692D01*
X59861897Y-41635543D01*
X59930325Y-41607200D01*
X59930326Y-41607200D01*
X59930328Y-41607199D01*
X60002966Y-41592750D01*
X60077034Y-41592750D01*
X60149672Y-41607199D01*
G37*
G36*
X54369672Y-41607199D02*
G01*
X54369674Y-41607200D01*
X54369675Y-41607200D01*
X54438103Y-41635543D01*
X54499686Y-41676692D01*
X54552058Y-41729064D01*
X54593207Y-41790647D01*
X54613037Y-41838523D01*
X54621551Y-41859078D01*
X54636000Y-41931716D01*
X54636000Y-42005784D01*
X54623679Y-42067726D01*
X54621550Y-42078425D01*
X54593207Y-42146853D01*
X54552058Y-42208436D01*
X54499686Y-42260808D01*
X54438103Y-42301957D01*
X54369675Y-42330300D01*
X54369674Y-42330300D01*
X54369672Y-42330301D01*
X54297034Y-42344750D01*
X54222966Y-42344750D01*
X54150328Y-42330301D01*
X54150326Y-42330300D01*
X54150325Y-42330300D01*
X54081897Y-42301957D01*
X54020314Y-42260808D01*
X53967942Y-42208436D01*
X53926793Y-42146853D01*
X53898450Y-42078425D01*
X53896322Y-42067726D01*
X53884000Y-42005784D01*
X53884000Y-41931716D01*
X53898449Y-41859078D01*
X53906963Y-41838523D01*
X53926793Y-41790647D01*
X53967942Y-41729064D01*
X54020314Y-41676692D01*
X54081897Y-41635543D01*
X54150325Y-41607200D01*
X54150326Y-41607200D01*
X54150328Y-41607199D01*
X54222966Y-41592750D01*
X54297034Y-41592750D01*
X54369672Y-41607199D01*
G37*
G36*
X65479591Y-40228085D02*
G01*
X65513569Y-40238393D01*
X65544890Y-40255134D01*
X65572339Y-40277661D01*
X65594866Y-40305110D01*
X65611607Y-40336431D01*
X65621915Y-40370409D01*
X65626000Y-40411890D01*
X65626000Y-41013110D01*
X65621915Y-41054591D01*
X65611607Y-41088569D01*
X65594866Y-41119890D01*
X65572339Y-41147339D01*
X65544890Y-41169866D01*
X65513569Y-41186607D01*
X65479591Y-41196915D01*
X65438110Y-41201000D01*
X64761890Y-41201000D01*
X64720409Y-41196915D01*
X64686431Y-41186607D01*
X64655110Y-41169866D01*
X64627661Y-41147339D01*
X64605134Y-41119890D01*
X64588393Y-41088569D01*
X64578085Y-41054591D01*
X64574000Y-41013110D01*
X64574000Y-40411890D01*
X64578085Y-40370409D01*
X64588393Y-40336431D01*
X64605134Y-40305110D01*
X64627661Y-40277661D01*
X64655110Y-40255134D01*
X64686431Y-40238393D01*
X64720409Y-40228085D01*
X64761890Y-40224000D01*
X65438110Y-40224000D01*
X65479591Y-40228085D01*
G37*
G36*
X63879591Y-40228085D02*
G01*
X63913569Y-40238393D01*
X63944890Y-40255134D01*
X63972339Y-40277661D01*
X63994866Y-40305110D01*
X64011607Y-40336431D01*
X64021915Y-40370409D01*
X64026000Y-40411890D01*
X64026000Y-41013110D01*
X64021915Y-41054591D01*
X64011607Y-41088569D01*
X63994866Y-41119890D01*
X63972339Y-41147339D01*
X63944890Y-41169866D01*
X63913569Y-41186607D01*
X63879591Y-41196915D01*
X63838110Y-41201000D01*
X63161890Y-41201000D01*
X63120409Y-41196915D01*
X63086431Y-41186607D01*
X63055110Y-41169866D01*
X63027661Y-41147339D01*
X63005134Y-41119890D01*
X62988393Y-41088569D01*
X62978085Y-41054591D01*
X62974000Y-41013110D01*
X62974000Y-40411890D01*
X62978085Y-40370409D01*
X62988393Y-40336431D01*
X63005134Y-40305110D01*
X63027661Y-40277661D01*
X63055110Y-40255134D01*
X63086431Y-40238393D01*
X63120409Y-40228085D01*
X63161890Y-40224000D01*
X63838110Y-40224000D01*
X63879591Y-40228085D01*
G37*
G36*
X65429591Y-38578085D02*
G01*
X65463569Y-38588393D01*
X65494890Y-38605134D01*
X65522339Y-38627661D01*
X65544866Y-38655110D01*
X65561607Y-38686431D01*
X65571915Y-38720409D01*
X65576000Y-38761890D01*
X65576000Y-39438110D01*
X65571915Y-39479591D01*
X65561607Y-39513569D01*
X65544866Y-39544890D01*
X65522339Y-39572339D01*
X65494890Y-39594866D01*
X65463569Y-39611607D01*
X65429591Y-39621915D01*
X65388110Y-39626000D01*
X64786890Y-39626000D01*
X64745409Y-39621915D01*
X64711431Y-39611607D01*
X64680110Y-39594866D01*
X64652661Y-39572339D01*
X64630134Y-39544890D01*
X64613393Y-39513569D01*
X64603085Y-39479591D01*
X64599000Y-39438110D01*
X64599000Y-38761890D01*
X64603085Y-38720409D01*
X64613393Y-38686431D01*
X64630134Y-38655110D01*
X64652661Y-38627661D01*
X64680110Y-38605134D01*
X64711431Y-38588393D01*
X64745409Y-38578085D01*
X64786890Y-38574000D01*
X65388110Y-38574000D01*
X65429591Y-38578085D01*
G37*
G36*
X63854591Y-38578085D02*
G01*
X63888569Y-38588393D01*
X63919890Y-38605134D01*
X63947339Y-38627661D01*
X63969866Y-38655110D01*
X63986607Y-38686431D01*
X63996915Y-38720409D01*
X64001000Y-38761890D01*
X64001000Y-39438110D01*
X63996915Y-39479591D01*
X63986607Y-39513569D01*
X63969866Y-39544890D01*
X63947339Y-39572339D01*
X63919890Y-39594866D01*
X63888569Y-39611607D01*
X63854591Y-39621915D01*
X63813110Y-39626000D01*
X63211890Y-39626000D01*
X63170409Y-39621915D01*
X63136431Y-39611607D01*
X63105110Y-39594866D01*
X63077661Y-39572339D01*
X63055134Y-39544890D01*
X63038393Y-39513569D01*
X63028085Y-39479591D01*
X63024000Y-39438110D01*
X63024000Y-38761890D01*
X63028085Y-38720409D01*
X63038393Y-38686431D01*
X63055134Y-38655110D01*
X63077661Y-38627661D01*
X63105110Y-38605134D01*
X63136431Y-38588393D01*
X63170409Y-38578085D01*
X63211890Y-38574000D01*
X63813110Y-38574000D01*
X63854591Y-38578085D01*
G37*
G36*
X51229591Y-38578085D02*
G01*
X51263569Y-38588393D01*
X51294890Y-38605134D01*
X51322339Y-38627661D01*
X51344866Y-38655110D01*
X51361607Y-38686431D01*
X51371915Y-38720409D01*
X51376000Y-38761890D01*
X51376000Y-39438110D01*
X51371915Y-39479591D01*
X51361607Y-39513569D01*
X51344866Y-39544890D01*
X51322339Y-39572339D01*
X51294890Y-39594866D01*
X51263569Y-39611607D01*
X51229591Y-39621915D01*
X51188110Y-39626000D01*
X50586890Y-39626000D01*
X50545409Y-39621915D01*
X50511431Y-39611607D01*
X50480110Y-39594866D01*
X50452661Y-39572339D01*
X50430134Y-39544890D01*
X50413393Y-39513569D01*
X50403085Y-39479591D01*
X50399000Y-39438110D01*
X50399000Y-38761890D01*
X50403085Y-38720409D01*
X50413393Y-38686431D01*
X50430134Y-38655110D01*
X50452661Y-38627661D01*
X50480110Y-38605134D01*
X50511431Y-38588393D01*
X50545409Y-38578085D01*
X50586890Y-38574000D01*
X51188110Y-38574000D01*
X51229591Y-38578085D01*
G37*
G36*
X49654591Y-38578085D02*
G01*
X49688569Y-38588393D01*
X49719890Y-38605134D01*
X49747339Y-38627661D01*
X49769866Y-38655110D01*
X49786607Y-38686431D01*
X49796915Y-38720409D01*
X49801000Y-38761890D01*
X49801000Y-39438110D01*
X49796915Y-39479591D01*
X49786607Y-39513569D01*
X49769866Y-39544890D01*
X49747339Y-39572339D01*
X49719890Y-39594866D01*
X49688569Y-39611607D01*
X49654591Y-39621915D01*
X49613110Y-39626000D01*
X49011890Y-39626000D01*
X48970409Y-39621915D01*
X48936431Y-39611607D01*
X48905110Y-39594866D01*
X48877661Y-39572339D01*
X48855134Y-39544890D01*
X48838393Y-39513569D01*
X48828085Y-39479591D01*
X48824000Y-39438110D01*
X48824000Y-38761890D01*
X48828085Y-38720409D01*
X48838393Y-38686431D01*
X48855134Y-38655110D01*
X48877661Y-38627661D01*
X48905110Y-38605134D01*
X48936431Y-38588393D01*
X48970409Y-38578085D01*
X49011890Y-38574000D01*
X49613110Y-38574000D01*
X49654591Y-38578085D01*
G37*
M02*
