M48
; DRILL file {KiCad (5.1.5-0-10_14)} date Friday, October 23, 2020 at 09:09:03 AM
; FORMAT={-:-/ absolute / inch / decimal}
; #@! TF.CreationDate,2020-10-23T09:09:03-05:00
; #@! TF.GenerationSoftware,Kicad,Pcbnew,(5.1.5-0-10_14)
FMAT,2
INCH
T1C0.0157
T2C0.0236
T3C0.0394
T4C0.0579
T5C0.0866
T6C0.0256
T7C0.0354
T8C0.0689
T9C0.1570
%
G90
G05
T1
X1.824Y-1.996
X1.8418Y-2.192
X1.9458Y-2.1635
X1.968Y-2.27
X2.008Y-2.074
X2.01Y-2.752
X2.012Y-2.678
X2.026Y-1.79
X2.11Y-2.704
X2.134Y-2.572
X2.136Y-1.612
X2.16Y-2.27
X2.162Y-2.194
X2.1725Y-1.824
X2.178Y-2.892
X2.198Y-2.334
X2.2499Y-1.8853
X2.2525Y-1.7767
X2.26Y-2.302
X2.3217Y-2.3127
X2.324Y-2.352
X2.33Y-2.274
X2.3375Y-1.8258
X2.35Y-1.906
X2.3592Y-1.7628
X2.362Y-1.612
X2.38Y-2.496
X2.406Y-1.934
X2.4105Y-2.5463
X2.4106Y-2.4646
X2.412Y-2.424
X2.44Y-2.756
X2.4521Y-2.4232
X2.464Y-2.8145
X2.494Y-2.07
X2.586Y-1.71
X2.602Y-2.43
X2.668Y-1.546
X2.724Y-2.728
X2.946Y-2.928
X2.8366Y-1.5945
X2.8556Y-1.5486
X2.8556Y-1.6404
X2.9016Y-1.5295
X2.9016Y-1.6594
X2.9475Y-1.5486
X2.9475Y-1.6404
X2.9665Y-1.5945
T3
X2.9409Y-1.7701
X2.9409Y-1.8701
X2.9409Y-1.9701
X2.6969Y-2.1142
X2.6969Y-2.2142
X2.6969Y-2.3142
X2.415Y-2.8465
X2.415Y-2.9465
X2.515Y-2.8465
X2.515Y-2.9465
X2.615Y-2.8465
X2.615Y-2.9465
X2.715Y-2.8465
X2.715Y-2.9465
X2.815Y-2.8465
X2.815Y-2.9465
X2.9409Y-2.4843
X2.9409Y-2.5843
X2.9409Y-2.6843
X2.9409Y-2.7843
X1.563Y-2.1504
X1.563Y-2.2504
X1.563Y-2.3504
T4
X2.475Y-1.775
X2.725Y-1.675
X1.725Y-1.775
X1.975Y-1.675
X2.475Y-2.525
X2.725Y-2.425
X1.725Y-2.525
X1.975Y-2.425
T5
X2.9016Y-1.5945
T6
X2.1362Y-1.6523
X2.3638Y-1.6523
T7
X2.881Y-2.1909
X2.881Y-2.3091
T8
X2.425Y-1.875
X2.825Y-1.875
X1.675Y-1.875
X2.075Y-1.875
X2.425Y-2.625
X2.825Y-2.625
X1.675Y-2.625
X2.075Y-2.625
T9
X2.625Y-1.875
X1.875Y-1.875
X2.625Y-2.625
X1.875Y-2.625
T2
G00X2.0799Y-1.4968
M15
G01X2.0799Y-1.5204
M16
G05
G00X2.0799Y-1.6515
M15
G01X2.0799Y-1.6948
M16
G05
G00X2.4201Y-1.4968
M15
G01X2.4201Y-1.5204
M16
G05
G00X2.4201Y-1.6515
M15
G01X2.4201Y-1.6948
M16
G05
T0
M30
