G04 #@! TF.GenerationSoftware,KiCad,Pcbnew,(5.1.5-0-10_14)*
G04 #@! TF.CreationDate,2020-10-23T09:09:01-05:00*
G04 #@! TF.ProjectId,Generic_STM32_Keyboard,47656e65-7269-4635-9f53-544d33325f4b,rev?*
G04 #@! TF.SameCoordinates,Original*
G04 #@! TF.FileFunction,Soldermask,Top*
G04 #@! TF.FilePolarity,Negative*
%FSLAX46Y46*%
G04 Gerber Fmt 4.6, Leading zero omitted, Abs format (unit mm)*
G04 Created by KiCad (PCBNEW (5.1.5-0-10_14)) date 2020-10-23 09:09:01*
%MOMM*%
%LPD*%
G04 APERTURE LIST*
%ADD10C,0.100000*%
G04 APERTURE END LIST*
D10*
G36*
X72401000Y-75741000D02*
G01*
X70599000Y-75741000D01*
X70599000Y-73939000D01*
X72401000Y-73939000D01*
X72401000Y-75741000D01*
G37*
G36*
X69073512Y-73943927D02*
G01*
X69222812Y-73973624D01*
X69386784Y-74041544D01*
X69534354Y-74140147D01*
X69659853Y-74265646D01*
X69758456Y-74413216D01*
X69826376Y-74577188D01*
X69861000Y-74751259D01*
X69861000Y-74928741D01*
X69826376Y-75102812D01*
X69758456Y-75266784D01*
X69659853Y-75414354D01*
X69534354Y-75539853D01*
X69386784Y-75638456D01*
X69222812Y-75706376D01*
X69073512Y-75736073D01*
X69048742Y-75741000D01*
X68871258Y-75741000D01*
X68846488Y-75736073D01*
X68697188Y-75706376D01*
X68533216Y-75638456D01*
X68385646Y-75539853D01*
X68260147Y-75414354D01*
X68161544Y-75266784D01*
X68093624Y-75102812D01*
X68059000Y-74928741D01*
X68059000Y-74751259D01*
X68093624Y-74577188D01*
X68161544Y-74413216D01*
X68260147Y-74265646D01*
X68385646Y-74140147D01*
X68533216Y-74041544D01*
X68697188Y-73973624D01*
X68846488Y-73943927D01*
X68871258Y-73939000D01*
X69048742Y-73939000D01*
X69073512Y-73943927D01*
G37*
G36*
X66533512Y-73943927D02*
G01*
X66682812Y-73973624D01*
X66846784Y-74041544D01*
X66994354Y-74140147D01*
X67119853Y-74265646D01*
X67218456Y-74413216D01*
X67286376Y-74577188D01*
X67321000Y-74751259D01*
X67321000Y-74928741D01*
X67286376Y-75102812D01*
X67218456Y-75266784D01*
X67119853Y-75414354D01*
X66994354Y-75539853D01*
X66846784Y-75638456D01*
X66682812Y-75706376D01*
X66533512Y-75736073D01*
X66508742Y-75741000D01*
X66331258Y-75741000D01*
X66306488Y-75736073D01*
X66157188Y-75706376D01*
X65993216Y-75638456D01*
X65845646Y-75539853D01*
X65720147Y-75414354D01*
X65621544Y-75266784D01*
X65553624Y-75102812D01*
X65519000Y-74928741D01*
X65519000Y-74751259D01*
X65553624Y-74577188D01*
X65621544Y-74413216D01*
X65720147Y-74265646D01*
X65845646Y-74140147D01*
X65993216Y-74041544D01*
X66157188Y-73973624D01*
X66306488Y-73943927D01*
X66331258Y-73939000D01*
X66508742Y-73939000D01*
X66533512Y-73943927D01*
G37*
G36*
X63993512Y-73943927D02*
G01*
X64142812Y-73973624D01*
X64306784Y-74041544D01*
X64454354Y-74140147D01*
X64579853Y-74265646D01*
X64678456Y-74413216D01*
X64746376Y-74577188D01*
X64781000Y-74751259D01*
X64781000Y-74928741D01*
X64746376Y-75102812D01*
X64678456Y-75266784D01*
X64579853Y-75414354D01*
X64454354Y-75539853D01*
X64306784Y-75638456D01*
X64142812Y-75706376D01*
X63993512Y-75736073D01*
X63968742Y-75741000D01*
X63791258Y-75741000D01*
X63766488Y-75736073D01*
X63617188Y-75706376D01*
X63453216Y-75638456D01*
X63305646Y-75539853D01*
X63180147Y-75414354D01*
X63081544Y-75266784D01*
X63013624Y-75102812D01*
X62979000Y-74928741D01*
X62979000Y-74751259D01*
X63013624Y-74577188D01*
X63081544Y-74413216D01*
X63180147Y-74265646D01*
X63305646Y-74140147D01*
X63453216Y-74041544D01*
X63617188Y-73973624D01*
X63766488Y-73943927D01*
X63791258Y-73939000D01*
X63968742Y-73939000D01*
X63993512Y-73943927D01*
G37*
G36*
X61453512Y-73943927D02*
G01*
X61602812Y-73973624D01*
X61766784Y-74041544D01*
X61914354Y-74140147D01*
X62039853Y-74265646D01*
X62138456Y-74413216D01*
X62206376Y-74577188D01*
X62241000Y-74751259D01*
X62241000Y-74928741D01*
X62206376Y-75102812D01*
X62138456Y-75266784D01*
X62039853Y-75414354D01*
X61914354Y-75539853D01*
X61766784Y-75638456D01*
X61602812Y-75706376D01*
X61453512Y-75736073D01*
X61428742Y-75741000D01*
X61251258Y-75741000D01*
X61226488Y-75736073D01*
X61077188Y-75706376D01*
X60913216Y-75638456D01*
X60765646Y-75539853D01*
X60640147Y-75414354D01*
X60541544Y-75266784D01*
X60473624Y-75102812D01*
X60439000Y-74928741D01*
X60439000Y-74751259D01*
X60473624Y-74577188D01*
X60541544Y-74413216D01*
X60640147Y-74265646D01*
X60765646Y-74140147D01*
X60913216Y-74041544D01*
X61077188Y-73973624D01*
X61226488Y-73943927D01*
X61251258Y-73939000D01*
X61428742Y-73939000D01*
X61453512Y-73943927D01*
G37*
G36*
X69073512Y-71403927D02*
G01*
X69222812Y-71433624D01*
X69386784Y-71501544D01*
X69534354Y-71600147D01*
X69659853Y-71725646D01*
X69758456Y-71873216D01*
X69826376Y-72037188D01*
X69861000Y-72211259D01*
X69861000Y-72388741D01*
X69826376Y-72562812D01*
X69758456Y-72726784D01*
X69659853Y-72874354D01*
X69534354Y-72999853D01*
X69386784Y-73098456D01*
X69222812Y-73166376D01*
X69073512Y-73196073D01*
X69048742Y-73201000D01*
X68871258Y-73201000D01*
X68846488Y-73196073D01*
X68697188Y-73166376D01*
X68533216Y-73098456D01*
X68385646Y-72999853D01*
X68260147Y-72874354D01*
X68161544Y-72726784D01*
X68093624Y-72562812D01*
X68059000Y-72388741D01*
X68059000Y-72211259D01*
X68093624Y-72037188D01*
X68161544Y-71873216D01*
X68260147Y-71725646D01*
X68385646Y-71600147D01*
X68533216Y-71501544D01*
X68697188Y-71433624D01*
X68846488Y-71403927D01*
X68871258Y-71399000D01*
X69048742Y-71399000D01*
X69073512Y-71403927D01*
G37*
G36*
X71613512Y-71403927D02*
G01*
X71762812Y-71433624D01*
X71926784Y-71501544D01*
X72074354Y-71600147D01*
X72199853Y-71725646D01*
X72298456Y-71873216D01*
X72366376Y-72037188D01*
X72401000Y-72211259D01*
X72401000Y-72388741D01*
X72366376Y-72562812D01*
X72298456Y-72726784D01*
X72199853Y-72874354D01*
X72074354Y-72999853D01*
X71926784Y-73098456D01*
X71762812Y-73166376D01*
X71613512Y-73196073D01*
X71588742Y-73201000D01*
X71411258Y-73201000D01*
X71386488Y-73196073D01*
X71237188Y-73166376D01*
X71073216Y-73098456D01*
X70925646Y-72999853D01*
X70800147Y-72874354D01*
X70701544Y-72726784D01*
X70633624Y-72562812D01*
X70599000Y-72388741D01*
X70599000Y-72211259D01*
X70633624Y-72037188D01*
X70701544Y-71873216D01*
X70800147Y-71725646D01*
X70925646Y-71600147D01*
X71073216Y-71501544D01*
X71237188Y-71433624D01*
X71386488Y-71403927D01*
X71411258Y-71399000D01*
X71588742Y-71399000D01*
X71613512Y-71403927D01*
G37*
G36*
X66533512Y-71403927D02*
G01*
X66682812Y-71433624D01*
X66846784Y-71501544D01*
X66994354Y-71600147D01*
X67119853Y-71725646D01*
X67218456Y-71873216D01*
X67286376Y-72037188D01*
X67321000Y-72211259D01*
X67321000Y-72388741D01*
X67286376Y-72562812D01*
X67218456Y-72726784D01*
X67119853Y-72874354D01*
X66994354Y-72999853D01*
X66846784Y-73098456D01*
X66682812Y-73166376D01*
X66533512Y-73196073D01*
X66508742Y-73201000D01*
X66331258Y-73201000D01*
X66306488Y-73196073D01*
X66157188Y-73166376D01*
X65993216Y-73098456D01*
X65845646Y-72999853D01*
X65720147Y-72874354D01*
X65621544Y-72726784D01*
X65553624Y-72562812D01*
X65519000Y-72388741D01*
X65519000Y-72211259D01*
X65553624Y-72037188D01*
X65621544Y-71873216D01*
X65720147Y-71725646D01*
X65845646Y-71600147D01*
X65993216Y-71501544D01*
X66157188Y-71433624D01*
X66306488Y-71403927D01*
X66331258Y-71399000D01*
X66508742Y-71399000D01*
X66533512Y-71403927D01*
G37*
G36*
X63993512Y-71403927D02*
G01*
X64142812Y-71433624D01*
X64306784Y-71501544D01*
X64454354Y-71600147D01*
X64579853Y-71725646D01*
X64678456Y-71873216D01*
X64746376Y-72037188D01*
X64781000Y-72211259D01*
X64781000Y-72388741D01*
X64746376Y-72562812D01*
X64678456Y-72726784D01*
X64579853Y-72874354D01*
X64454354Y-72999853D01*
X64306784Y-73098456D01*
X64142812Y-73166376D01*
X63993512Y-73196073D01*
X63968742Y-73201000D01*
X63791258Y-73201000D01*
X63766488Y-73196073D01*
X63617188Y-73166376D01*
X63453216Y-73098456D01*
X63305646Y-72999853D01*
X63180147Y-72874354D01*
X63081544Y-72726784D01*
X63013624Y-72562812D01*
X62979000Y-72388741D01*
X62979000Y-72211259D01*
X63013624Y-72037188D01*
X63081544Y-71873216D01*
X63180147Y-71725646D01*
X63305646Y-71600147D01*
X63453216Y-71501544D01*
X63617188Y-71433624D01*
X63766488Y-71403927D01*
X63791258Y-71399000D01*
X63968742Y-71399000D01*
X63993512Y-71403927D01*
G37*
G36*
X61453512Y-71403927D02*
G01*
X61602812Y-71433624D01*
X61766784Y-71501544D01*
X61914354Y-71600147D01*
X62039853Y-71725646D01*
X62138456Y-71873216D01*
X62206376Y-72037188D01*
X62241000Y-72211259D01*
X62241000Y-72388741D01*
X62206376Y-72562812D01*
X62138456Y-72726784D01*
X62039853Y-72874354D01*
X61914354Y-72999853D01*
X61766784Y-73098456D01*
X61602812Y-73166376D01*
X61453512Y-73196073D01*
X61428742Y-73201000D01*
X61251258Y-73201000D01*
X61226488Y-73196073D01*
X61077188Y-73166376D01*
X60913216Y-73098456D01*
X60765646Y-72999853D01*
X60640147Y-72874354D01*
X60541544Y-72726784D01*
X60473624Y-72562812D01*
X60439000Y-72388741D01*
X60439000Y-72211259D01*
X60473624Y-72037188D01*
X60541544Y-71873216D01*
X60640147Y-71725646D01*
X60765646Y-71600147D01*
X60913216Y-71501544D01*
X61077188Y-71433624D01*
X61226488Y-71403927D01*
X61251258Y-71399000D01*
X61428742Y-71399000D01*
X61453512Y-71403927D01*
G37*
G36*
X74813512Y-69823927D02*
G01*
X74962812Y-69853624D01*
X75126784Y-69921544D01*
X75274354Y-70020147D01*
X75399853Y-70145646D01*
X75498456Y-70293216D01*
X75566376Y-70457188D01*
X75601000Y-70631259D01*
X75601000Y-70808741D01*
X75566376Y-70982812D01*
X75498456Y-71146784D01*
X75399853Y-71294354D01*
X75274354Y-71419853D01*
X75126784Y-71518456D01*
X74962812Y-71586376D01*
X74813512Y-71616073D01*
X74788742Y-71621000D01*
X74611258Y-71621000D01*
X74586488Y-71616073D01*
X74437188Y-71586376D01*
X74273216Y-71518456D01*
X74125646Y-71419853D01*
X74000147Y-71294354D01*
X73901544Y-71146784D01*
X73833624Y-70982812D01*
X73799000Y-70808741D01*
X73799000Y-70631259D01*
X73833624Y-70457188D01*
X73901544Y-70293216D01*
X74000147Y-70145646D01*
X74125646Y-70020147D01*
X74273216Y-69921544D01*
X74437188Y-69853624D01*
X74586488Y-69823927D01*
X74611258Y-69819000D01*
X74788742Y-69819000D01*
X74813512Y-69823927D01*
G37*
G36*
X74813512Y-67283927D02*
G01*
X74962812Y-67313624D01*
X75126784Y-67381544D01*
X75274354Y-67480147D01*
X75399853Y-67605646D01*
X75498456Y-67753216D01*
X75566376Y-67917188D01*
X75601000Y-68091259D01*
X75601000Y-68268741D01*
X75566376Y-68442812D01*
X75498456Y-68606784D01*
X75399853Y-68754354D01*
X75274354Y-68879853D01*
X75126784Y-68978456D01*
X74962812Y-69046376D01*
X74813512Y-69076073D01*
X74788742Y-69081000D01*
X74611258Y-69081000D01*
X74586488Y-69076073D01*
X74437188Y-69046376D01*
X74273216Y-68978456D01*
X74125646Y-68879853D01*
X74000147Y-68754354D01*
X73901544Y-68606784D01*
X73833624Y-68442812D01*
X73799000Y-68268741D01*
X73799000Y-68091259D01*
X73833624Y-67917188D01*
X73901544Y-67753216D01*
X74000147Y-67605646D01*
X74125646Y-67480147D01*
X74273216Y-67381544D01*
X74437188Y-67313624D01*
X74586488Y-67283927D01*
X74611258Y-67279000D01*
X74788742Y-67279000D01*
X74813512Y-67283927D01*
G37*
G36*
X48221474Y-64708684D02*
G01*
X48378255Y-64773625D01*
X48593623Y-64862833D01*
X48928548Y-65086623D01*
X49213377Y-65371452D01*
X49437167Y-65706377D01*
X49469562Y-65784586D01*
X49591316Y-66078526D01*
X49669900Y-66473594D01*
X49669900Y-66876406D01*
X49591316Y-67271474D01*
X49540451Y-67394272D01*
X49437167Y-67643623D01*
X49213377Y-67978548D01*
X48928548Y-68263377D01*
X48593623Y-68487167D01*
X48439474Y-68551017D01*
X48221474Y-68641316D01*
X47826406Y-68719900D01*
X47423594Y-68719900D01*
X47028526Y-68641316D01*
X46810526Y-68551017D01*
X46656377Y-68487167D01*
X46321452Y-68263377D01*
X46036623Y-67978548D01*
X45812833Y-67643623D01*
X45709549Y-67394272D01*
X45658684Y-67271474D01*
X45580100Y-66876406D01*
X45580100Y-66473594D01*
X45658684Y-66078526D01*
X45780438Y-65784586D01*
X45812833Y-65706377D01*
X46036623Y-65371452D01*
X46321452Y-65086623D01*
X46656377Y-64862833D01*
X46871745Y-64773625D01*
X47028526Y-64708684D01*
X47423594Y-64630100D01*
X47826406Y-64630100D01*
X48221474Y-64708684D01*
G37*
G36*
X67271474Y-64708684D02*
G01*
X67428255Y-64773625D01*
X67643623Y-64862833D01*
X67978548Y-65086623D01*
X68263377Y-65371452D01*
X68487167Y-65706377D01*
X68519562Y-65784586D01*
X68641316Y-66078526D01*
X68719900Y-66473594D01*
X68719900Y-66876406D01*
X68641316Y-67271474D01*
X68590451Y-67394272D01*
X68487167Y-67643623D01*
X68263377Y-67978548D01*
X67978548Y-68263377D01*
X67643623Y-68487167D01*
X67489474Y-68551017D01*
X67271474Y-68641316D01*
X66876406Y-68719900D01*
X66473594Y-68719900D01*
X66078526Y-68641316D01*
X65860526Y-68551017D01*
X65706377Y-68487167D01*
X65371452Y-68263377D01*
X65086623Y-67978548D01*
X64862833Y-67643623D01*
X64759549Y-67394272D01*
X64708684Y-67271474D01*
X64630100Y-66876406D01*
X64630100Y-66473594D01*
X64708684Y-66078526D01*
X64830438Y-65784586D01*
X64862833Y-65706377D01*
X65086623Y-65371452D01*
X65371452Y-65086623D01*
X65706377Y-64862833D01*
X65921745Y-64773625D01*
X66078526Y-64708684D01*
X66473594Y-64630100D01*
X66876406Y-64630100D01*
X67271474Y-64708684D01*
G37*
G36*
X52975104Y-65784585D02*
G01*
X53143626Y-65854389D01*
X53295291Y-65955728D01*
X53424272Y-66084709D01*
X53525611Y-66236374D01*
X53595415Y-66404896D01*
X53631000Y-66583797D01*
X53631000Y-66766203D01*
X53595415Y-66945104D01*
X53525611Y-67113626D01*
X53424272Y-67265291D01*
X53295291Y-67394272D01*
X53143626Y-67495611D01*
X52975104Y-67565415D01*
X52796203Y-67601000D01*
X52613797Y-67601000D01*
X52434896Y-67565415D01*
X52266374Y-67495611D01*
X52114709Y-67394272D01*
X51985728Y-67265291D01*
X51884389Y-67113626D01*
X51814585Y-66945104D01*
X51779000Y-66766203D01*
X51779000Y-66583797D01*
X51814585Y-66404896D01*
X51884389Y-66236374D01*
X51985728Y-66084709D01*
X52114709Y-65955728D01*
X52266374Y-65854389D01*
X52434896Y-65784585D01*
X52613797Y-65749000D01*
X52796203Y-65749000D01*
X52975104Y-65784585D01*
G37*
G36*
X42815104Y-65784585D02*
G01*
X42983626Y-65854389D01*
X43135291Y-65955728D01*
X43264272Y-66084709D01*
X43365611Y-66236374D01*
X43435415Y-66404896D01*
X43471000Y-66583797D01*
X43471000Y-66766203D01*
X43435415Y-66945104D01*
X43365611Y-67113626D01*
X43264272Y-67265291D01*
X43135291Y-67394272D01*
X42983626Y-67495611D01*
X42815104Y-67565415D01*
X42636203Y-67601000D01*
X42453797Y-67601000D01*
X42274896Y-67565415D01*
X42106374Y-67495611D01*
X41954709Y-67394272D01*
X41825728Y-67265291D01*
X41724389Y-67113626D01*
X41654585Y-66945104D01*
X41619000Y-66766203D01*
X41619000Y-66583797D01*
X41654585Y-66404896D01*
X41724389Y-66236374D01*
X41825728Y-66084709D01*
X41954709Y-65955728D01*
X42106374Y-65854389D01*
X42274896Y-65784585D01*
X42453797Y-65749000D01*
X42636203Y-65749000D01*
X42815104Y-65784585D01*
G37*
G36*
X72025104Y-65784585D02*
G01*
X72193626Y-65854389D01*
X72345291Y-65955728D01*
X72474272Y-66084709D01*
X72575611Y-66236374D01*
X72645415Y-66404896D01*
X72681000Y-66583797D01*
X72681000Y-66766203D01*
X72645415Y-66945104D01*
X72575611Y-67113626D01*
X72474272Y-67265291D01*
X72345291Y-67394272D01*
X72193626Y-67495611D01*
X72025104Y-67565415D01*
X71846203Y-67601000D01*
X71663797Y-67601000D01*
X71484896Y-67565415D01*
X71316374Y-67495611D01*
X71164709Y-67394272D01*
X71035728Y-67265291D01*
X70934389Y-67113626D01*
X70864585Y-66945104D01*
X70829000Y-66766203D01*
X70829000Y-66583797D01*
X70864585Y-66404896D01*
X70934389Y-66236374D01*
X71035728Y-66084709D01*
X71164709Y-65955728D01*
X71316374Y-65854389D01*
X71484896Y-65784585D01*
X71663797Y-65749000D01*
X71846203Y-65749000D01*
X72025104Y-65784585D01*
G37*
G36*
X61865104Y-65784585D02*
G01*
X62033626Y-65854389D01*
X62185291Y-65955728D01*
X62314272Y-66084709D01*
X62415611Y-66236374D01*
X62485415Y-66404896D01*
X62521000Y-66583797D01*
X62521000Y-66766203D01*
X62485415Y-66945104D01*
X62415611Y-67113626D01*
X62314272Y-67265291D01*
X62185291Y-67394272D01*
X62033626Y-67495611D01*
X61865104Y-67565415D01*
X61686203Y-67601000D01*
X61503797Y-67601000D01*
X61324896Y-67565415D01*
X61156374Y-67495611D01*
X61004709Y-67394272D01*
X60875728Y-67265291D01*
X60774389Y-67113626D01*
X60704585Y-66945104D01*
X60669000Y-66766203D01*
X60669000Y-66583797D01*
X60704585Y-66404896D01*
X60774389Y-66236374D01*
X60875728Y-66084709D01*
X61004709Y-65955728D01*
X61156374Y-65854389D01*
X61324896Y-65784585D01*
X61503797Y-65749000D01*
X61686203Y-65749000D01*
X61865104Y-65784585D01*
G37*
G36*
X74813512Y-64743927D02*
G01*
X74962812Y-64773624D01*
X75126784Y-64841544D01*
X75274354Y-64940147D01*
X75399853Y-65065646D01*
X75498456Y-65213216D01*
X75566376Y-65377188D01*
X75601000Y-65551259D01*
X75601000Y-65728741D01*
X75566376Y-65902812D01*
X75498456Y-66066784D01*
X75399853Y-66214354D01*
X75274354Y-66339853D01*
X75126784Y-66438456D01*
X74962812Y-66506376D01*
X74813512Y-66536073D01*
X74788742Y-66541000D01*
X74611258Y-66541000D01*
X74586488Y-66536073D01*
X74437188Y-66506376D01*
X74273216Y-66438456D01*
X74125646Y-66339853D01*
X74000147Y-66214354D01*
X73901544Y-66066784D01*
X73833624Y-65902812D01*
X73799000Y-65728741D01*
X73799000Y-65551259D01*
X73833624Y-65377188D01*
X73901544Y-65213216D01*
X74000147Y-65065646D01*
X74125646Y-64940147D01*
X74273216Y-64841544D01*
X74437188Y-64773624D01*
X74586488Y-64743927D01*
X74611258Y-64739000D01*
X74788742Y-64739000D01*
X74813512Y-64743927D01*
G37*
G36*
X75601000Y-64001000D02*
G01*
X73799000Y-64001000D01*
X73799000Y-62199000D01*
X75601000Y-62199000D01*
X75601000Y-64001000D01*
G37*
G36*
X40601000Y-60601000D02*
G01*
X38799000Y-60601000D01*
X38799000Y-58799000D01*
X40601000Y-58799000D01*
X40601000Y-60601000D01*
G37*
G36*
X68613512Y-57883927D02*
G01*
X68762812Y-57913624D01*
X68926784Y-57981544D01*
X69074354Y-58080147D01*
X69199853Y-58205646D01*
X69298456Y-58353216D01*
X69366376Y-58517188D01*
X69401000Y-58691259D01*
X69401000Y-58868741D01*
X69366376Y-59042812D01*
X69298456Y-59206784D01*
X69199853Y-59354354D01*
X69074354Y-59479853D01*
X68926784Y-59578456D01*
X68762812Y-59646376D01*
X68613512Y-59676073D01*
X68588742Y-59681000D01*
X68411258Y-59681000D01*
X68386488Y-59676073D01*
X68237188Y-59646376D01*
X68073216Y-59578456D01*
X67925646Y-59479853D01*
X67800147Y-59354354D01*
X67701544Y-59206784D01*
X67633624Y-59042812D01*
X67599000Y-58868741D01*
X67599000Y-58691259D01*
X67633624Y-58517188D01*
X67701544Y-58353216D01*
X67800147Y-58205646D01*
X67925646Y-58080147D01*
X68073216Y-57981544D01*
X68237188Y-57913624D01*
X68386488Y-57883927D01*
X68411258Y-57879000D01*
X68588742Y-57879000D01*
X68613512Y-57883927D01*
G37*
G36*
X73274940Y-58158627D02*
G01*
X73323336Y-58168253D01*
X73361102Y-58183896D01*
X73414511Y-58206019D01*
X73414512Y-58206020D01*
X73496569Y-58260848D01*
X73566352Y-58330631D01*
X73581444Y-58353218D01*
X73621181Y-58412689D01*
X73643304Y-58466098D01*
X73658947Y-58503864D01*
X73678200Y-58600656D01*
X73678200Y-58699344D01*
X73658947Y-58796136D01*
X73643304Y-58833902D01*
X73621181Y-58887311D01*
X73621180Y-58887312D01*
X73566352Y-58969369D01*
X73496569Y-59039152D01*
X73491091Y-59042812D01*
X73414511Y-59093981D01*
X73361102Y-59116104D01*
X73323336Y-59131747D01*
X73274940Y-59141373D01*
X73226545Y-59151000D01*
X73127855Y-59151000D01*
X73079460Y-59141373D01*
X73031064Y-59131747D01*
X72993298Y-59116104D01*
X72939889Y-59093981D01*
X72863309Y-59042812D01*
X72857831Y-59039152D01*
X72788048Y-58969369D01*
X72733220Y-58887312D01*
X72733219Y-58887311D01*
X72711096Y-58833902D01*
X72695453Y-58796136D01*
X72676200Y-58699344D01*
X72676200Y-58600656D01*
X72695453Y-58503864D01*
X72711096Y-58466098D01*
X72733219Y-58412689D01*
X72772956Y-58353218D01*
X72788048Y-58330631D01*
X72857831Y-58260848D01*
X72939888Y-58206020D01*
X72939889Y-58206019D01*
X72993298Y-58183896D01*
X73031064Y-58168253D01*
X73079460Y-58158627D01*
X73127855Y-58149000D01*
X73226545Y-58149000D01*
X73274940Y-58158627D01*
G37*
G36*
X39813512Y-56263927D02*
G01*
X39962812Y-56293624D01*
X40126784Y-56361544D01*
X40274354Y-56460147D01*
X40399853Y-56585646D01*
X40498456Y-56733216D01*
X40566376Y-56897188D01*
X40601000Y-57071259D01*
X40601000Y-57248741D01*
X40566376Y-57422812D01*
X40498456Y-57586784D01*
X40399853Y-57734354D01*
X40274354Y-57859853D01*
X40126784Y-57958456D01*
X39962812Y-58026376D01*
X39813512Y-58056073D01*
X39788742Y-58061000D01*
X39611258Y-58061000D01*
X39586488Y-58056073D01*
X39437188Y-58026376D01*
X39273216Y-57958456D01*
X39125646Y-57859853D01*
X39000147Y-57734354D01*
X38901544Y-57586784D01*
X38833624Y-57422812D01*
X38799000Y-57248741D01*
X38799000Y-57071259D01*
X38833624Y-56897188D01*
X38901544Y-56733216D01*
X39000147Y-56585646D01*
X39125646Y-56460147D01*
X39273216Y-56361544D01*
X39437188Y-56293624D01*
X39586488Y-56263927D01*
X39611258Y-56259000D01*
X39788742Y-56259000D01*
X39813512Y-56263927D01*
G37*
G36*
X68613512Y-55343927D02*
G01*
X68762812Y-55373624D01*
X68926784Y-55441544D01*
X69074354Y-55540147D01*
X69199853Y-55665646D01*
X69298456Y-55813216D01*
X69366376Y-55977188D01*
X69378701Y-56039153D01*
X69400949Y-56151000D01*
X69401000Y-56151259D01*
X69401000Y-56328741D01*
X69366376Y-56502812D01*
X69298456Y-56666784D01*
X69199853Y-56814354D01*
X69074354Y-56939853D01*
X68926784Y-57038456D01*
X68762812Y-57106376D01*
X68613512Y-57136073D01*
X68588742Y-57141000D01*
X68411258Y-57141000D01*
X68386488Y-57136073D01*
X68237188Y-57106376D01*
X68073216Y-57038456D01*
X67925646Y-56939853D01*
X67800147Y-56814354D01*
X67701544Y-56666784D01*
X67633624Y-56502812D01*
X67599000Y-56328741D01*
X67599000Y-56151259D01*
X67599052Y-56151000D01*
X67621299Y-56039153D01*
X67633624Y-55977188D01*
X67701544Y-55813216D01*
X67800147Y-55665646D01*
X67925646Y-55540147D01*
X68073216Y-55441544D01*
X68237188Y-55373624D01*
X68386488Y-55343927D01*
X68411258Y-55339000D01*
X68588742Y-55339000D01*
X68613512Y-55343927D01*
G37*
G36*
X73274940Y-55158626D02*
G01*
X73323336Y-55168253D01*
X73361102Y-55183896D01*
X73414511Y-55206019D01*
X73414512Y-55206020D01*
X73496569Y-55260848D01*
X73566352Y-55330631D01*
X73566353Y-55330633D01*
X73621181Y-55412689D01*
X73633133Y-55441544D01*
X73658947Y-55503864D01*
X73666164Y-55540147D01*
X73678200Y-55600655D01*
X73678200Y-55699345D01*
X73658947Y-55796135D01*
X73621181Y-55887311D01*
X73621180Y-55887312D01*
X73566352Y-55969369D01*
X73496569Y-56039152D01*
X73455262Y-56066752D01*
X73414511Y-56093981D01*
X73361102Y-56116104D01*
X73323336Y-56131747D01*
X73274940Y-56141374D01*
X73226545Y-56151000D01*
X73127855Y-56151000D01*
X73079460Y-56141374D01*
X73031064Y-56131747D01*
X72993298Y-56116104D01*
X72939889Y-56093981D01*
X72899138Y-56066752D01*
X72857831Y-56039152D01*
X72788048Y-55969369D01*
X72733220Y-55887312D01*
X72733219Y-55887311D01*
X72695453Y-55796135D01*
X72676200Y-55699345D01*
X72676200Y-55600655D01*
X72688236Y-55540147D01*
X72695453Y-55503864D01*
X72721267Y-55441544D01*
X72733219Y-55412689D01*
X72788047Y-55330633D01*
X72788048Y-55330631D01*
X72857831Y-55260848D01*
X72939888Y-55206020D01*
X72939889Y-55206019D01*
X72993298Y-55183896D01*
X73031064Y-55168253D01*
X73079460Y-55158626D01*
X73127855Y-55149000D01*
X73226545Y-55149000D01*
X73274940Y-55158626D01*
G37*
G36*
X39813512Y-53723927D02*
G01*
X39962812Y-53753624D01*
X40126784Y-53821544D01*
X40274354Y-53920147D01*
X40399853Y-54045646D01*
X40498456Y-54193216D01*
X40566376Y-54357188D01*
X40601000Y-54531259D01*
X40601000Y-54708741D01*
X40566376Y-54882812D01*
X40498456Y-55046784D01*
X40399853Y-55194354D01*
X40274354Y-55319853D01*
X40126784Y-55418456D01*
X39962812Y-55486376D01*
X39813512Y-55516073D01*
X39788742Y-55521000D01*
X39611258Y-55521000D01*
X39586488Y-55516073D01*
X39437188Y-55486376D01*
X39273216Y-55418456D01*
X39125646Y-55319853D01*
X39000147Y-55194354D01*
X38901544Y-55046784D01*
X38833624Y-54882812D01*
X38799000Y-54708741D01*
X38799000Y-54531259D01*
X38833624Y-54357188D01*
X38901544Y-54193216D01*
X39000147Y-54045646D01*
X39125646Y-53920147D01*
X39273216Y-53821544D01*
X39437188Y-53753624D01*
X39586488Y-53723927D01*
X39611258Y-53719000D01*
X39788742Y-53719000D01*
X39813512Y-53723927D01*
G37*
G36*
X69401000Y-54601000D02*
G01*
X67599000Y-54601000D01*
X67599000Y-52799000D01*
X69401000Y-52799000D01*
X69401000Y-54601000D01*
G37*
G36*
X75601000Y-50941000D02*
G01*
X73799000Y-50941000D01*
X73799000Y-49139000D01*
X75601000Y-49139000D01*
X75601000Y-50941000D01*
G37*
G36*
X67271474Y-45658684D02*
G01*
X67489474Y-45748983D01*
X67643623Y-45812833D01*
X67978548Y-46036623D01*
X68263377Y-46321452D01*
X68487167Y-46656377D01*
X68519562Y-46734586D01*
X68641316Y-47028526D01*
X68719900Y-47423594D01*
X68719900Y-47826406D01*
X68641316Y-48221474D01*
X68566954Y-48401000D01*
X68487167Y-48593623D01*
X68263377Y-48928548D01*
X67978548Y-49213377D01*
X67643623Y-49437167D01*
X67489474Y-49501017D01*
X67271474Y-49591316D01*
X66876406Y-49669900D01*
X66473594Y-49669900D01*
X66078526Y-49591316D01*
X65860526Y-49501017D01*
X65706377Y-49437167D01*
X65371452Y-49213377D01*
X65086623Y-48928548D01*
X64862833Y-48593623D01*
X64783046Y-48401000D01*
X64708684Y-48221474D01*
X64630100Y-47826406D01*
X64630100Y-47423594D01*
X64708684Y-47028526D01*
X64830438Y-46734586D01*
X64862833Y-46656377D01*
X65086623Y-46321452D01*
X65371452Y-46036623D01*
X65706377Y-45812833D01*
X65860526Y-45748983D01*
X66078526Y-45658684D01*
X66473594Y-45580100D01*
X66876406Y-45580100D01*
X67271474Y-45658684D01*
G37*
G36*
X48221474Y-45658684D02*
G01*
X48439474Y-45748983D01*
X48593623Y-45812833D01*
X48928548Y-46036623D01*
X49213377Y-46321452D01*
X49437167Y-46656377D01*
X49469562Y-46734586D01*
X49591316Y-47028526D01*
X49669900Y-47423594D01*
X49669900Y-47826406D01*
X49591316Y-48221474D01*
X49516954Y-48401000D01*
X49437167Y-48593623D01*
X49213377Y-48928548D01*
X48928548Y-49213377D01*
X48593623Y-49437167D01*
X48439474Y-49501017D01*
X48221474Y-49591316D01*
X47826406Y-49669900D01*
X47423594Y-49669900D01*
X47028526Y-49591316D01*
X46810526Y-49501017D01*
X46656377Y-49437167D01*
X46321452Y-49213377D01*
X46036623Y-48928548D01*
X45812833Y-48593623D01*
X45733046Y-48401000D01*
X45658684Y-48221474D01*
X45580100Y-47826406D01*
X45580100Y-47423594D01*
X45658684Y-47028526D01*
X45780438Y-46734586D01*
X45812833Y-46656377D01*
X46036623Y-46321452D01*
X46321452Y-46036623D01*
X46656377Y-45812833D01*
X46810526Y-45748983D01*
X47028526Y-45658684D01*
X47423594Y-45580100D01*
X47826406Y-45580100D01*
X48221474Y-45658684D01*
G37*
G36*
X61865104Y-46734585D02*
G01*
X62033626Y-46804389D01*
X62185291Y-46905728D01*
X62314272Y-47034709D01*
X62415611Y-47186374D01*
X62485415Y-47354896D01*
X62521000Y-47533797D01*
X62521000Y-47716203D01*
X62485415Y-47895104D01*
X62415611Y-48063626D01*
X62314272Y-48215291D01*
X62185291Y-48344272D01*
X62033626Y-48445611D01*
X61865104Y-48515415D01*
X61686203Y-48551000D01*
X61503797Y-48551000D01*
X61324896Y-48515415D01*
X61156374Y-48445611D01*
X61004709Y-48344272D01*
X60875728Y-48215291D01*
X60774389Y-48063626D01*
X60704585Y-47895104D01*
X60669000Y-47716203D01*
X60669000Y-47533797D01*
X60704585Y-47354896D01*
X60774389Y-47186374D01*
X60875728Y-47034709D01*
X61004709Y-46905728D01*
X61156374Y-46804389D01*
X61324896Y-46734585D01*
X61503797Y-46699000D01*
X61686203Y-46699000D01*
X61865104Y-46734585D01*
G37*
G36*
X42815104Y-46734585D02*
G01*
X42983626Y-46804389D01*
X43135291Y-46905728D01*
X43264272Y-47034709D01*
X43365611Y-47186374D01*
X43435415Y-47354896D01*
X43471000Y-47533797D01*
X43471000Y-47716203D01*
X43435415Y-47895104D01*
X43365611Y-48063626D01*
X43264272Y-48215291D01*
X43135291Y-48344272D01*
X42983626Y-48445611D01*
X42815104Y-48515415D01*
X42636203Y-48551000D01*
X42453797Y-48551000D01*
X42274896Y-48515415D01*
X42106374Y-48445611D01*
X41954709Y-48344272D01*
X41825728Y-48215291D01*
X41724389Y-48063626D01*
X41654585Y-47895104D01*
X41619000Y-47716203D01*
X41619000Y-47533797D01*
X41654585Y-47354896D01*
X41724389Y-47186374D01*
X41825728Y-47034709D01*
X41954709Y-46905728D01*
X42106374Y-46804389D01*
X42274896Y-46734585D01*
X42453797Y-46699000D01*
X42636203Y-46699000D01*
X42815104Y-46734585D01*
G37*
G36*
X52975104Y-46734585D02*
G01*
X53143626Y-46804389D01*
X53295291Y-46905728D01*
X53424272Y-47034709D01*
X53525611Y-47186374D01*
X53595415Y-47354896D01*
X53631000Y-47533797D01*
X53631000Y-47716203D01*
X53595415Y-47895104D01*
X53525611Y-48063626D01*
X53424272Y-48215291D01*
X53295291Y-48344272D01*
X53143626Y-48445611D01*
X52975104Y-48515415D01*
X52796203Y-48551000D01*
X52613797Y-48551000D01*
X52434896Y-48515415D01*
X52266374Y-48445611D01*
X52114709Y-48344272D01*
X51985728Y-48215291D01*
X51884389Y-48063626D01*
X51814585Y-47895104D01*
X51779000Y-47716203D01*
X51779000Y-47533797D01*
X51814585Y-47354896D01*
X51884389Y-47186374D01*
X51985728Y-47034709D01*
X52114709Y-46905728D01*
X52266374Y-46804389D01*
X52434896Y-46734585D01*
X52613797Y-46699000D01*
X52796203Y-46699000D01*
X52975104Y-46734585D01*
G37*
G36*
X72025104Y-46734585D02*
G01*
X72193626Y-46804389D01*
X72345291Y-46905728D01*
X72474272Y-47034709D01*
X72575611Y-47186374D01*
X72645415Y-47354896D01*
X72681000Y-47533797D01*
X72681000Y-47716203D01*
X72645415Y-47895104D01*
X72575611Y-48063626D01*
X72474272Y-48215291D01*
X72345291Y-48344272D01*
X72193626Y-48445611D01*
X72025104Y-48515415D01*
X71846203Y-48551000D01*
X71663797Y-48551000D01*
X71484896Y-48515415D01*
X71316374Y-48445611D01*
X71164709Y-48344272D01*
X71035728Y-48215291D01*
X70934389Y-48063626D01*
X70864585Y-47895104D01*
X70829000Y-47716203D01*
X70829000Y-47533797D01*
X70864585Y-47354896D01*
X70934389Y-47186374D01*
X71035728Y-47034709D01*
X71164709Y-46905728D01*
X71316374Y-46804389D01*
X71484896Y-46734585D01*
X71663797Y-46699000D01*
X71846203Y-46699000D01*
X72025104Y-46734585D01*
G37*
G36*
X74813512Y-46603927D02*
G01*
X74962812Y-46633624D01*
X75126784Y-46701544D01*
X75274354Y-46800147D01*
X75399853Y-46925646D01*
X75498456Y-47073216D01*
X75566376Y-47237188D01*
X75601000Y-47411259D01*
X75601000Y-47588741D01*
X75566376Y-47762812D01*
X75498456Y-47926784D01*
X75399853Y-48074354D01*
X75274354Y-48199853D01*
X75126784Y-48298456D01*
X74962812Y-48366376D01*
X74813512Y-48396073D01*
X74788742Y-48401000D01*
X74611258Y-48401000D01*
X74586488Y-48396073D01*
X74437188Y-48366376D01*
X74273216Y-48298456D01*
X74125646Y-48199853D01*
X74000147Y-48074354D01*
X73901544Y-47926784D01*
X73833624Y-47762812D01*
X73799000Y-47588741D01*
X73799000Y-47411259D01*
X73833624Y-47237188D01*
X73901544Y-47073216D01*
X74000147Y-46925646D01*
X74125646Y-46800147D01*
X74273216Y-46701544D01*
X74437188Y-46633624D01*
X74586488Y-46603927D01*
X74611258Y-46599000D01*
X74788742Y-46599000D01*
X74813512Y-46603927D01*
G37*
G36*
X74813512Y-44063927D02*
G01*
X74962812Y-44093624D01*
X75126784Y-44161544D01*
X75274354Y-44260147D01*
X75399853Y-44385646D01*
X75498456Y-44533216D01*
X75566376Y-44697188D01*
X75601000Y-44871259D01*
X75601000Y-45048741D01*
X75566376Y-45222812D01*
X75498456Y-45386784D01*
X75399853Y-45534354D01*
X75274354Y-45659853D01*
X75126784Y-45758456D01*
X74962812Y-45826376D01*
X74813512Y-45856073D01*
X74788742Y-45861000D01*
X74611258Y-45861000D01*
X74586488Y-45856073D01*
X74437188Y-45826376D01*
X74273216Y-45758456D01*
X74125646Y-45659853D01*
X74000147Y-45534354D01*
X73901544Y-45386784D01*
X73833624Y-45222812D01*
X73799000Y-45048741D01*
X73799000Y-44871259D01*
X73833624Y-44697188D01*
X73901544Y-44533216D01*
X74000147Y-44385646D01*
X74125646Y-44260147D01*
X74273216Y-44161544D01*
X74437188Y-44093624D01*
X74586488Y-44063927D01*
X74611258Y-44059000D01*
X74788742Y-44059000D01*
X74813512Y-44063927D01*
G37*
G36*
X61578014Y-41405723D02*
G01*
X61681878Y-41437229D01*
X61725907Y-41460763D01*
X61777599Y-41488393D01*
X61777601Y-41488394D01*
X61777600Y-41488394D01*
X61861501Y-41557249D01*
X61930356Y-41641150D01*
X61981521Y-41736871D01*
X62013027Y-41840735D01*
X62021000Y-41921683D01*
X62021000Y-43075817D01*
X62013027Y-43156765D01*
X61981521Y-43260629D01*
X61981519Y-43260632D01*
X61930357Y-43356350D01*
X61861501Y-43440251D01*
X61777600Y-43509107D01*
X61709055Y-43545745D01*
X61681879Y-43560271D01*
X61578015Y-43591777D01*
X61470000Y-43602416D01*
X61361986Y-43591777D01*
X61258122Y-43560271D01*
X61230946Y-43545745D01*
X61162401Y-43509107D01*
X61078500Y-43440251D01*
X61009644Y-43356350D01*
X60958482Y-43260632D01*
X60958480Y-43260629D01*
X60926974Y-43156765D01*
X60919001Y-43075817D01*
X60919000Y-41921684D01*
X60926973Y-41840736D01*
X60958479Y-41736872D01*
X61009644Y-41641150D01*
X61078499Y-41557249D01*
X61162400Y-41488394D01*
X61162399Y-41488394D01*
X61162401Y-41488393D01*
X61214093Y-41460763D01*
X61258121Y-41437229D01*
X61361985Y-41405723D01*
X61470000Y-41395084D01*
X61578014Y-41405723D01*
G37*
G36*
X52938014Y-41405723D02*
G01*
X53041878Y-41437229D01*
X53085907Y-41460763D01*
X53137599Y-41488393D01*
X53137601Y-41488394D01*
X53137600Y-41488394D01*
X53221501Y-41557249D01*
X53290356Y-41641150D01*
X53341521Y-41736871D01*
X53373027Y-41840735D01*
X53381000Y-41921683D01*
X53381000Y-43075817D01*
X53373027Y-43156765D01*
X53341521Y-43260629D01*
X53341519Y-43260632D01*
X53290357Y-43356350D01*
X53221501Y-43440251D01*
X53137600Y-43509107D01*
X53069055Y-43545745D01*
X53041879Y-43560271D01*
X52938015Y-43591777D01*
X52830000Y-43602416D01*
X52721986Y-43591777D01*
X52618122Y-43560271D01*
X52590946Y-43545745D01*
X52522401Y-43509107D01*
X52438500Y-43440251D01*
X52369644Y-43356350D01*
X52318482Y-43260632D01*
X52318480Y-43260629D01*
X52286974Y-43156765D01*
X52279001Y-43075817D01*
X52279000Y-41921684D01*
X52286973Y-41840736D01*
X52318479Y-41736872D01*
X52369644Y-41641150D01*
X52438499Y-41557249D01*
X52522400Y-41488394D01*
X52522399Y-41488394D01*
X52522401Y-41488393D01*
X52574093Y-41460763D01*
X52618121Y-41437229D01*
X52721985Y-41405723D01*
X52830000Y-41395084D01*
X52938014Y-41405723D01*
G37*
G36*
X73975880Y-38259776D02*
G01*
X74356593Y-38335504D01*
X74766249Y-38505189D01*
X75134929Y-38751534D01*
X75448466Y-39065071D01*
X75694811Y-39433751D01*
X75864496Y-39843407D01*
X75951000Y-40278296D01*
X75951000Y-40721704D01*
X75864496Y-41156593D01*
X75694811Y-41566249D01*
X75448466Y-41934929D01*
X75134929Y-42248466D01*
X74766249Y-42494811D01*
X74356593Y-42664496D01*
X73975880Y-42740224D01*
X73921705Y-42751000D01*
X73478295Y-42751000D01*
X73424120Y-42740224D01*
X73043407Y-42664496D01*
X72633751Y-42494811D01*
X72265071Y-42248466D01*
X71951534Y-41934929D01*
X71705189Y-41566249D01*
X71535504Y-41156593D01*
X71449000Y-40721704D01*
X71449000Y-40278296D01*
X71535504Y-39843407D01*
X71705189Y-39433751D01*
X71951534Y-39065071D01*
X72265071Y-38751534D01*
X72633751Y-38505189D01*
X73043407Y-38335504D01*
X73424120Y-38259776D01*
X73478295Y-38249000D01*
X73921705Y-38249000D01*
X73975880Y-38259776D01*
G37*
G36*
X60149672Y-41607199D02*
G01*
X60149674Y-41607200D01*
X60149675Y-41607200D01*
X60218103Y-41635543D01*
X60279686Y-41676692D01*
X60332058Y-41729064D01*
X60373207Y-41790647D01*
X60400554Y-41856671D01*
X60401551Y-41859078D01*
X60416000Y-41931716D01*
X60416000Y-42005784D01*
X60403679Y-42067726D01*
X60401550Y-42078425D01*
X60373207Y-42146853D01*
X60332058Y-42208436D01*
X60279686Y-42260808D01*
X60218103Y-42301957D01*
X60149675Y-42330300D01*
X60149674Y-42330300D01*
X60149672Y-42330301D01*
X60077034Y-42344750D01*
X60002966Y-42344750D01*
X59930328Y-42330301D01*
X59930326Y-42330300D01*
X59930325Y-42330300D01*
X59861897Y-42301957D01*
X59800314Y-42260808D01*
X59747942Y-42208436D01*
X59706793Y-42146853D01*
X59678450Y-42078425D01*
X59676322Y-42067726D01*
X59664000Y-42005784D01*
X59664000Y-41931716D01*
X59678449Y-41859078D01*
X59679446Y-41856671D01*
X59706793Y-41790647D01*
X59747942Y-41729064D01*
X59800314Y-41676692D01*
X59861897Y-41635543D01*
X59930325Y-41607200D01*
X59930326Y-41607200D01*
X59930328Y-41607199D01*
X60002966Y-41592750D01*
X60077034Y-41592750D01*
X60149672Y-41607199D01*
G37*
G36*
X54369672Y-41607199D02*
G01*
X54369674Y-41607200D01*
X54369675Y-41607200D01*
X54438103Y-41635543D01*
X54499686Y-41676692D01*
X54552058Y-41729064D01*
X54593207Y-41790647D01*
X54620554Y-41856671D01*
X54621551Y-41859078D01*
X54636000Y-41931716D01*
X54636000Y-42005784D01*
X54623679Y-42067726D01*
X54621550Y-42078425D01*
X54593207Y-42146853D01*
X54552058Y-42208436D01*
X54499686Y-42260808D01*
X54438103Y-42301957D01*
X54369675Y-42330300D01*
X54369674Y-42330300D01*
X54369672Y-42330301D01*
X54297034Y-42344750D01*
X54222966Y-42344750D01*
X54150328Y-42330301D01*
X54150326Y-42330300D01*
X54150325Y-42330300D01*
X54081897Y-42301957D01*
X54020314Y-42260808D01*
X53967942Y-42208436D01*
X53926793Y-42146853D01*
X53898450Y-42078425D01*
X53896322Y-42067726D01*
X53884000Y-42005784D01*
X53884000Y-41931716D01*
X53898449Y-41859078D01*
X53899446Y-41856671D01*
X53926793Y-41790647D01*
X53967942Y-41729064D01*
X54020314Y-41676692D01*
X54081897Y-41635543D01*
X54150325Y-41607200D01*
X54150326Y-41607200D01*
X54150328Y-41607199D01*
X54222966Y-41592750D01*
X54297034Y-41592750D01*
X54369672Y-41607199D01*
G37*
G36*
X52938014Y-37475723D02*
G01*
X53041878Y-37507229D01*
X53085907Y-37530763D01*
X53137599Y-37558393D01*
X53137601Y-37558394D01*
X53137600Y-37558394D01*
X53221501Y-37627249D01*
X53290356Y-37711150D01*
X53341521Y-37806871D01*
X53373027Y-37910735D01*
X53381000Y-37991683D01*
X53381000Y-38645817D01*
X53373027Y-38726765D01*
X53341521Y-38830629D01*
X53341519Y-38830632D01*
X53290357Y-38926350D01*
X53221501Y-39010251D01*
X53137600Y-39079107D01*
X53069055Y-39115745D01*
X53041879Y-39130271D01*
X52938015Y-39161777D01*
X52830000Y-39172416D01*
X52721986Y-39161777D01*
X52618122Y-39130271D01*
X52590946Y-39115745D01*
X52522401Y-39079107D01*
X52438500Y-39010251D01*
X52369645Y-38926351D01*
X52318480Y-38830629D01*
X52286973Y-38726765D01*
X52279000Y-38645817D01*
X52279000Y-37991684D01*
X52286973Y-37910736D01*
X52318479Y-37806872D01*
X52369644Y-37711150D01*
X52438499Y-37627249D01*
X52522400Y-37558394D01*
X52522399Y-37558394D01*
X52522401Y-37558393D01*
X52574093Y-37530763D01*
X52618121Y-37507229D01*
X52721985Y-37475723D01*
X52830000Y-37465084D01*
X52938014Y-37475723D01*
G37*
G36*
X61578014Y-37475723D02*
G01*
X61681878Y-37507229D01*
X61725907Y-37530763D01*
X61777599Y-37558393D01*
X61777601Y-37558394D01*
X61777600Y-37558394D01*
X61861501Y-37627249D01*
X61930356Y-37711150D01*
X61981521Y-37806871D01*
X62013027Y-37910735D01*
X62021000Y-37991683D01*
X62021000Y-38645817D01*
X62013027Y-38726765D01*
X61981521Y-38830629D01*
X61981519Y-38830632D01*
X61930357Y-38926350D01*
X61861501Y-39010251D01*
X61777600Y-39079107D01*
X61709055Y-39115745D01*
X61681879Y-39130271D01*
X61578015Y-39161777D01*
X61470000Y-39172416D01*
X61361986Y-39161777D01*
X61258122Y-39130271D01*
X61230946Y-39115745D01*
X61162401Y-39079107D01*
X61078500Y-39010251D01*
X61009645Y-38926351D01*
X60958480Y-38830629D01*
X60926973Y-38726765D01*
X60919000Y-38645817D01*
X60919000Y-37991684D01*
X60926973Y-37910736D01*
X60958479Y-37806872D01*
X61009644Y-37711150D01*
X61078499Y-37627249D01*
X61162400Y-37558394D01*
X61162399Y-37558394D01*
X61162401Y-37558393D01*
X61214093Y-37530763D01*
X61258121Y-37507229D01*
X61361985Y-37475723D01*
X61470000Y-37465084D01*
X61578014Y-37475723D01*
G37*
M02*
